<svg xmlns="http://www.w3.org/2000/svg" viewBox="0 0 500 500"><g id="freepik--Floor--inject-27"><path d="M418.57,243.26c-93.71-54.1-245.14-54.1-338.24,0s-92.61,141.83,1.1,195.93,245.14,54.1,338.25,0S512.28,297.37,418.57,243.26Z" style="fill:#f5f5f5"></path></g><g id="freepik--Shadows--inject-27"><path d="M392.84,372c-28.06-16.2-73.4-16.2-101.27,0s-27.73,42.47.32,58.67,73.41,16.2,101.28,0S420.9,388.23,392.84,372Z" style="fill:#e0e0e0"></path><path d="M219.29,290c-36.44-21-95.34-21-131.55,0s-36,55.16.42,76.2,95.35,21,131.56,0S255.74,311.06,219.29,290Z" style="fill:#e0e0e0"></path><path d="M448.77,330.45c-6.69-3.86-17.49-3.86-24.13,0s-6.6,10.11.08,14,17.49,3.86,24.13,0S455.45,334.31,448.77,330.45Z" style="fill:#e0e0e0"></path><polygon points="246.75 252.15 378.25 327.68 429.58 298.13 298.01 222.56 246.75 252.15" style="fill:#e0e0e0"></polygon></g><g id="freepik--Pictures--inject-27"><polygon points="98.24 103.16 66.33 121.58 66.4 145.97 98.31 127.55 98.24 103.16" style="fill:none"></polygon><polygon points="98.24 103.16 98.31 127.55 101.26 129.26 101.18 101.46 98.24 103.16" style="fill:#f0f0f0"></polygon><polygon points="66.4 145.97 66.41 149.39 101.26 129.26 98.31 127.55 66.4 145.97" style="fill:#f5f5f5"></polygon><path d="M104.74,95.3l-42,24.24.1,36,42-24.25ZM66.41,149.39V146l-.07-24.39,31.91-18.42,2.94-1.7.08,27.8Z" style="fill:#e0e0e0"></path><polygon points="104.74 95.3 101.79 93.58 59.79 117.83 62.74 119.54 104.74 95.3" style="fill:#f5f5f5"></polygon><polygon points="59.79 117.83 59.89 153.84 62.85 155.55 62.74 119.54 59.79 117.83" style="fill:#f0f0f0"></polygon><polygon points="150.16 117.06 118.25 135.48 118.32 159.87 150.23 141.44 150.16 117.06" style="fill:none"></polygon><polygon points="150.16 117.06 150.23 141.44 153.18 143.16 153.1 115.36 150.16 117.06" style="fill:#f0f0f0"></polygon><polygon points="118.32 159.87 118.33 163.29 153.18 143.16 150.23 141.44 118.32 159.87" style="fill:#f5f5f5"></polygon><path d="M156.66,109.2l-42,24.24.11,36,42-24.24Zm-38.33,54.09v-3.42l-.07-24.39,31.91-18.42,2.94-1.7.08,27.8Z" style="fill:#e0e0e0"></path><polygon points="156.66 109.2 153.71 107.48 111.71 131.73 114.67 133.44 156.66 109.2" style="fill:#f5f5f5"></polygon><polygon points="111.71 131.73 111.81 167.74 114.77 169.45 114.67 133.44 111.71 131.73" style="fill:#f0f0f0"></polygon><path d="M199.48,106h0l1.14-.56h0C200.25,105.61,199.86,105.79,199.48,106Z" style="fill:none"></path><path d="M199.07,106.17h0l.43-.2h0Z" style="fill:none"></path><polygon points="212.5 58.45 203.77 63.49 194.91 68.61 203.77 63.49 212.5 58.45" style="fill:none"></polygon><polygon points="212.58 87.22 212.56 79.12 212.54 71.73 212.56 79.12 212.58 87.22" style="fill:none"></polygon><path d="M200.63,105.41l.24-.12-.24.12Z" style="fill:none"></path><polygon points="212.68 122.71 212.66 115.94 212.65 110.02 212.66 115.94 212.68 122.71" style="fill:none"></polygon><path d="M195.68,107.57c1.12-.4,2.25-.87,3.38-1.4h0C197.93,106.7,196.8,107.17,195.68,107.57Z" style="fill:none"></path><polygon points="186.59 83.44 186.66 109.44 186.7 124.51 186.66 109.44 186.59 83.44" style="fill:none"></polygon><path d="M212.66,115.94V110l-.28.15-.49.29c-4.38,2.64-8.76,6.8-12.85,11.28q-1,1.13-2,2.25c-3.45,4-6.82,8.13-10.29,12l0,9.57,4.18-2.41A91.69,91.69,0,0,1,212.66,115.94Z" style="fill:#ebebeb"></path><path d="M212.7,130.62l0-7.91a50.23,50.23,0,0,0-8.88,13Z" style="fill:#ebebeb"></path><path d="M203.8,135.76a50.23,50.23,0,0,1,8.88-13l0-6.77a91.69,91.69,0,0,0-21.72,27.25l12.86-7.43Z" style="fill:#fafafa"></path><path d="M199.07,106.17h0" style="fill:none;stroke:gray;stroke-linecap:round;stroke-linejoin:round;stroke-width:0px"></path><path d="M199.48,106h0" style="fill:none;stroke:gray;stroke-linecap:round;stroke-linejoin:round;stroke-width:0px"></path><path d="M195.07,107.78l.61-.21c1.12-.4,2.25-.87,3.39-1.4l.41-.2c.38-.18.77-.36,1.15-.56.66-.34,1.32-.69,2-1.06-.66.37-1.32.72-2,1.06l.24-.12c.58-.3,1.16-.61,1.74-.94l.38-.21.3-.18a62.39,62.39,0,0,0,8.93-6.4l.39-.33,0-10c-6.35,3.25-12.6,4.26-17.64,2.69a15.48,15.48,0,0,1-8.36-6.47l.08,26A30.55,30.55,0,0,0,195.07,107.78Z" style="fill:#fafafa"></path><path d="M199,121.74c4.09-4.48,8.47-8.64,12.85-11.28l.49-.29.28-.15,0-5.74a124.23,124.23,0,0,0-23.39,17.81c-.85.81-1.69,1.63-2.54,2.42l0,11.52c3.47-3.91,6.84-8.09,10.29-12Q198,122.87,199,121.74Z" style="fill:#fafafa"></path><path d="M212.63,104.28l0-7-.39.33a62.39,62.39,0,0,1-8.93,6.4l-.3.18-.38.21c-.58.33-1.16.64-1.74.94l-.24.12-.16.09h0l.16-.09-1.14.56-.43.2c-1.13.53-2.26,1-3.38,1.4l.64-.24-.64.24-.61.21a30.55,30.55,0,0,1-8.41,1.66l0,15.07c.85-.79,1.69-1.61,2.54-2.42A124.23,124.23,0,0,1,212.63,104.28Z" style="fill:#ebebeb"></path><path d="M212.56,79.12l0-7.39c-4-.94-7.13-3.87-8.77-8.24l-8.86,5.12A18.3,18.3,0,0,0,212.56,79.12Z" style="fill:#fafafa"></path><path d="M194.94,89.91c5,1.57,11.29.56,17.64-2.69l0-8.1a18.3,18.3,0,0,1-17.65-10.51l-8.35,4.82,0,10A15.48,15.48,0,0,0,194.94,89.91Z" style="fill:#ebebeb"></path><path d="M214,55.94,185.09,72.6l.21,75.52,28.87-16.66Zm-27.2,89.66,0-9.57,0-11.52,0-15.07-.08-26,0-10,8.35-4.82,8.86-5.12,8.73-5,0,13.27,0,7.39,0,8.1,0,10,0,7,0,5.74v5.92l0,6.77,0,7.91-8.9,5.14h0l-12.86,7.43Z" style="fill:#fff"></path><path d="M200.45,105.51h0" style="fill:none;stroke:gray;stroke-linecap:round;stroke-linejoin:round;stroke-width:0px"></path><path d="M200.47,105.5l.16-.09" style="fill:none;stroke:gray;stroke-linecap:round;stroke-linejoin:round;stroke-width:0px"></path><path d="M202.61,104.35c-.66.37-1.32.72-2,1.06" style="fill:none;stroke:gray;stroke-linecap:round;stroke-linejoin:round;stroke-width:0px"></path><line x1="200.63" y1="105.41" x2="200.63" y2="105.41" style="fill:none;stroke:gray;stroke-linecap:round;stroke-linejoin:round;stroke-width:0px"></line><path d="M195.68,107.57l.64-.24" style="fill:none;stroke:gray;stroke-linecap:round;stroke-linejoin:round;stroke-width:0px"></path><path d="M212.54,71.73l0-13.27-8.73,5C205.41,67.86,208.53,70.79,212.54,71.73Z" style="fill:#ebebeb"></path><polygon points="214.17 131.46 185.3 148.13 185.31 150.13 215.9 132.47 214.17 131.46" style="fill:#cacaca"></polygon><polygon points="213.96 55.94 214.17 131.46 215.9 132.47 215.68 54.94 213.96 55.94" style="fill:#f0f0f0"></polygon><path d="M220.33,46.9l-39.92,23,.25,88.23,39.92-23Zm-35,103.23v-2l-.21-75.52L214,55.94l1.72-1,.22,77.52Z" style="fill:#e0e0e0"></path><polygon points="220.33 46.9 217.03 45.13 177.12 68.17 180.41 69.94 220.33 46.9" style="fill:#f5f5f5"></polygon><polygon points="177.12 68.17 177.37 156.4 180.66 158.17 180.41 69.94 177.12 68.17" style="fill:#f0f0f0"></polygon><polygon points="88.1 112.42 96.8 119.27 96.82 125.96 67.88 142.67 67.86 135.98 73.37 125.02 78.33 128.87 76.58 134.31 79.12 129.48 88.1 112.42" style="fill:#e0e0e0"></polygon><path d="M78.59,115.79c1.36-.79,2.47-.15,2.48,1.41a5.44,5.44,0,0,1-2.46,4.26c-1.36.79-2.47.15-2.48-1.41A5.44,5.44,0,0,1,78.59,115.79Z" style="fill:#e0e0e0"></path><polygon points="140.02 126.32 148.72 133.17 148.74 139.86 119.8 156.57 119.78 149.88 125.29 138.92 130.25 142.77 128.5 148.21 131.04 143.38 140.02 126.32" style="fill:#e0e0e0"></polygon><path d="M130.51,129.69c1.36-.79,2.47-.15,2.48,1.41a5.44,5.44,0,0,1-2.46,4.26c-1.36.79-2.47.16-2.48-1.41A5.44,5.44,0,0,1,130.51,129.69Z" style="fill:#e0e0e0"></path></g><g id="freepik--Window--inject-27"><polygon points="382.68 74.03 382.4 171 387.8 174.12 388.07 77.14 382.68 74.03" style="fill:#e0e0e0"></polygon><polygon points="388.08 77.14 388.07 77.14 387.8 174.12 392.49 171.39 392.75 79.84 388.08 77.14" style="fill:#f0f0f0"></polygon><rect x="385.38" y="72.47" height="6.23" transform="translate(127.23 371.54) rotate(-60)" style="fill:#e0e0e0"></rect><polygon points="388.06 81.5 388.07 77.14 382.68 74.03 382.67 78.38 388.06 81.5 388.06 81.5" style="opacity:0.2"></polygon><polygon points="388.06 81.5 391.85 79.32 388.08 77.14 388.07 77.14 388.06 81.5" style="opacity:0.2"></polygon><rect x="385.38" y="72.47" height="6.23" transform="translate(127.23 371.54) rotate(-60)" style="fill:#e0e0e0"></rect><polygon points="317.74 36.53 322.43 33.81 322.15 130.78 317.46 133.51 317.74 36.53" style="fill:#f0f0f0"></polygon><polygon points="317.46 133.51 322.15 130.78 457.44 208.89 452.75 211.61 317.46 133.51" style="fill:#f5f5f5"></polygon><path d="M312.36,27.22l146.07,84.33-.31,109.38L312.05,136.59ZM452.75,211.61l.27-97L317.74,36.53l-.28,97,135.29,78.1" style="fill:#e0e0e0"></path><polygon points="312.36 27.22 317.05 24.49 463.13 108.83 458.43 111.55 312.36 27.22" style="fill:#f5f5f5"></polygon><polygon points="458.43 111.55 463.13 108.83 462.81 218.2 458.12 220.93 458.43 111.55" style="fill:#f0f0f0"></polygon></g><g id="freepik--Furniture--inject-27"><polygon points="262.64 190.38 262.64 256.39 374.92 320.87 374.92 254.86 262.64 190.38" style="fill:#e0e0e0"></polygon><polygon points="419.21 229.37 419.21 295.38 374.92 320.87 374.92 254.86 419.21 229.37" style="fill:#e0e0e0"></polygon><polygon points="262.64 190.38 262.64 256.39 374.92 320.87 374.92 254.86 262.64 190.38" style="opacity:0.1"></polygon><polygon points="419.21 229.37 419.21 295.38 374.92 320.87 374.92 254.86 419.21 229.37" style="opacity:0.2"></polygon><polygon points="317.06 262.88 369.62 293.06 369.62 277.56 317.06 247.38 317.06 262.88" style="fill:#e0e0e0"></polygon><polygon points="369.62 273.86 369.62 257.93 317.06 227.75 317.06 243.68 369.62 273.86" style="fill:#e0e0e0"></polygon><polygon points="311.76 224.7 267.94 199.54 267.94 215.47 311.76 240.63 311.76 224.7" style="fill:#e0e0e0"></polygon><polygon points="317.06 281.53 369.62 311.71 369.62 296.76 317.06 266.58 317.06 281.53" style="fill:#e0e0e0"></polygon><polygon points="311.76 244.34 267.94 219.17 267.94 234.67 311.76 259.83 311.76 244.34" style="fill:#e0e0e0"></polygon><polygon points="267.94 238.37 267.94 253.32 311.76 278.48 311.76 263.54 267.94 238.37" style="fill:#e0e0e0"></polygon><polygon points="261.05 184.22 375.94 250.22 420.8 224.4 305.84 158.37 261.05 184.22" style="fill:#ebebeb"></polygon><polygon points="261.05 184.22 261.05 190.97 375.94 256.96 375.94 250.22 261.05 184.22" style="fill:#e0e0e0"></polygon><polygon points="420.8 224.4 420.8 231.14 375.94 256.96 375.94 250.22 420.8 224.4" style="fill:#e0e0e0"></polygon><polygon points="420.8 224.4 420.8 231.14 375.94 256.96 375.94 250.22 420.8 224.4" style="opacity:0.1"></polygon></g><g id="freepik--Plant--inject-27"><path d="M452.93,308.25l-16.19.47-16.18-.47c-.69,10.92,1.44,22.06,4.38,27.5h0a7.44,7.44,0,0,0,3.21,3.26c4.77,2.75,12.49,2.75,17.23,0a7.21,7.21,0,0,0,3.2-3.35C451.51,330.19,453.62,319.12,452.93,308.25Z" style="fill:#fff"></path><path d="M448.15,301.62c6.34,3.66,6.37,9.59.07,13.25s-16.54,3.66-22.88,0-6.37-9.59-.07-13.25S441.81,298,448.15,301.62Z" style="fill:#ebebeb"></path><path d="M445.64,303.08c4.95,2.85,5,7.48.06,10.34s-12.91,2.85-17.85,0-5-7.49-.06-10.34S440.7,300.22,445.64,303.08Z" style="fill:#e0e0e0"></path><g style="opacity:0.15"><path d="M445.64,303.08c4.95,2.85,5,7.48.06,10.34s-12.91,2.85-17.85,0-5-7.49-.06-10.34S440.7,300.22,445.64,303.08Z"></path></g><path d="M463.35,239.2c-36.47,11.94-36.8,36.33-28.58,53.71,2.08,3.51,8.35,5.4,13.81-16.2L439,277.93l11.17-5.65,2.9-8.67-9.31.69,11.81-5A174,174,0,0,1,463.35,239.2Z" style="fill:#407BFF"></path><path d="M463.35,239.2c-36.47,11.94-36.8,36.33-28.58,53.71,2.08,3.51,8.35,5.4,13.81-16.2L439,277.93l11.17-5.65,2.9-8.67-9.31.69,11.81-5A174,174,0,0,1,463.35,239.2Z" style="opacity:0.2"></path><path d="M463.35,239.2c-36.47,11.94-36.8,36.33-28.58,53.71,2.08,3.51,8.35,5.4,13.81-16.2L439,277.93l11.17-5.65,2.9-8.67-9.31.69,11.81-5A174,174,0,0,1,463.35,239.2Z" style="fill:#fff;opacity:0.2"></path><path d="M453,245.3c-19.22,14.6-21,31.33-15.53,48.8C435.58,278.71,433.5,263.16,453,245.3Z" style="fill:#fff"></path><path d="M401.59,264c35.94,5.06,40.3,27.73,35.53,45.27-1.35,3.62-6.87,6.42-15.55-12.79l9.12-.45-11.33-3.42L415.22,285l8.78-.91-11.83-2.66A166,166,0,0,0,401.59,264Z" style="fill:#407BFF"></path><path d="M401.59,264c35.94,5.06,40.3,27.73,35.53,45.27-1.35,3.62-6.87,6.42-15.55-12.79l9.12-.45-11.33-3.42L415.22,285l8.78-.91-11.83-2.66A166,166,0,0,0,401.59,264Z" style="fill:#fff;opacity:0.2"></path><path d="M401.59,264c35.94,5.06,40.3,27.73,35.53,45.27-1.35,3.62-6.87,6.42-15.55-12.79l9.12-.45-11.33-3.42L415.22,285l8.78-.91-11.83-2.66A166,166,0,0,0,401.59,264Z" style="opacity:0.1"></path><path d="M412.21,268c20.33,10.4,24.73,25.69,22.57,42.86C434,296.17,433.36,281.34,412.21,268Z" style="fill:#fff"></path><path d="M473.87,272.47c-33,.54-39.43,20.48-37.1,36.83.81,3.41,5.48,6.55,15.45-9.79l-8.17-1.43,10.6-1.81,4.58-6.37-7.82-1.8,11-1.08A150.56,150.56,0,0,1,473.87,272.47Z" style="fill:#407BFF"></path><path d="M463.85,274.86c-19.49,7.1-25.16,20.39-25.14,36.11C441,297.85,443.29,284.56,463.85,274.86Z" style="fill:#fff"></path><path d="M473.87,272.47c-33,.54-39.43,20.48-37.1,36.83.81,3.41,5.48,6.55,15.45-9.79l-8.17-1.43,10.6-1.81,4.58-6.37-7.82-1.8,11-1.08A150.56,150.56,0,0,1,473.87,272.47Z" style="fill:#fff;opacity:0.2"></path></g><g id="freepik--Brain--inject-27"><path d="M230.48,270.09a29.7,29.7,0,0,0-11.09-34.56c-3.39-2.34-7.27-4-10.32-6.74-2.85-2.6-4.82-6-7.72-8.59-4.43-3.88-10.66-5.23-16.52-4.72s-11.81,3.75-17.12,6.29a24.9,24.9,0,0,0-22-3.5c-4,1.32-7.64,3.66-11.65,5s-8.29,1.7-12.49,2.31-8.47,1.56-12,4-7.79,7.71-7.29,11.92c-8.25-1-16.56,3.56-21.43,10.3s-6.62,15.34-6.44,23.65c-6.66,3.12-11.21,10.1-12.76,17.28a24.34,24.34,0,0,0,5.17,20.62c-3,3.49-3,9.39-1.6,13.82a19.11,19.11,0,0,0,8.65,10.47,30.75,30.75,0,0,0,13.22,3.88c11.63,1,25.08,3.22,36.56,1.17C167.34,334.84,215.42,311.83,230.48,270.09Z" style="fill:#407BFF"></path><path d="M230.48,270.09a29.7,29.7,0,0,0-11.09-34.56c-3.39-2.34-7.27-4-10.32-6.74-2.85-2.6-4.82-6-7.72-8.59-4.43-3.88-10.66-5.23-16.52-4.72s-11.81,3.75-17.12,6.29a24.9,24.9,0,0,0-22-3.5c-4,1.32-7.64,3.66-11.65,5s-8.29,1.7-12.49,2.31-8.47,1.56-12,4-7.79,7.71-7.29,11.92c-8.25-1-16.56,3.56-21.43,10.3s-6.62,15.34-6.44,23.65c-6.66,3.12-11.21,10.1-12.76,17.28a24.34,24.34,0,0,0,5.17,20.62c-3,3.49-3,9.39-1.6,13.82a19.11,19.11,0,0,0,8.65,10.47,30.75,30.75,0,0,0,13.22,3.88c11.63,1,25.08,3.22,36.56,1.17C167.34,334.84,215.42,311.83,230.48,270.09Z" style="opacity:0.2"></path><g style="opacity:0.2"><path d="M105.39,247.52a15.83,15.83,0,0,1,18.3-6.6,10.91,10.91,0,0,0-11.37-3C108.34,239.23,105.74,243.34,105.39,247.52Z"></path><path d="M70.44,320.64a15.74,15.74,0,0,0,1.73-4.14c.25-1.48-.39-3.69-1.74-4.33A7.92,7.92,0,0,1,76,315a15.05,15.05,0,0,0-7.56-7.3,14.79,14.79,0,0,0-5.68-1.2,23.74,23.74,0,0,0,4.06,6.87c-3,3.49-3,9.39-1.6,13.82a17.16,17.16,0,0,0,3.42,6.09A21.08,21.08,0,0,1,70.44,320.64Z"></path><path d="M153.52,231.59c.4-4,7.57-9.55,14.19-9.82-.47-.35-1-.67-1.46-1C158.16,218.9,152.72,223.1,153.52,231.59Z"></path><path d="M83,275.42a11.66,11.66,0,0,0,4.32,8.76c-4-8.63-1.94-20,4.44-27.11a17.3,17.3,0,0,0-9.61,14.35,17.5,17.5,0,0,0-7.67.72c0,1.1-.06,2.19,0,3.28C78.13,274.2,83,275.42,83,275.42Z"></path><path d="M230.83,250.92a30,30,0,0,0-11.44-15.39c-3.39-2.34-7.27-4-10.32-6.74a24.68,24.68,0,0,1-2-2.09h0c-3.85-.62-7.76-1.59-11.65-1.66A27.63,27.63,0,0,0,184,227a16.69,16.69,0,0,0-8.45,7.71,6.1,6.1,0,0,0-6.92,2.61,46.46,46.46,0,0,0-31.55,16.78,16.18,16.18,0,0,1,.07-8.54c-2.72,2.13-3.93,6.08-4.71,9.45s-1.42,6.92-3.58,9.62c-7.76.33-16,3.26-21.58,8.62a32.76,32.76,0,0,0-9.9,20.54c-.23,2.67-.15,5.42-1,8s-2.94,4.92-5.62,5.07a6,6,0,0,1-3-3.55,5.08,5.08,0,0,1,.61-4.22c-1.91.85-2.48,3.27-2.46,5.36s.39,4.28-.5,6.17a13.3,13.3,0,0,1-3.26,3.65,20.3,20.3,0,0,0-6.05,11.37c-.71,4.32-.11,10.67,4.2,14.7h0a36.22,36.22,0,0,0,6.77,1.18c11.63,1,25.08,3.22,36.56,1.17,43.68-7.82,91.76-30.83,106.82-72.57A30,30,0,0,0,230.83,250.92Z"></path><path d="M102.5,253.88a15.47,15.47,0,0,1,2.43,6.65,14.5,14.5,0,0,1,11.26,2.27,7.84,7.84,0,0,0-4-4.15,7.53,7.53,0,0,0-5.67-.22C106.37,256.33,104.46,254.63,102.5,253.88Z"></path><path d="M139.61,240.61a9.8,9.8,0,0,0-4.31-11.15,6.46,6.46,0,0,1,5,1.58,6.07,6.07,0,0,1,2,4.69A7.23,7.23,0,0,1,139.61,240.61Z"></path></g><path d="M229.58,318.55a51.43,51.43,0,0,1-14,23.4,50.9,50.9,0,0,1-11.25,8.19c-3.61,1.93-7.55,4.42-11.75,4.15-2.59-.17-5.24-.77-7.76-.09s-4.75,2.74-7.11,4.2a18.63,18.63,0,0,1-18.7.16c-2.66-1.52-2.75-.84-5.28.71a24.26,24.26,0,0,1-12.63,3.57,24.85,24.85,0,0,1-6.42-.82c-1.08-.28-5-2.56-5.82-2.32-9.52,2.8-20,3.06-29.23-.47s-17.15-11.16-19.87-20.69.36-20.77,8.29-26.72c3.55-2.67,8.16-4.55,9.86-8.65.85-2.07.8-4.38,1-6.61a32.17,32.17,0,0,1,33.92-29.7c3.93-8.38,9.91-16,17.71-21s18.48-7.43,27.74-7.47a8.73,8.73,0,0,1,2.74-5.89,17.7,17.7,0,0,1,5.59-3.52,37.2,37.2,0,0,1,27-.6,36.29,36.29,0,0,1,11.86,7.22c6.14-.1,12.61,3.71,16.58,8.39a21.18,21.18,0,0,1,4.65,17.21C257,268.67,253.51,317.47,229.58,318.55Z" style="fill:#407BFF"></path><path d="M229.58,318.55a51.43,51.43,0,0,1-14,23.4,50.9,50.9,0,0,1-11.25,8.19c-3.61,1.93-7.55,4.42-11.75,4.15-2.59-.17-5.24-.77-7.76-.09s-4.75,2.74-7.11,4.2a18.63,18.63,0,0,1-18.7.16c-2.66-1.52-2.75-.84-5.28.71a24.26,24.26,0,0,1-12.63,3.57,24.85,24.85,0,0,1-6.42-.82c-1.08-.28-5-2.56-5.82-2.32-9.52,2.8-20,3.06-29.23-.47s-17.15-11.16-19.87-20.69.36-20.77,8.29-26.72c3.55-2.67,8.16-4.55,9.86-8.65.85-2.07.8-4.38,1-6.61a32.17,32.17,0,0,1,33.92-29.7c3.93-8.38,9.91-16,17.71-21s18.48-7.43,27.74-7.47a8.73,8.73,0,0,1,2.74-5.89,17.7,17.7,0,0,1,5.59-3.52,37.2,37.2,0,0,1,27-.6,36.29,36.29,0,0,1,11.86,7.22c6.14-.1,12.61,3.71,16.58,8.39a21.18,21.18,0,0,1,4.65,17.21C257,268.67,253.51,317.47,229.58,318.55Z" style="opacity:0.1"></path><g style="opacity:0.2"><path d="M211.75,263.25a11,11,0,0,1-1.17-11c.83-1.81,2.16-3.38,2.86-5.25a8.71,8.71,0,0,0-4.19-10.47,8.41,8.41,0,0,1,6.88,11c-.83,2.67-2.86,4.77-4.22,7.21S209.77,261.27,211.75,263.25Z"></path><path d="M174,309.94a18.32,18.32,0,0,1,14-11.07,20.74,20.74,0,0,0-8.87,2.16,9.24,9.24,0,0,0-3.55-7.14,21,21,0,0,0-8.54-3.44,8.25,8.25,0,0,1-4-1.58,3.88,3.88,0,0,1-1.16-3.44,5,5,0,0,1,2.3-3.43,13.56,13.56,0,0,0-3.47,2.41,4.65,4.65,0,0,0-1.42,3.84,4.54,4.54,0,0,0,1.89,2.84,11.05,11.05,0,0,0,3.15,1.47c2.91,1,5.93,1.62,8.68,3a11.65,11.65,0,0,1,5.84,5.67,21.1,21.1,0,0,0-8.12,7.28,27.85,27.85,0,0,0-9.46-1c-6.47.25-13,1.78-18.42,5.39a23,23,0,0,0-9.76,14.85c-3-2.87-7.44-2.95-11.59-2.13a15,15,0,0,1,14.64,15.34,13.55,13.55,0,0,0-2.59-12.74l0,0a34.58,34.58,0,0,1,36.69-16.81c3.83.75,7.85,2.43,9.62,5.89A12.44,12.44,0,0,0,174,309.94Z"></path><path d="M119.38,306.1a28.57,28.57,0,0,1,21.75-22.56A23.55,23.55,0,0,0,117,306.45a16.22,16.22,0,0,0-4.84,1.83,16.86,16.86,0,0,0-8,16.17,24.69,24.69,0,0,1,27.23-15.39A18.68,18.68,0,0,0,119.38,306.1Z"></path><path d="M239.35,268.74a17.26,17.26,0,0,0-11.63-8.17,18,18,0,0,0-2.46-4.44,21.65,21.65,0,0,1-8.21,25.7,17.78,17.78,0,0,0,11.14-10.91,15.06,15.06,0,0,0,.38-7.31A17.49,17.49,0,0,1,239.35,268.74Z"></path><path d="M222,286c-1.07,1.67-.77,3.84-.36,5.78s.87,4,0,5.84c-.89,2-3,3-5,3.84a6.53,6.53,0,0,0,4.85-.93,5.39,5.39,0,0,0,2.22-3.89c.16-1.78-.58-3.5-1.19-5.18S221.41,287.73,222,286Z"></path><path d="M188.39,255.12c-.27,1.49-4.33,6.38-11.95,7.68a15.51,15.51,0,0,0,14.33-7.05s-4.24,22.12,8.32,28.51c-7.78-9-8.32-28.51-2.48-40.72,0,0-5.84,3.54-6.19,9.56-4.6-1.07-12.39-8.32-12.17-14.67l-1.11,0C176,242.56,177.15,251.42,188.39,255.12Z"></path><path d="M160.58,273.4c-5.33-13.27-17.54-12.67-26.9-8.32-.3.59-.6,1.18-.88,1.78C149.4,263.45,158.08,270.22,160.58,273.4Z"></path><path d="M124,355.27c-3.48-4.13-3.42-10.57-.29-15-4.15,1.22-7.44,5.34-7.27,9.66a48,48,0,0,1-34.08-5.33A31.56,31.56,0,0,0,88,351.85l.81.25a58.3,58.3,0,0,0,28,1.18,12.5,12.5,0,0,0,5,4.38,25.08,25.08,0,0,1,4.22,2.79q1.3-.31,2.61-.69C127.15,358.19,125.36,356.92,124,355.27Z"></path><path d="M164.78,349.63a20.53,20.53,0,0,1,7.08-7.21c1.81-1.18,3.74-2.18,5.47-3.48a13.69,13.69,0,0,0,4.06-5.89,22.31,22.31,0,0,0,23.12-24.73,26.53,26.53,0,0,1-8.39,16c-4.55,4.13-11.26,6.2-17.39,6.42a13.55,13.55,0,0,1-12.06,9.1c-4.21.16-8.31-1.45-12.52-1.4,3.61,1.44,8.23,3.73,8.66,7.6.4,3.59-2.79,8.76-9.08,13.26,2.53-1.55,2.62-2.23,5.28-.71a18.45,18.45,0,0,0,5.6,2.07,8.37,8.37,0,0,1-.6-1.15A11.61,11.61,0,0,1,164.78,349.63Z"></path><path d="M231.76,314.54a21.15,21.15,0,0,0,10.66-11.94,22.09,22.09,0,0,0-1-16.33,10.87,10.87,0,0,0-1.71-8.41A16.36,16.36,0,0,1,235,292.09a10,10,0,0,0,4.68-4.49c.83,5.29.87,11.2-1.06,16.21s-5.9,9.38-11,11c.59.06,1.82,0,2.41.05a8.3,8.3,0,0,1-.44,3.73,17.82,17.82,0,0,0,2.09-.22A10.28,10.28,0,0,0,231.76,314.54Z"></path></g></g><g id="freepik--Lightnings--inject-27"><polygon points="167.07 131.92 139.62 193.12 161.44 187.33 145.69 242.34 179.99 167.98 159.01 172.83 167.07 131.92" style="fill:#407BFF"></polygon><polygon points="167.07 131.92 139.62 193.12 161.44 187.33 145.69 242.34 179.99 167.98 159.01 172.83 167.07 131.92" style="fill:#fff;opacity:0.5"></polygon><polygon points="198.04 183.13 175.43 205.22 185.99 206.45 169.59 227.85 197.47 201.17 187.43 199.67 198.04 183.13" style="fill:#407BFF"></polygon><polygon points="198.04 183.13 175.43 205.22 185.99 206.45 169.59 227.85 197.47 201.17 187.43 199.67 198.04 183.13" style="fill:#fff;opacity:0.5"></polygon><polygon points="124.29 187.61 122.11 219.14 130.82 213.03 132.81 239.91 135.87 201.45 127.38 207.01 124.29 187.61" style="fill:#407BFF"></polygon><polygon points="124.29 187.61 122.11 219.14 130.82 213.03 132.81 239.91 135.87 201.45 127.38 207.01 124.29 187.61" style="fill:#fff;opacity:0.5"></polygon></g><g id="freepik--Character--inject-27"><path d="M314.89,175.39c-13.11,1.48-15,8.23-16.36,18.46s-4.73,29.07-4.73,29.07l-24.41,22.55L262,247.59a11,11,0,0,0-3,1.32c-1.4.9-2.8,1.86-4.19,2.69a2.33,2.33,0,0,0-1.07,1,1.41,1.41,0,0,0,.46,1.55,2.3,2.3,0,0,0,1.63.47,6.59,6.59,0,0,0,1.69-.39l2.56-.81a3.48,3.48,0,0,1,1.09-.23,1.2,1.2,0,0,1,1,.46c.47.7-8.71,11.53-13.05,13.47-1.17.52-.31,4.22,4.42,1.74a3.33,3.33,0,0,0,2.78,1.07l4,0a14.34,14.34,0,0,0,3.87-.32,11.8,11.8,0,0,0,4.86-3.07c3.54-3.36,5.59-7.77,6.87-12.37l26.78-19.4,3.37-3a12.69,12.69,0,0,0,3.91-6.5c1.74-7.27,5.34-22.73,5.8-28.38C316.35,189.46,314.89,175.39,314.89,175.39Z" style="fill:#ffa8a7"></path><path d="M275.34,240l-2,1.82h0c3.83,2.68,4.84,7,4.22,11.18l5.17-3.73a19.22,19.22,0,0,0-1.95-4.68A10.65,10.65,0,0,0,275.34,240Z" style="opacity:0.2"></path><path d="M271.07,251.33a6.67,6.67,0,0,1-8.41,2.33,5.13,5.13,0,0,0,5,1.46A5,5,0,0,0,271.07,251.33Z" style="opacity:0.2"></path><path d="M314.89,175.39c-18.89,1.9-17,11.59-18.65,21.56s-3.61,25.31-3.61,25.31-16.41,15.13-18.94,17.21-1.72,3.62-1.72,3.62l1.39-1.29c5.2,1.24,6.79,7.9,6.31,9.67l-1.74,1.27c2.17,1,2.94-.13,5.87-2.12,2.38-1.6,15-11,22.37-16.17a19.74,19.74,0,0,0,6.79-8.36C321.07,207.55,323,186,314.89,175.39Z" style="fill:#407BFF"></path><path d="M314.89,175.39c-18.89,1.9-17,11.59-18.65,21.56s-3.61,25.31-3.61,25.31-16.41,15.13-18.94,17.21-1.72,3.62-1.72,3.62l1.39-1.29c5.2,1.24,6.79,7.9,6.31,9.67l-1.74,1.27c2.17,1,2.94-.13,5.87-2.12,2.38-1.6,15-11,22.37-16.17a19.74,19.74,0,0,0,6.79-8.36C321.07,207.55,323,186,314.89,175.39Z" style="opacity:0.2"></path><path d="M307.68,187.93c-5.39,13.47,2.86,28.09.24,45.12a19.93,19.93,0,0,0,5-7c6.19-14.16,8.78-30.06,6.05-41.52Z" style="opacity:0.2"></path><path d="M288.48,410.59a13,13,0,0,0,9.73,3.58,29.29,29.29,0,0,0,10.3-2.6c3.29-1.35,7.42-5.14,11-5.07a86,86,0,0,0,10.4-.71,54.14,54.14,0,0,0-1.48-14.1l-16.61-.43c-4.48,6.14-13.2,11.25-19.8,13.17a5.8,5.8,0,0,0-4.1,4.36.41.41,0,0,0,0,.11A7,7,0,0,0,288.48,410.59Z" style="fill:#37474f"></path><path d="M319.49,406.5c-3.56-.07-7.69,3.72-11,5.07a29.29,29.29,0,0,1-10.3,2.6,13,13,0,0,1-9.73-3.58,7,7,0,0,1-.57-1.69.41.41,0,0,1,0-.11,5.2,5.2,0,0,0,0,2.22,7,7,0,0,0,.57,1.69,13,13,0,0,0,9.73,3.58,29.51,29.51,0,0,0,10.3-2.6c3.29-1.35,7.42-5.14,11-5.07a77.57,77.57,0,0,0,10.24-.59c.08-.74.13-1.49.16-2.23A86,86,0,0,1,319.49,406.5Z" style="fill:#263238"></path><path d="M393.77,398a26,26,0,0,1,.61,5.4,12.55,12.55,0,0,1-3.18,8.75c-1.92,1.95-4.6,2.95-7.24,3.69a17.39,17.39,0,0,1-7.18.78A8.13,8.13,0,0,1,372,414.1l0,.09a7.53,7.53,0,0,0,5.79,3.91,17.39,17.39,0,0,0,7.18-.78c2.64-.74,5.32-1.74,7.24-3.69a12.52,12.52,0,0,0,3.18-8.74,25.84,25.84,0,0,0-.61-5.4,9.13,9.13,0,0,1,1.45-7.07,17,17,0,0,0,1-1.54,3.22,3.22,0,0,0,.27-2.47c-.1-.32-.2-.64-.31-.94-.48.88-1.61,3-1.91,3.42A9.15,9.15,0,0,0,393.77,398Z" style="fill:#263238"></path><path d="M376.49,382.41a19.72,19.72,0,0,1,.94,11A41.81,41.81,0,0,1,373.76,404a27.69,27.69,0,0,0-2,5,7.92,7.92,0,0,0,.23,5.18,8.13,8.13,0,0,0,4.83,2.48,17.39,17.39,0,0,0,7.18-.78c2.64-.74,5.32-1.74,7.24-3.69a12.55,12.55,0,0,0,3.18-8.75,26,26,0,0,0-.61-5.4,9.15,9.15,0,0,1,1.45-7.07c.3-.43,1.43-2.54,1.91-3.42a19.94,19.94,0,0,0-4.21-6.92Z" style="fill:#37474f"></path><path d="M311.11,248.38s-4.2,60.74-3.84,76.09,1.91,68,1.91,68c8.86,7.56,25.12,1.42,25.12,1.42,1-48.43,3.43-51.05.32-68.77,2.2-13.16,4.28-36,4.28-36,2.93,25.22,4.72,37.57,5.55,42.86a21.59,21.59,0,0,0,2,6.22l25.15,51c13,8.34,24.51-10.58,24.51-10.58-14.57-40.05-17.94-42.89-24.08-50.07-.24-42.76-3.35-79.33-3.35-79.33Z" style="fill:#455a64"></path><path d="M326.83,277.25c1.81,4.58,8.91,6.87,8.91,6.87s-.12,18.56-.84,39.26c2.09-13.33,4-34.34,4-34.34l-.63-7.21A26.84,26.84,0,0,1,326.83,277.25Z" style="opacity:0.2"></path><path d="M370.13,260.15c-20.42,4.65-37.94,5.18-60.47-3-5.94-2.16,1.39-20.81,1.87-32.13s-3.15-26.24-3.74-32.09.2-16,7.1-17.54c12.81-2.71,36.88,0,36.88,0l14.37,15.88C372.19,222.3,380.74,257.74,370.13,260.15Z" style="fill:#407BFF"></path><path d="M308.11,154.9A13.08,13.08,0,0,1,305,144.46a12.42,12.42,0,0,1,7.25-9.65c-.69-.35-1.35-.93-2-1.28a3.87,3.87,0,0,1,3.49-.18,8,8,0,0,1-1.1-3.21,5,5,0,0,1,3,2.32,7.31,7.31,0,0,1,2.62-6.77,7.14,7.14,0,0,1,7.11-.88c1.93.85,3.4,2.53,5.33,3.36a13.17,13.17,0,0,0,6.28.57,16,16,0,0,1,6.32.32c2,.68,3.82,2.5,3.72,4.62a10.33,10.33,0,0,1,5.39,8.89c0,3.54-1.38,6.93-3,10.08-1.85,3.55-4.23,7.1-7.87,8.77-2.8,1.29-6,1.31-9.06,1.25a58.21,58.21,0,0,1-12.78-1.26A23.18,23.18,0,0,1,308.11,154.9Z" style="fill:#e0e0e0"></path><path d="M321.15,170.15c.32,2.4,1,7.78,1.35,10.17,6,5.75,17.81-.92,19.21-4.42-1.12-2.1-2.78-9.49-3.3-11.81C333.17,166.47,326.8,169.05,321.15,170.15Z" style="fill:#ffa8a7"></path><path d="M321.15,170.15c.32,2.4.78,5.91,1.1,8.3,14.42-3.84,17.62-7,16.64-12.57h0c-.18-.59-.34-1.18-.48-1.78C333.17,166.46,326.8,169.05,321.15,170.15Z" style="opacity:0.2"></path><path d="M339.92,164.67a7,7,0,0,1-2.87,5.82,20.76,20.76,0,0,1-6,3,43,43,0,0,1-8.78,2.55,14.47,14.47,0,0,1-8.92-1.31c-3.36-1.86-5.5-5.43-6.49-9.14s-.95-7.6-.92-11.44a41,41,0,0,1,.58-7.76c.53-2.55,1.51-7.11,9.51-11.11.2,1.75,2.5,2.76,4.25,3a10.47,10.47,0,0,0,5.13-1.07,15.8,15.8,0,0,1,5.05-1.51c3.26-.18,6.3,2,8.06,4.73s-3.63,10.26-3.05,13.48a5.35,5.35,0,0,0,.78,2.26,1.78,1.78,0,0,0,2.12.68c.58-.3.84-1,1.18-1.52a5,5,0,0,1,7.19-1,6,6,0,0,1,1,7.48C346.26,164.14,342.64,165.05,339.92,164.67Z" style="fill:#ffa8a7"></path><polygon points="318.5 154.52 312.21 161.48 317.6 163.66 318.5 154.52" style="fill:#f28f8f"></polygon><path d="M317,170.44l6.08-1.57a3.69,3.69,0,0,0-4-2C317.61,167.17,316.86,168.92,317,170.44Z" style="fill:#f28f8f"></path><path d="M317,170.44l6.08-1.57a3.69,3.69,0,0,0-4-2C317.61,167.17,316.86,168.92,317,170.44Z" style="opacity:0.30000000000000004"></path><path d="M326.55,156.47a1.64,1.64,0,1,1-1.47-1.8A1.64,1.64,0,0,1,326.55,156.47Z" style="fill:#263238"></path><path d="M312.89,154.58a1.64,1.64,0,1,1-1.47-1.79A1.64,1.64,0,0,1,312.89,154.58Z" style="fill:#263238"></path><path d="M308.57,147.67l4.35-.8a2.33,2.33,0,0,1-1.7,2.06A2.78,2.78,0,0,1,308.57,147.67Z" style="fill:#e0e0e0"></path><path d="M329.2,150.5l-3.82-2.23a2.33,2.33,0,0,0,.91,2.51A2.76,2.76,0,0,0,329.2,150.5Z" style="fill:#e0e0e0"></path><path d="M321.73,167.38a3.27,3.27,0,0,0-1.5.38A3.32,3.32,0,0,0,318.6,170l4.45-1.15A3.21,3.21,0,0,0,321.73,167.38Z" style="fill:#f28f8f"></path><path d="M318.27,152.79c-.66,0-1.48-.14-2.14-.15a16,16,0,0,0-12.62-3.45l-.3,1.79,1,.56.37,4.73a4,4,0,0,0,2.5,3.44l1.3.53a5,5,0,0,0,6-1.8,10.15,10.15,0,0,0,1.55-3.37.74.74,0,0,1,.78-.6l.77.07a.74.74,0,0,1,.65.67,15.17,15.17,0,0,0,1.41,4.93,5,5,0,0,0,4,2.86l1.37.12a5,5,0,0,0,5.1-3.22,15.77,15.77,0,0,0,1.06-5.24h1l.21-1.33C329,151.55,321.21,151,318.27,152.79Zm-3.64,2a8.89,8.89,0,0,1-1.36,2.92,3.65,3.65,0,0,1-3,1.59,3.76,3.76,0,0,1-1.4-.28l-1.3-.53a2.69,2.69,0,0,1-1.68-2.31s-.46-5.64-.5-5.85l.6,0a13.73,13.73,0,0,1,9,3.07A8.75,8.75,0,0,1,314.63,154.78Zm14.17,4.66a3.66,3.66,0,0,1-3.41,2.38h-.33l-1.37-.13a3.65,3.65,0,0,1-3-2.1,13.67,13.67,0,0,1-1.29-4.49c0-.44-.13-.77-.16-1.34a11.87,11.87,0,0,1,4.65-.74,22.44,22.44,0,0,1,5.83.75v.92A14.56,14.56,0,0,1,328.8,159.44Z" style="fill:#37474f"></path><path d="M332.34,153.33l7.68,1.34a9.39,9.39,0,0,0-.74,1.05l-7.15-1.06Z" style="fill:#37474f"></path><path d="M361.62,186.27l-13,7.9c3.59,15.16,11.31,31.71,11.31,31.71s-6.06,16.55-10.11,23-1.2,9.61-1.2,9.61a14.6,14.6,0,0,0-.78,4.94,126.09,126.09,0,0,0,22.32-3.26c10.61-2.41,2.06-37.85-4-68.88Z" style="opacity:0.1"></path><path d="M359.83,262.8,379,234.64A14.44,14.44,0,0,0,380.82,222c-3.24-9.73-8.92-27-10.07-31.32a20.18,20.18,0,0,0-19-15.24c-15.13-1.2,14,51.34,14,51.34l-15,31.34a20,20,0,0,0-1.94,8l-.35,11.2a3.59,3.59,0,0,0,.37,1.74,16.48,16.48,0,0,0,8.83,8.15,1.84,1.84,0,0,0,2.08-.59h0a1.84,1.84,0,0,0-.71-2.82,11.82,11.82,0,0,1-5.12-4.32l5.17,1.78a2.94,2.94,0,0,0,2.73-.44l4.47-3.41a2.71,2.71,0,0,0,1-1.51l.49-2.11a2,2,0,0,0-2.22-2.42l-2.05.3C363.74,265,359.83,262.8,359.83,262.8Z" style="fill:#ffa8a7"></path><path d="M363.56,271.63v3.94l.57-.76a2.2,2.2,0,0,0-.34-3Z" style="opacity:0.2"></path><path d="M360,250.73a11.85,11.85,0,0,0-6,.55l-2.41,5h0c5.24-.79,8.76,1.43,9.81,4.07l4.55-6.68A11.84,11.84,0,0,0,360,250.73Z" style="opacity:0.2"></path><path d="M351.77,175.39c-12.56,0-2,21.78,0,26.11s9.62,20.76,11.79,24.35c0,0-9.58,22.74-11.9,26.48s-.83,5.74-.83,5.74l1.2-2.51c6.29-1.73,9.41.61,10.5,3.28L361.08,261c3.85.29,3.93-2.62,7-7l12.36-17.44a16.9,16.9,0,0,0,2.39-14.7c-3-9.82-7.91-25.94-9.72-31.57C370.43,182,364.92,175.39,351.77,175.39Z" style="fill:#407BFF"></path><path d="M351.77,175.39c-12.56,0-2,21.78,0,26.11s9.62,20.76,11.79,24.35c0,0-9.58,22.74-11.9,26.48s-.83,5.74-.83,5.74l1.2-2.51c6.29-1.73,9.41.61,10.5,3.28L361.08,261c3.85.29,3.93-2.62,7-7l12.36-17.44a16.9,16.9,0,0,0,2.39-14.7c-3-9.82-7.91-25.94-9.72-31.57C370.43,182,364.92,175.39,351.77,175.39Z" style="opacity:0.2"></path><path d="M363.56,225.85c3.93-2.2,9.1-.34,10,1.32-4.27-9.1-9.4-4.37-10.56-2.32Z" style="opacity:0.2"></path><path d="M247.65,257.23a1.32,1.32,0,0,1-.13-1.34,2.92,2.92,0,0,1,.88-1.16c.4-.33.86-.62,1.31-1a2.72,2.72,0,0,0,.94-1.69c.08-.67,0-1.28,0-1.78a1,1,0,0,1,.71-.91c.45-.16,1.08-.17,1.76-.36a2.87,2.87,0,0,0,1-.52,3.05,3.05,0,0,0,.69-.9c.64-1.3.63-2.58,1.12-3.5a1.67,1.67,0,0,1,1-.86,4.4,4.4,0,0,1,1.59,0,9.38,9.38,0,0,0,1.77.09,5.79,5.79,0,0,0,1.69-.38,5.68,5.68,0,0,0,2.46-1.83h0a6.16,6.16,0,0,1-5.8,1.28,5.12,5.12,0,0,0-1.93-.07,2.66,2.66,0,0,0-1.74,1.29c-.69,1.24-.71,2.57-1.2,3.49a1.57,1.57,0,0,1-1,.89c-.5.16-1.13.17-1.83.43a2.05,2.05,0,0,0-.95.72,2.19,2.19,0,0,0-.35,1.11c0,.7.12,1.27.1,1.77,0,1-1,1.65-1.75,2.44a3.1,3.1,0,0,0-.79,1.45A1.37,1.37,0,0,0,247.65,257.23Z" style="fill:#407BFF"></path><path d="M267.72,271.78a5.66,5.66,0,0,0,5.84-.49,6.16,6.16,0,0,0,1.27-1.23,6,6,0,0,0,.83-1.6,7.7,7.7,0,0,1,1.29-2.87c.62-.67,1.72-.58,2.93-.73a3.22,3.22,0,0,0,1.76-.76,3.65,3.65,0,0,0,1-1.54c.4-1.08.47-2.12.87-3a2.45,2.45,0,0,1,1.95-1.67h0a2.54,2.54,0,0,0-2.35,1.45,23.78,23.78,0,0,0-1.19,2.89,3.14,3.14,0,0,1-.83,1.16,2.52,2.52,0,0,1-1.31.47c-.51.05-1.08,0-1.71.12a3,3,0,0,0-1.82.83,7.68,7.68,0,0,0-1.49,3.3,5,5,0,0,1-1.64,2.52A5.84,5.84,0,0,1,267.72,271.78Z" style="fill:#407BFF"></path><path d="M257.13,273.28a3.44,3.44,0,0,0,2,1.83,3.64,3.64,0,0,0,3.11-.22,8.61,8.61,0,0,1,1.33-.66,2.28,2.28,0,0,1,1.32,0c.92.25,1.88.91,3.05,1.18a7.41,7.41,0,0,0,6.44-1.44,7,7,0,0,0,2.53-5.07h0a7.65,7.65,0,0,1-3,4.47,7.1,7.1,0,0,1-5.74,1.07c-1-.21-1.89-.82-3.06-1.12a3.13,3.13,0,0,0-1.84.09,7.71,7.71,0,0,0-1.41.82A3.51,3.51,0,0,1,257.13,273.28Z" style="fill:#407BFF"></path><path d="M286.67,221.87a3.11,3.11,0,0,0,1.95-2.78,8.46,8.46,0,0,0-.87-3.84,7.92,7.92,0,0,1-.86-3.64c.08-1.17,1-2.14,1.91-3.19a9.53,9.53,0,0,0,1.34-1.78,5.47,5.47,0,0,0,.63-2.24,14.66,14.66,0,0,0-.59-4.16,9.11,9.11,0,0,1-.3-3.63,3.51,3.51,0,0,1,1.69-2.72h0a3.57,3.57,0,0,0-2.24,2.6,9,9,0,0,0-.1,3.93,16.2,16.2,0,0,1,.35,3.88,5.43,5.43,0,0,1-1.74,3.27,14.28,14.28,0,0,0-1.38,1.71,4.59,4.59,0,0,0-.77,2.24,8.33,8.33,0,0,0,1.18,4.12,8.86,8.86,0,0,1,1.19,3.43A3,3,0,0,1,286.67,221.87Z" style="fill:#407BFF"></path><path d="M308.39,173.73a2,2,0,0,0-1.82-.84,4.46,4.46,0,0,0-2.15.85,8.14,8.14,0,0,1-2,1.08,3.87,3.87,0,0,1-2.23-.22,2.71,2.71,0,0,0-1.41.09,2.88,2.88,0,0,0-1.14.77,4.94,4.94,0,0,0-1.18,2.23c-.36,1.55-.36,3-.93,4.14h0c.79-1,1-2.56,1.47-4a4.64,4.64,0,0,1,1.14-1.89,2,2,0,0,1,1.9-.62c.37.07.76.21,1.22.28a2.88,2.88,0,0,0,1.37-.12,7.61,7.61,0,0,0,2.11-1.3,4.6,4.6,0,0,1,1.87-1A1.91,1.91,0,0,1,308.39,173.73Z" style="fill:#407BFF"></path><path d="M294.75,175.6a7.51,7.51,0,0,1,.82-2.22,2.21,2.21,0,0,1,2.16-1.06c.88.05,1.76.45,2.67.54a2.22,2.22,0,0,0,2.22-.86,2.3,2.3,0,0,1-2.17.55,22.07,22.07,0,0,0-2.69-.66,2.61,2.61,0,0,0-1.47.28,2.66,2.66,0,0,0-1,1A5.54,5.54,0,0,0,294.75,175.6Z" style="fill:#407BFF"></path><path d="M381.91,242.37a20.81,20.81,0,0,0,3.54-1.53,8.14,8.14,0,0,0,3.2-3,5.58,5.58,0,0,0,.69-2.35,10.08,10.08,0,0,0-.17-2.41,10.75,10.75,0,0,1-.28-4.31c.3-1.31,1.33-2.58,1.73-4.29a4.38,4.38,0,0,0-.2-2.61,7.36,7.36,0,0,0-1.3-2,38.54,38.54,0,0,1-2.84-3.08,4,4,0,0,1-.87-3.46h0a4,4,0,0,0,.34,3.79,26.58,26.58,0,0,0,2.54,3.42,4.21,4.21,0,0,1,1,3.66c-.32,1.29-1.37,2.53-1.82,4.26a11.07,11.07,0,0,0,.35,4.89,6.15,6.15,0,0,1-.16,4,8.14,8.14,0,0,1-2.59,3A31.63,31.63,0,0,1,381.91,242.37Z" style="fill:#407BFF"></path><path d="M382.21,251c-.61-1.7.29-3.77,1.89-5s3.81-2.1,5.7-3.64a6.63,6.63,0,0,0,2.15-3,8.07,8.07,0,0,0,.37-3.48,17,17,0,0,0-2-5.7h0a24.48,24.48,0,0,1,1.18,5.75A7.88,7.88,0,0,1,391,239a6.14,6.14,0,0,1-1.9,2.49c-1.68,1.4-3.91,2.27-5.55,3.87a5.83,5.83,0,0,0-1.69,2.79A3.74,3.74,0,0,0,382.21,251Z" style="fill:#407BFF"></path><path d="M366.61,284.62a5.94,5.94,0,0,0,3.17-1.13,6,6,0,0,0,2.24-3.13,6.43,6.43,0,0,0-.14-4.19c-.55-1.34-1.4-2.43-1.1-3.4a8.3,8.3,0,0,1,.82-1.69,3.41,3.41,0,0,0,.43-2.31,6,6,0,0,0-2.57-3.33,5.56,5.56,0,0,1-2.24-2.55,2,2,0,0,1,1.17-2.56h0a1.68,1.68,0,0,0-1.35.87,2.85,2.85,0,0,0-.36,1.79,5.77,5.77,0,0,0,2.18,3.16,5.44,5.44,0,0,1,2,2.82,2.31,2.31,0,0,1-.37,1.54,8.33,8.33,0,0,0-.94,2,3.5,3.5,0,0,0,.32,2.37c.31.66.67,1.22.9,1.77a5.72,5.72,0,0,1,.32,3.51A6.07,6.07,0,0,1,366.61,284.62Z" style="fill:#407BFF"></path><path d="M343.55,277.84a5.18,5.18,0,0,1-1.5-3.53,4.64,4.64,0,0,1,.36-2,9,9,0,0,1,1.19-1.82,4.12,4.12,0,0,0,1-2.52,4.57,4.57,0,0,0-1.08-2.56,10,10,0,0,1-1.28-1.88,1.44,1.44,0,0,1,.22-1.58,19.27,19.27,0,0,1,1.69-1.65,4.36,4.36,0,0,0,.87-1.19,2.94,2.94,0,0,0,.26-1.57,5.73,5.73,0,0,0-1.1-2.48,7.63,7.63,0,0,1-1.05-1.92,4.74,4.74,0,0,1,.47-3.93,5.2,5.2,0,0,1,3.12-2.24h0a5.07,5.07,0,0,0-3.65,1.85,5.36,5.36,0,0,0-1,4.62c.41,1.74,1.78,3,1.84,4.23a2,2,0,0,1-.77,1.58,16.74,16.74,0,0,0-1.85,1.79,3.09,3.09,0,0,0-.63,1.48,3,3,0,0,0,.25,1.6,10.62,10.62,0,0,0,1.52,2.15,3.46,3.46,0,0,1,.92,1.76,3.2,3.2,0,0,1-.64,1.83,9.2,9.2,0,0,0-1.11,2.14,5.26,5.26,0,0,0,2,5.82Z" style="fill:#407BFF"></path><path d="M350.83,243.48a3,3,0,0,1,0-2.45,7.77,7.77,0,0,1,1.54-2.31,11.31,11.31,0,0,0,1.88-2.56,5.66,5.66,0,0,0,.31-3.36,8.09,8.09,0,0,1-.13-3,3.51,3.51,0,0,1,1.73-2,9.33,9.33,0,0,0,2.34-1.79,2.44,2.44,0,0,0,.6-2.5h0a2.38,2.38,0,0,1-.91,2.21,10.63,10.63,0,0,1-2.4,1.46,5.94,5.94,0,0,0-1.32.92,3.36,3.36,0,0,0-.92,1.5,7.91,7.91,0,0,0,.05,3.33,4.87,4.87,0,0,1-.19,2.85,12.21,12.21,0,0,1-1.61,2.48,7.4,7.4,0,0,0-1.38,2.63A3,3,0,0,0,350.83,243.48Z" style="fill:#407BFF"></path><path d="M353.84,215.79a1.34,1.34,0,0,1-.88-1,4.1,4.1,0,0,1-.11-1.46,3.51,3.51,0,0,0-.26-1.73,2.62,2.62,0,0,0-1.49-1.18c-1.13-.4-2.37-.57-2.65-1.39a2.32,2.32,0,0,1,0-1.43c.13-.52.38-1.07.57-1.7a3.47,3.47,0,0,0,.06-2.1,3.72,3.72,0,0,0-1.23-1.66c-.95-.8-2-1.38-2.22-2.28s.35-1.9.77-2.87a4.09,4.09,0,0,0,.37-1.55,1.8,1.8,0,0,0-.51-1.36h0a2.54,2.54,0,0,1-.29,2.69c-.26.44-.58.89-.83,1.42a2.92,2.92,0,0,0-.32,1.85,3.2,3.2,0,0,0,1,1.69c.45.45.93.81,1.34,1.19a2.2,2.2,0,0,1,.78,2.67c-.28,1-1.06,2.36-.47,3.86a2.61,2.61,0,0,0,1.65,1.33c.61.2,1.19.28,1.69.43A1.93,1.93,0,0,1,352,212a3.1,3.1,0,0,1,.37,1.41,4.12,4.12,0,0,0,.35,1.54A1.42,1.42,0,0,0,353.84,215.79Z" style="fill:#407BFF"></path><path d="M349.75,238.19a2.3,2.3,0,0,1,.42-1.58,11.06,11.06,0,0,1,1.22-1.43,3.84,3.84,0,0,0,1-1.88,4.11,4.11,0,0,0-.43-2.19,6.76,6.76,0,0,1-.63-1.87,2.05,2.05,0,0,1,.63-1.62,12.54,12.54,0,0,1,1.43-1.21c.47-.38.92-.74,1.33-1.09-.47.26-1,.55-1.49.86a10.25,10.25,0,0,0-1.61,1.1,2.51,2.51,0,0,0-.89,2,6.23,6.23,0,0,0,.64,2.09,3.9,3.9,0,0,1,.43,1.85,3.56,3.56,0,0,1-.82,1.66,8.38,8.38,0,0,0-1.09,1.6A2.24,2.24,0,0,0,349.75,238.19Z" style="fill:#407BFF"></path><path d="M376.26,193.44a3.4,3.4,0,0,0,.8-2.6,3.6,3.6,0,0,0-.47-1.49,3.94,3.94,0,0,0-1.13-1.2,5.8,5.8,0,0,1-1.08-1,1.39,1.39,0,0,1-.23-1.16c.18-.92.94-1.78,1.21-3.06a2.3,2.3,0,0,0,0-1,2,2,0,0,0-.57-.92,3.6,3.6,0,0,0-1.71-.76c-1.1-.23-2-.39-2.46-1.22s-.7-1.91-1.49-2.64-2.26-.53-2.38.41h0a1,1,0,0,1,1-.63,1.29,1.29,0,0,1,1.08.52c.57.68.65,1.68,1.15,2.71a2.68,2.68,0,0,0,1.29,1.26,9.3,9.3,0,0,0,1.61.51,2.79,2.79,0,0,1,1.25.56,1.11,1.11,0,0,1,.29,1.06c-.16.9-.91,1.83-1.15,3.06a2.31,2.31,0,0,0,.48,1.88,5.58,5.58,0,0,0,1.32,1A3.43,3.43,0,0,1,376.26,193.44Z" style="fill:#407BFF"></path><path d="M379.35,202.05a2.87,2.87,0,0,0,.21-2.21,9.66,9.66,0,0,0-1-2.28,3.9,3.9,0,0,1,0-4.63,5.65,5.65,0,0,0,.82-2.73,3.75,3.75,0,0,0-1.34-2.45,6.34,6.34,0,0,1-1.5-1.8,1.7,1.7,0,0,1,.31-1.95h0a1.81,1.81,0,0,0-.65,2.07,5.8,5.8,0,0,0,1.39,2.1,3.3,3.3,0,0,1,1,2.06,5.51,5.51,0,0,1-.79,2.34,5.52,5.52,0,0,0-.78,2.74,5.28,5.28,0,0,0,1,2.56,11.79,11.79,0,0,1,1.2,2.08A2.9,2.9,0,0,1,379.35,202.05Z" style="fill:#407BFF"></path><path d="M346.81,283.4a41.6,41.6,0,0,1-3.72-2.49,8.92,8.92,0,0,1-2.95-3.85,8.09,8.09,0,0,1,.09-4.82c.42-1.57.83-3.07,1.11-4.38h0c-.54,1.23-1.13,2.64-1.68,4.21a7.77,7.77,0,0,0-.27,5.25,8.4,8.4,0,0,0,3.34,4.07A20.16,20.16,0,0,0,346.81,283.4Z" style="fill:#407BFF"></path><path d="M303.1,387.48a2.85,2.85,0,0,1-.94-3.37c.41-1.27,1.39-2.34,2.16-3.78a5.71,5.71,0,0,0,.67-2.49,3.79,3.79,0,0,0-1-2.58c-.59-.67-1.24-1.16-1.69-1.7a2,2,0,0,1-.57-1.64,4.63,4.63,0,0,1,.91-1.84A17.46,17.46,0,0,0,304,368a4.12,4.12,0,0,0,.41-2.72,6.66,6.66,0,0,0-1-2.31c-.88-1.31-1.84-2.39-2.08-3.68a2.38,2.38,0,0,1,1.7-2.89h0a2,2,0,0,0-1.72.88,3.12,3.12,0,0,0-.63,2.09c.1,1.56,1.08,2.9,1.77,4.17a5.86,5.86,0,0,1,.73,2,2.94,2.94,0,0,1-.39,1.87,18.76,18.76,0,0,1-1.32,1.89,5.8,5.8,0,0,0-1.19,2.48,3.32,3.32,0,0,0,.16,1.56,3.91,3.91,0,0,0,.78,1.25c.62.68,1.27,1.15,1.76,1.67a2.48,2.48,0,0,1,.79,1.68,4.75,4.75,0,0,1-.4,2,20.9,20.9,0,0,0-1.78,4.09,3.89,3.89,0,0,0,.2,2.15A2.36,2.36,0,0,0,303.1,387.48Z" style="fill:#407BFF"></path><path d="M304.43,342.5a3.11,3.11,0,0,0-1.95,1.79,6.09,6.09,0,0,0-.41,3c.07,1,.28,2.06.31,3.07a4.53,4.53,0,0,1-.64,2.77c-.52.78-1.46,1.37-2.18,2.29a4.65,4.65,0,0,0-.9,3.22,10.11,10.11,0,0,0,2.34,5.12h0c-.68-1.48-1.63-3.22-1.61-5.14a4.08,4.08,0,0,1,.89-2.62,31.43,31.43,0,0,0,2.27-2.31,5.25,5.25,0,0,0,.75-3.38c-.08-1.12-.35-2.13-.5-3.11a5.94,5.94,0,0,1,.09-2.76A3.09,3.09,0,0,1,304.43,342.5Z" style="fill:#407BFF"></path><path d="M284.94,411.5a5.1,5.1,0,0,1-1-3,4.73,4.73,0,0,1,1.14-3.11,8,8,0,0,1,3.12-1.89,4.94,4.94,0,0,0,1.77-1.39,2.87,2.87,0,0,0,.53-1.13,5.09,5.09,0,0,0,.1-1.13,3.49,3.49,0,0,1,.2-1.65c.2-.34.61-.47,1.21-.45s1.25.16,2,.14a5.66,5.66,0,0,0,2.05-.44,5.38,5.38,0,0,0,2.81-2.59,5.28,5.28,0,0,0,.48-3.3,5.31,5.31,0,0,1-3.62,5,5,5,0,0,1-1.72.25c-.56,0-1.19-.19-1.93-.24a3,3,0,0,0-1.2.12,2,2,0,0,0-1.09.84,4.06,4.06,0,0,0-.4,2.28,2.39,2.39,0,0,1-.38,1.56,3.88,3.88,0,0,1-1.33,1.07c-.55.3-1.16.57-1.76.93a5.42,5.42,0,0,0-1.55,1.42,5.14,5.14,0,0,0-1,3.72A4.92,4.92,0,0,0,284.94,411.5Z" style="fill:#407BFF"></path><path d="M290.46,395.74a1.8,1.8,0,0,0-2.34.87,24.44,24.44,0,0,0-1,2.83,2.27,2.27,0,0,1-.85,1.05A6.33,6.33,0,0,1,285,401a3.21,3.21,0,0,0-1.25.67,1.41,1.41,0,0,0-.52,1.14h0c.1-.82,1-1.29,1.87-1.48a5.84,5.84,0,0,0,1.44-.49,2.66,2.66,0,0,0,1.05-1.25c.43-1,.45-2,.87-2.84A1.72,1.72,0,0,1,290.46,395.74Z" style="fill:#407BFF"></path><path d="M335.17,402.6a3.05,3.05,0,0,0,1.28-1.68,6.41,6.41,0,0,0,.27-2.28c-.08-1.59-.54-3.16-.28-4.61a3,3,0,0,1,1-1.8c.55-.53,1.27-1,1.95-1.75a3.47,3.47,0,0,0,.8-1.44,3,3,0,0,0-.11-1.73,15,15,0,0,0-1.38-2.38,1.44,1.44,0,0,1-.14-1.63,8.39,8.39,0,0,1,1.8-1.48,5.08,5.08,0,0,0,1.08-1.05,3.26,3.26,0,0,0,.58-1.52,4.58,4.58,0,0,0-.72-2.78c-1-1.57-2.3-2.46-3-3.71s-.77-2.89.38-3.7h0a2.26,2.26,0,0,0-1.25,1.67,3.88,3.88,0,0,0,.24,2.34c.63,1.51,1.94,2.66,2.59,4a3.41,3.41,0,0,1,.4,2,2.28,2.28,0,0,1-1.17,1.53,8.33,8.33,0,0,0-2.22,1.81,2.72,2.72,0,0,0-.48,1.74,3.56,3.56,0,0,0,.53,1.57,19.84,19.84,0,0,1,1.29,2.13,1.55,1.55,0,0,1-.35,1.66c-.46.56-1.16,1.08-1.8,1.76a4.32,4.32,0,0,0-1.21,2.6c-.15,1.87.53,3.41.78,4.84S336.21,401.66,335.17,402.6Z" style="fill:#407BFF"></path><path d="M338,348.39a7.54,7.54,0,0,0,2.12-5.68,8.09,8.09,0,0,0-1-3.4,5.18,5.18,0,0,1-.89-3,29.52,29.52,0,0,1,1.17-3.19,5,5,0,0,0-.52-3.59,25.21,25.21,0,0,1-1.39-2.82,3.52,3.52,0,0,1,0-2.72,3.5,3.5,0,0,0-.41,2.85,18.42,18.42,0,0,0,1.1,3,4.3,4.3,0,0,1,.3,3,20.09,20.09,0,0,0-1.27,3.33,5.85,5.85,0,0,0,1.06,3.59,7.82,7.82,0,0,1,1.08,3A8.18,8.18,0,0,1,338,348.39Z" style="fill:#407BFF"></path><path d="M303.14,316.54a4.27,4.27,0,0,1-1.28-2.85,7,7,0,0,1,.6-3.38c.89-2.24,2.71-4.42,3.2-7.32a6.5,6.5,0,0,0,0-2.2,12,12,0,0,0-.62-2,5,5,0,0,1-.46-3.45c.32-1.12,1-2.17,1.38-3.35a3.26,3.26,0,0,0-.48-3.23h0a3.18,3.18,0,0,1,0,3.05c-.44,1-1.25,2-1.74,3.24a4.28,4.28,0,0,0-.26,2.11,9.7,9.7,0,0,0,.51,2,12.53,12.53,0,0,1,.51,1.82,5.72,5.72,0,0,1,0,1.8c-.38,2.47-2.05,4.69-2.85,7.2a7.12,7.12,0,0,0-.28,3.78A4.24,4.24,0,0,0,303.14,316.54Z" style="fill:#407BFF"></path><path d="M370.7,397.31a2.36,2.36,0,0,0-.42-1.75,5.09,5.09,0,0,0-1.44-1.37c-1.11-.72-2.43-1.3-2.9-2.41s-.23-2.5,0-4a10.8,10.8,0,0,0,.15-2.38,4.26,4.26,0,0,0-1-2.46c-1.26-1.36-2.87-1.67-3.87-2.48a3.73,3.73,0,0,1-1.24-3.41,11.4,11.4,0,0,0-.22-4.19c-.47-1.33-1.81-2.31-3-2h0a2.54,2.54,0,0,1,2.4,2.15A12.63,12.63,0,0,1,359,377a6.61,6.61,0,0,0,.1,2.33,3.9,3.9,0,0,0,1.36,2.16c1.32,1.05,2.85,1.44,3.64,2.38s.74,2.31.57,3.76a20.73,20.73,0,0,0-.16,2.27,4.73,4.73,0,0,0,.54,2.34,4.05,4.05,0,0,0,1.69,1.58c.63.36,1.26.6,1.83.87C369.63,395.24,370.7,396.1,370.7,397.31Z" style="fill:#407BFF"></path><path d="M399.92,379a2.85,2.85,0,0,0,.61-2,5.87,5.87,0,0,0-.59-2.21c-.69-1.43-1.79-2.64-2.21-4.05s.25-2.69,1-4.28a5.44,5.44,0,0,0,.69-2.88,3.56,3.56,0,0,0-.55-1.57,4.55,4.55,0,0,0-1.11-1.12c-1.63-1.11-3.34-1.51-4.2-2.63a8,8,0,0,1-1.29-4.36,11,11,0,0,0-1.11-4.74,4.83,4.83,0,0,0-1.63-1.64,3,3,0,0,0-2.06-.4h0a3.6,3.6,0,0,1,3.07,2.36,11.68,11.68,0,0,1,.54,4.48,8.62,8.62,0,0,0,1.3,5.22c1.3,1.67,3.25,2.1,4.44,3a2.21,2.21,0,0,1,1,1.57,4.12,4.12,0,0,1-.49,2.09,19.4,19.4,0,0,0-1,2.46,4.41,4.41,0,0,0,.15,2.83c.7,1.71,2,2.79,2.73,4S400.59,377.82,399.92,379Z" style="fill:#407BFF"></path><path d="M402.17,372a2.16,2.16,0,0,1-1.41-1.53,3.64,3.64,0,0,1,.17-2.29c.28-.78.72-1.54,1.1-2.4a5.35,5.35,0,0,0,.51-2.89,4.14,4.14,0,0,0-1.6-2.5,13.72,13.72,0,0,0-2.31-1.44c-1.47-.79-2.84-1.8-3.1-3.24h0a3.31,3.31,0,0,0,.83,2.12,8.31,8.31,0,0,0,1.95,1.66,16.85,16.85,0,0,1,2.12,1.5,3.54,3.54,0,0,1,1.28,2,4.85,4.85,0,0,1-.41,2.45,25.09,25.09,0,0,0-1,2.51,3.77,3.77,0,0,0,.09,2.61A2.19,2.19,0,0,0,402.17,372Z" style="fill:#407BFF"></path><path d="M376.08,326.16a6.85,6.85,0,0,0,3.18-6.09,6.22,6.22,0,0,0-.38-2,18.3,18.3,0,0,0-.84-1.84c-.59-1.15-1.06-2.32-.62-3.29s1.6-1.75,2.49-2.89a3.51,3.51,0,0,0,.8-2.12,4.52,4.52,0,0,0-.53-2.06c-.58-1.21-1.4-2.11-1.77-3.16a2.83,2.83,0,0,1,.22-3h0a2.2,2.2,0,0,0-.82,1.38,4.05,4.05,0,0,0,.09,1.76,26.67,26.67,0,0,0,1.44,3.37,2.77,2.77,0,0,1-.33,3.1c-.72.92-2,1.62-2.71,3.12a3.63,3.63,0,0,0-.13,2.36,8.81,8.81,0,0,0,.85,1.94,8.38,8.38,0,0,1,1.32,3.4A7.11,7.11,0,0,1,376.08,326.16Z" style="fill:#407BFF"></path><g style="opacity:0.30000000000000004"><path d="M247.65,257.23a1.32,1.32,0,0,1-.13-1.34,2.92,2.92,0,0,1,.88-1.16c.4-.33.86-.62,1.31-1a2.72,2.72,0,0,0,.94-1.69c.08-.67,0-1.28,0-1.78a1,1,0,0,1,.71-.91c.45-.16,1.08-.17,1.76-.36a2.87,2.87,0,0,0,1-.52,3.05,3.05,0,0,0,.69-.9c.64-1.3.63-2.58,1.12-3.5a1.67,1.67,0,0,1,1-.86,4.4,4.4,0,0,1,1.59,0,9.38,9.38,0,0,0,1.77.09,5.79,5.79,0,0,0,1.69-.38,5.68,5.68,0,0,0,2.46-1.83h0a6.16,6.16,0,0,1-5.8,1.28,5.12,5.12,0,0,0-1.93-.07,2.66,2.66,0,0,0-1.74,1.29c-.69,1.24-.71,2.57-1.2,3.49a1.57,1.57,0,0,1-1,.89c-.5.16-1.13.17-1.83.43a2.05,2.05,0,0,0-.95.72,2.19,2.19,0,0,0-.35,1.11c0,.7.12,1.27.1,1.77,0,1-1,1.65-1.75,2.44a3.1,3.1,0,0,0-.79,1.45A1.37,1.37,0,0,0,247.65,257.23Z" style="fill:#fff"></path><path d="M267.72,271.78a5.66,5.66,0,0,0,5.84-.49,6.16,6.16,0,0,0,1.27-1.23,6,6,0,0,0,.83-1.6,7.7,7.7,0,0,1,1.29-2.87c.62-.67,1.72-.58,2.93-.73a3.22,3.22,0,0,0,1.76-.76,3.65,3.65,0,0,0,1-1.54c.4-1.08.47-2.12.87-3a2.45,2.45,0,0,1,1.95-1.67h0a2.54,2.54,0,0,0-2.35,1.45,23.78,23.78,0,0,0-1.19,2.89,3.14,3.14,0,0,1-.83,1.16,2.52,2.52,0,0,1-1.31.47c-.51.05-1.08,0-1.71.12a3,3,0,0,0-1.82.83,7.68,7.68,0,0,0-1.49,3.3,5,5,0,0,1-1.64,2.52A5.84,5.84,0,0,1,267.72,271.78Z" style="fill:#fff"></path><path d="M257.13,273.28a3.44,3.44,0,0,0,2,1.83,3.64,3.64,0,0,0,3.11-.22,8.61,8.61,0,0,1,1.33-.66,2.28,2.28,0,0,1,1.32,0c.92.25,1.88.91,3.05,1.18a7.41,7.41,0,0,0,6.44-1.44,7,7,0,0,0,2.53-5.07h0a7.65,7.65,0,0,1-3,4.47,7.1,7.1,0,0,1-5.74,1.07c-1-.21-1.89-.82-3.06-1.12a3.13,3.13,0,0,0-1.84.09,7.71,7.71,0,0,0-1.41.82A3.51,3.51,0,0,1,257.13,273.28Z" style="fill:#fff"></path><path d="M286.67,221.87a3.11,3.11,0,0,0,1.95-2.78,8.46,8.46,0,0,0-.87-3.84,7.92,7.92,0,0,1-.86-3.64c.08-1.17,1-2.14,1.91-3.19a9.53,9.53,0,0,0,1.34-1.78,5.47,5.47,0,0,0,.63-2.24,14.66,14.66,0,0,0-.59-4.16,9.11,9.11,0,0,1-.3-3.63,3.51,3.51,0,0,1,1.69-2.72h0a3.57,3.57,0,0,0-2.24,2.6,9,9,0,0,0-.1,3.93,16.2,16.2,0,0,1,.35,3.88,5.43,5.43,0,0,1-1.74,3.27,14.28,14.28,0,0,0-1.38,1.71,4.59,4.59,0,0,0-.77,2.24,8.33,8.33,0,0,0,1.18,4.12,8.86,8.86,0,0,1,1.19,3.43A3,3,0,0,1,286.67,221.87Z" style="fill:#fff"></path><path d="M308.39,173.73a2,2,0,0,0-1.82-.84,4.46,4.46,0,0,0-2.15.85,8.14,8.14,0,0,1-2,1.08,3.87,3.87,0,0,1-2.23-.22,2.71,2.71,0,0,0-1.41.09,2.88,2.88,0,0,0-1.14.77,4.94,4.94,0,0,0-1.18,2.23c-.36,1.55-.36,3-.93,4.14h0c.79-1,1-2.56,1.47-4a4.64,4.64,0,0,1,1.14-1.89,2,2,0,0,1,1.9-.62c.37.07.76.21,1.22.28a2.88,2.88,0,0,0,1.37-.12,7.61,7.61,0,0,0,2.11-1.3,4.6,4.6,0,0,1,1.87-1A1.91,1.91,0,0,1,308.39,173.73Z" style="fill:#fff"></path><path d="M294.75,175.6a7.51,7.51,0,0,1,.82-2.22,2.21,2.21,0,0,1,2.16-1.06c.88.05,1.76.45,2.67.54a2.22,2.22,0,0,0,2.22-.86,2.3,2.3,0,0,1-2.17.55,22.07,22.07,0,0,0-2.69-.66,2.61,2.61,0,0,0-1.47.28,2.66,2.66,0,0,0-1,1A5.54,5.54,0,0,0,294.75,175.6Z" style="fill:#fff"></path><path d="M381.91,242.37a20.81,20.81,0,0,0,3.54-1.53,8.14,8.14,0,0,0,3.2-3,5.58,5.58,0,0,0,.69-2.35,10.08,10.08,0,0,0-.17-2.41,10.75,10.75,0,0,1-.28-4.31c.3-1.31,1.33-2.58,1.73-4.29a4.38,4.38,0,0,0-.2-2.61,7.36,7.36,0,0,0-1.3-2,38.54,38.54,0,0,1-2.84-3.08,4,4,0,0,1-.87-3.46h0a4,4,0,0,0,.34,3.79,26.58,26.58,0,0,0,2.54,3.42,4.21,4.21,0,0,1,1,3.66c-.32,1.29-1.37,2.53-1.82,4.26a11.07,11.07,0,0,0,.35,4.89,6.15,6.15,0,0,1-.16,4,8.14,8.14,0,0,1-2.59,3A31.63,31.63,0,0,1,381.91,242.37Z" style="fill:#fff"></path><path d="M382.21,251c-.61-1.7.29-3.77,1.89-5s3.81-2.1,5.7-3.64a6.63,6.63,0,0,0,2.15-3,8.07,8.07,0,0,0,.37-3.48,17,17,0,0,0-2-5.7h0a24.48,24.48,0,0,1,1.18,5.75A7.88,7.88,0,0,1,391,239a6.14,6.14,0,0,1-1.9,2.49c-1.68,1.4-3.91,2.27-5.55,3.87a5.83,5.83,0,0,0-1.69,2.79A3.74,3.74,0,0,0,382.21,251Z" style="fill:#fff"></path><path d="M366.61,284.62a5.94,5.94,0,0,0,3.17-1.13,6,6,0,0,0,2.24-3.13,6.43,6.43,0,0,0-.14-4.19c-.55-1.34-1.4-2.43-1.1-3.4a8.3,8.3,0,0,1,.82-1.69,3.41,3.41,0,0,0,.43-2.31,6,6,0,0,0-2.57-3.33,5.56,5.56,0,0,1-2.24-2.55,2,2,0,0,1,1.17-2.56h0a1.68,1.68,0,0,0-1.35.87,2.85,2.85,0,0,0-.36,1.79,5.77,5.77,0,0,0,2.18,3.16,5.44,5.44,0,0,1,2,2.82,2.31,2.31,0,0,1-.37,1.54,8.33,8.33,0,0,0-.94,2,3.5,3.5,0,0,0,.32,2.37c.31.66.67,1.22.9,1.77a5.72,5.72,0,0,1,.32,3.51A6.07,6.07,0,0,1,366.61,284.62Z" style="fill:#fff"></path><path d="M343.55,277.84a5.18,5.18,0,0,1-1.5-3.53,4.64,4.64,0,0,1,.36-2,9,9,0,0,1,1.19-1.82,4.12,4.12,0,0,0,1-2.52,4.57,4.57,0,0,0-1.08-2.56,10,10,0,0,1-1.28-1.88,1.44,1.44,0,0,1,.22-1.58,19.27,19.27,0,0,1,1.69-1.65,4.36,4.36,0,0,0,.87-1.19,2.94,2.94,0,0,0,.26-1.57,5.73,5.73,0,0,0-1.1-2.48,7.63,7.63,0,0,1-1.05-1.92,4.74,4.74,0,0,1,.47-3.93,5.2,5.2,0,0,1,3.12-2.24h0a5.07,5.07,0,0,0-3.65,1.85,5.36,5.36,0,0,0-1,4.62c.41,1.74,1.78,3,1.84,4.23a2,2,0,0,1-.77,1.58,16.74,16.74,0,0,0-1.85,1.79,3.09,3.09,0,0,0-.63,1.48,3,3,0,0,0,.25,1.6,10.62,10.62,0,0,0,1.52,2.15,3.46,3.46,0,0,1,.92,1.76,3.2,3.2,0,0,1-.64,1.83,9.2,9.2,0,0,0-1.11,2.14,5.26,5.26,0,0,0,2,5.82Z" style="fill:#fff"></path><path d="M350.83,243.48a3,3,0,0,1,0-2.45,7.77,7.77,0,0,1,1.54-2.31,11.31,11.31,0,0,0,1.88-2.56,5.66,5.66,0,0,0,.31-3.36,8.09,8.09,0,0,1-.13-3,3.51,3.51,0,0,1,1.73-2,9.33,9.33,0,0,0,2.34-1.79,2.44,2.44,0,0,0,.6-2.5h0a2.38,2.38,0,0,1-.91,2.21,10.63,10.63,0,0,1-2.4,1.46,5.94,5.94,0,0,0-1.32.92,3.36,3.36,0,0,0-.92,1.5,7.91,7.91,0,0,0,.05,3.33,4.87,4.87,0,0,1-.19,2.85,12.21,12.21,0,0,1-1.61,2.48,7.4,7.4,0,0,0-1.38,2.63A3,3,0,0,0,350.83,243.48Z" style="fill:#fff"></path><path d="M353.84,215.79a1.34,1.34,0,0,1-.88-1,4.1,4.1,0,0,1-.11-1.46,3.51,3.51,0,0,0-.26-1.73,2.62,2.62,0,0,0-1.49-1.18c-1.13-.4-2.37-.57-2.65-1.39a2.32,2.32,0,0,1,0-1.43c.13-.52.38-1.07.57-1.7a3.47,3.47,0,0,0,.06-2.1,3.72,3.72,0,0,0-1.23-1.66c-.95-.8-2-1.38-2.22-2.28s.35-1.9.77-2.87a4.09,4.09,0,0,0,.37-1.55,1.8,1.8,0,0,0-.51-1.36h0a2.54,2.54,0,0,1-.29,2.69c-.26.44-.58.89-.83,1.42a2.92,2.92,0,0,0-.32,1.85,3.2,3.2,0,0,0,1,1.69c.45.45.93.81,1.34,1.19a2.2,2.2,0,0,1,.78,2.67c-.28,1-1.06,2.36-.47,3.86a2.61,2.61,0,0,0,1.65,1.33c.61.2,1.19.28,1.69.43A1.93,1.93,0,0,1,352,212a3.1,3.1,0,0,1,.37,1.41,4.12,4.12,0,0,0,.35,1.54A1.42,1.42,0,0,0,353.84,215.79Z" style="fill:#fff"></path><path d="M349.75,238.19a2.3,2.3,0,0,1,.42-1.58,11.06,11.06,0,0,1,1.22-1.43,3.84,3.84,0,0,0,1-1.88,4.11,4.11,0,0,0-.43-2.19,6.76,6.76,0,0,1-.63-1.87,2.05,2.05,0,0,1,.63-1.62,12.54,12.54,0,0,1,1.43-1.21c.47-.38.92-.74,1.33-1.09-.47.26-1,.55-1.49.86a10.25,10.25,0,0,0-1.61,1.1,2.51,2.51,0,0,0-.89,2,6.23,6.23,0,0,0,.64,2.09,3.9,3.9,0,0,1,.43,1.85,3.56,3.56,0,0,1-.82,1.66,8.38,8.38,0,0,0-1.09,1.6A2.24,2.24,0,0,0,349.75,238.19Z" style="fill:#fff"></path><path d="M376.26,193.44a3.4,3.4,0,0,0,.8-2.6,3.6,3.6,0,0,0-.47-1.49,3.94,3.94,0,0,0-1.13-1.2,5.8,5.8,0,0,1-1.08-1,1.39,1.39,0,0,1-.23-1.16c.18-.92.94-1.78,1.21-3.06a2.3,2.3,0,0,0,0-1,2,2,0,0,0-.57-.92,3.6,3.6,0,0,0-1.71-.76c-1.1-.23-2-.39-2.46-1.22s-.7-1.91-1.49-2.64-2.26-.53-2.38.41h0a1,1,0,0,1,1-.63,1.29,1.29,0,0,1,1.08.52c.57.68.65,1.68,1.15,2.71a2.68,2.68,0,0,0,1.29,1.26,9.3,9.3,0,0,0,1.61.51,2.79,2.79,0,0,1,1.25.56,1.11,1.11,0,0,1,.29,1.06c-.16.9-.91,1.83-1.15,3.06a2.31,2.31,0,0,0,.48,1.88,5.58,5.58,0,0,0,1.32,1A3.43,3.43,0,0,1,376.26,193.44Z" style="fill:#fff"></path><path d="M379.35,202.05a2.87,2.87,0,0,0,.21-2.21,9.66,9.66,0,0,0-1-2.28,3.9,3.9,0,0,1,0-4.63,5.65,5.65,0,0,0,.82-2.73,3.75,3.75,0,0,0-1.34-2.45,6.34,6.34,0,0,1-1.5-1.8,1.7,1.7,0,0,1,.31-1.95h0a1.81,1.81,0,0,0-.65,2.07,5.8,5.8,0,0,0,1.39,2.1,3.3,3.3,0,0,1,1,2.06,5.51,5.51,0,0,1-.79,2.34,5.52,5.52,0,0,0-.78,2.74,5.28,5.28,0,0,0,1,2.56,11.79,11.79,0,0,1,1.2,2.08A2.9,2.9,0,0,1,379.35,202.05Z" style="fill:#fff"></path><path d="M346.81,283.4a41.6,41.6,0,0,1-3.72-2.49,8.92,8.92,0,0,1-2.95-3.85,8.09,8.09,0,0,1,.09-4.82c.42-1.57.83-3.07,1.11-4.38h0c-.54,1.23-1.13,2.64-1.68,4.21a7.77,7.77,0,0,0-.27,5.25,8.4,8.4,0,0,0,3.34,4.07A20.16,20.16,0,0,0,346.81,283.4Z" style="fill:#fff"></path><path d="M303.1,387.48a2.85,2.85,0,0,1-.94-3.37c.41-1.27,1.39-2.34,2.16-3.78a5.71,5.71,0,0,0,.67-2.49,3.79,3.79,0,0,0-1-2.58c-.59-.67-1.24-1.16-1.69-1.7a2,2,0,0,1-.57-1.64,4.63,4.63,0,0,1,.91-1.84A17.46,17.46,0,0,0,304,368a4.12,4.12,0,0,0,.41-2.72,6.66,6.66,0,0,0-1-2.31c-.88-1.31-1.84-2.39-2.08-3.68a2.38,2.38,0,0,1,1.7-2.89h0a2,2,0,0,0-1.72.88,3.12,3.12,0,0,0-.63,2.09c.1,1.56,1.08,2.9,1.77,4.17a5.86,5.86,0,0,1,.73,2,2.94,2.94,0,0,1-.39,1.87,18.76,18.76,0,0,1-1.32,1.89,5.8,5.8,0,0,0-1.19,2.48,3.32,3.32,0,0,0,.16,1.56,3.91,3.91,0,0,0,.78,1.25c.62.68,1.27,1.15,1.76,1.67a2.48,2.48,0,0,1,.79,1.68,4.75,4.75,0,0,1-.4,2,20.9,20.9,0,0,0-1.78,4.09,3.89,3.89,0,0,0,.2,2.15A2.36,2.36,0,0,0,303.1,387.48Z" style="fill:#fff"></path><path d="M304.43,342.5a3.11,3.11,0,0,0-1.95,1.79,6.09,6.09,0,0,0-.41,3c.07,1,.28,2.06.31,3.07a4.53,4.53,0,0,1-.64,2.77c-.52.78-1.46,1.37-2.18,2.29a4.65,4.65,0,0,0-.9,3.22,10.11,10.11,0,0,0,2.34,5.12h0c-.68-1.48-1.63-3.22-1.61-5.14a4.08,4.08,0,0,1,.89-2.62,31.43,31.43,0,0,0,2.27-2.31,5.25,5.25,0,0,0,.75-3.38c-.08-1.12-.35-2.13-.5-3.11a5.94,5.94,0,0,1,.09-2.76A3.09,3.09,0,0,1,304.43,342.5Z" style="fill:#fff"></path><path d="M284.94,411.5a5.1,5.1,0,0,1-1-3,4.73,4.73,0,0,1,1.14-3.11,8,8,0,0,1,3.12-1.89,4.94,4.94,0,0,0,1.77-1.39,2.87,2.87,0,0,0,.53-1.13,5.09,5.09,0,0,0,.1-1.13,3.49,3.49,0,0,1,.2-1.65c.2-.34.61-.47,1.21-.45s1.25.16,2,.14a5.66,5.66,0,0,0,2.05-.44,5.38,5.38,0,0,0,2.81-2.59,5.28,5.28,0,0,0,.48-3.3,5.31,5.31,0,0,1-3.62,5,5,5,0,0,1-1.72.25c-.56,0-1.19-.19-1.93-.24a3,3,0,0,0-1.2.12,2,2,0,0,0-1.09.84,4.06,4.06,0,0,0-.4,2.28,2.39,2.39,0,0,1-.38,1.56,3.88,3.88,0,0,1-1.33,1.07c-.55.3-1.16.57-1.76.93a5.42,5.42,0,0,0-1.55,1.42,5.14,5.14,0,0,0-1,3.72A4.92,4.92,0,0,0,284.94,411.5Z" style="fill:#fff"></path><path d="M290.46,395.74a1.8,1.8,0,0,0-2.34.87,24.44,24.44,0,0,0-1,2.83,2.27,2.27,0,0,1-.85,1.05A6.33,6.33,0,0,1,285,401a3.21,3.21,0,0,0-1.25.67,1.41,1.41,0,0,0-.52,1.14h0c.1-.82,1-1.29,1.87-1.48a5.84,5.84,0,0,0,1.44-.49,2.66,2.66,0,0,0,1.05-1.25c.43-1,.45-2,.87-2.84A1.72,1.72,0,0,1,290.46,395.74Z" style="fill:#fff"></path><path d="M335.17,402.6a3.05,3.05,0,0,0,1.28-1.68,6.41,6.41,0,0,0,.27-2.28c-.08-1.59-.54-3.16-.28-4.61a3,3,0,0,1,1-1.8c.55-.53,1.27-1,1.95-1.75a3.47,3.47,0,0,0,.8-1.44,3,3,0,0,0-.11-1.73,15,15,0,0,0-1.38-2.38,1.44,1.44,0,0,1-.14-1.63,8.39,8.39,0,0,1,1.8-1.48,5.08,5.08,0,0,0,1.08-1.05,3.26,3.26,0,0,0,.58-1.52,4.58,4.58,0,0,0-.72-2.78c-1-1.57-2.3-2.46-3-3.71s-.77-2.89.38-3.7h0a2.26,2.26,0,0,0-1.25,1.67,3.88,3.88,0,0,0,.24,2.34c.63,1.51,1.94,2.66,2.59,4a3.41,3.41,0,0,1,.4,2,2.28,2.28,0,0,1-1.17,1.53,8.33,8.33,0,0,0-2.22,1.81,2.72,2.72,0,0,0-.48,1.74,3.56,3.56,0,0,0,.53,1.57,19.84,19.84,0,0,1,1.29,2.13,1.55,1.55,0,0,1-.35,1.66c-.46.56-1.16,1.08-1.8,1.76a4.32,4.32,0,0,0-1.21,2.6c-.15,1.87.53,3.41.78,4.84S336.21,401.66,335.17,402.6Z" style="fill:#fff"></path><path d="M338,348.39a7.54,7.54,0,0,0,2.12-5.68,8.09,8.09,0,0,0-1-3.4,5.18,5.18,0,0,1-.89-3,29.52,29.52,0,0,1,1.17-3.19,5,5,0,0,0-.52-3.59,25.21,25.21,0,0,1-1.39-2.82,3.52,3.52,0,0,1,0-2.72,3.5,3.5,0,0,0-.41,2.85,18.42,18.42,0,0,0,1.1,3,4.3,4.3,0,0,1,.3,3,20.09,20.09,0,0,0-1.27,3.33,5.85,5.85,0,0,0,1.06,3.59,7.82,7.82,0,0,1,1.08,3A8.18,8.18,0,0,1,338,348.39Z" style="fill:#fff"></path><path d="M303.14,316.54a4.27,4.27,0,0,1-1.28-2.85,7,7,0,0,1,.6-3.38c.89-2.24,2.71-4.42,3.2-7.32a6.5,6.5,0,0,0,0-2.2,12,12,0,0,0-.62-2,5,5,0,0,1-.46-3.45c.32-1.12,1-2.17,1.38-3.35a3.26,3.26,0,0,0-.48-3.23h0a3.18,3.18,0,0,1,0,3.05c-.44,1-1.25,2-1.74,3.24a4.28,4.28,0,0,0-.26,2.11,9.7,9.7,0,0,0,.51,2,12.53,12.53,0,0,1,.51,1.82,5.72,5.72,0,0,1,0,1.8c-.38,2.47-2.05,4.69-2.85,7.2a7.12,7.12,0,0,0-.28,3.78A4.24,4.24,0,0,0,303.14,316.54Z" style="fill:#fff"></path><path d="M370.7,397.31a2.36,2.36,0,0,0-.42-1.75,5.09,5.09,0,0,0-1.44-1.37c-1.11-.72-2.43-1.3-2.9-2.41s-.23-2.5,0-4a10.8,10.8,0,0,0,.15-2.38,4.26,4.26,0,0,0-1-2.46c-1.26-1.36-2.87-1.67-3.87-2.48a3.73,3.73,0,0,1-1.24-3.41,11.4,11.4,0,0,0-.22-4.19c-.47-1.33-1.81-2.31-3-2h0a2.54,2.54,0,0,1,2.4,2.15A12.63,12.63,0,0,1,359,377a6.61,6.61,0,0,0,.1,2.33,3.9,3.9,0,0,0,1.36,2.16c1.32,1.05,2.85,1.44,3.64,2.38s.74,2.31.57,3.76a20.73,20.73,0,0,0-.16,2.27,4.73,4.73,0,0,0,.54,2.34,4.05,4.05,0,0,0,1.69,1.58c.63.36,1.26.6,1.83.87C369.63,395.24,370.7,396.1,370.7,397.31Z" style="fill:#fff"></path><path d="M399.92,379a2.85,2.85,0,0,0,.61-2,5.87,5.87,0,0,0-.59-2.21c-.69-1.43-1.79-2.64-2.21-4.05s.25-2.69,1-4.28a5.44,5.44,0,0,0,.69-2.88,3.56,3.56,0,0,0-.55-1.57,4.55,4.55,0,0,0-1.11-1.12c-1.63-1.11-3.34-1.51-4.2-2.63a8,8,0,0,1-1.29-4.36,11,11,0,0,0-1.11-4.74,4.83,4.83,0,0,0-1.63-1.64,3,3,0,0,0-2.06-.4h0a3.6,3.6,0,0,1,3.07,2.36,11.68,11.68,0,0,1,.54,4.48,8.62,8.62,0,0,0,1.3,5.22c1.3,1.67,3.25,2.1,4.44,3a2.21,2.21,0,0,1,1,1.57,4.12,4.12,0,0,1-.49,2.09,19.4,19.4,0,0,0-1,2.46,4.41,4.41,0,0,0,.15,2.83c.7,1.71,2,2.79,2.73,4S400.59,377.82,399.92,379Z" style="fill:#fff"></path><path d="M402.17,372a2.16,2.16,0,0,1-1.41-1.53,3.64,3.64,0,0,1,.17-2.29c.28-.78.72-1.54,1.1-2.4a5.35,5.35,0,0,0,.51-2.89,4.14,4.14,0,0,0-1.6-2.5,13.72,13.72,0,0,0-2.31-1.44c-1.47-.79-2.84-1.8-3.1-3.24h0a3.31,3.31,0,0,0,.83,2.12,8.31,8.31,0,0,0,1.95,1.66,16.85,16.85,0,0,1,2.12,1.5,3.54,3.54,0,0,1,1.28,2,4.85,4.85,0,0,1-.41,2.45,25.09,25.09,0,0,0-1,2.51,3.77,3.77,0,0,0,.09,2.61A2.19,2.19,0,0,0,402.17,372Z" style="fill:#fff"></path><path d="M376.08,326.16a6.85,6.85,0,0,0,3.18-6.09,6.22,6.22,0,0,0-.38-2,18.3,18.3,0,0,0-.84-1.84c-.59-1.15-1.06-2.32-.62-3.29s1.6-1.75,2.49-2.89a3.51,3.51,0,0,0,.8-2.12,4.52,4.52,0,0,0-.53-2.06c-.58-1.21-1.4-2.11-1.77-3.16a2.83,2.83,0,0,1,.22-3h0a2.2,2.2,0,0,0-.82,1.38,4.05,4.05,0,0,0,.09,1.76,26.67,26.67,0,0,0,1.44,3.37,2.77,2.77,0,0,1-.33,3.1c-.72.92-2,1.62-2.71,3.12a3.63,3.63,0,0,0-.13,2.36,8.81,8.81,0,0,0,.85,1.94,8.38,8.38,0,0,1,1.32,3.4A7.11,7.11,0,0,1,376.08,326.16Z" style="fill:#fff"></path></g></g></svg>