<svg xmlns="http://www.w3.org/2000/svg" viewBox="0 0 500 500"><g id="freepik--background-complete--inject-141"><polygon points="259.1 236.02 259.1 236.03 259.13 236.04 259.1 236.02" style="fill:#f5f5f5"></polygon><polygon points="259.01 236 259.09 236.03 259.04 235.98 259.01 236" style="fill:#f5f5f5"></polygon><polygon points="258.94 235.91 258.86 235.96 259 236 258.94 235.91" style="fill:#f5f5f5"></polygon><polygon points="258.83 235.86 258.85 235.85 258.83 235.83 258.83 235.86" style="fill:#f5f5f5"></polygon><polygon points="258.86 235.68 258.86 235.69 258.88 235.71 258.86 235.68" style="fill:#f5f5f5"></polygon><polygon points="259.1 235.94 259.08 235.96 259.1 235.98 259.1 235.94" style="fill:#f5f5f5"></polygon><polygon points="258.76 235.87 258.78 235.8 258.44 235.57 258.7 235.89 258.76 235.87" style="fill:#f5f5f5"></polygon><polygon points="258.8 235.81 258.77 235.87 258.82 235.86 258.8 235.81" style="fill:#f5f5f5"></polygon><polygon points="259.08 235.91 259.04 235.9 259.06 235.93 259.08 235.91" style="fill:#f5f5f5"></polygon><polygon points="259.03 235.97 259.01 235.96 259.01 235.99 259.03 235.97" style="fill:#f5f5f5"></polygon><path d="M297,13.19,277.79,125.07l.46.08L259.31,234.77l48.71-100,.22.11L357,34.45A240.24,240.24,0,0,0,321.41,19.7,243.18,243.18,0,0,0,297,13.19Z" style="fill:#f5f5f5"></path><path d="M450.09,119.48a239.77,239.77,0,0,0-40.77-48.74L334.57,152.8l.2.19-75.51,82.73Z" style="fill:#f5f5f5"></path><path d="M166.23,172.81h0l92,62.61-.4-.13.89.6h0l.05,0v0h.08v0h0v0l.08,0,.06.09-.14-.05.05.09.08,0,0,0h.12v0l.06,0,0,0-.08,0,.35.31-.26-.33,92.51,63-.13.2,102.62,70a241.13,241.13,0,0,0,21.48-47.86q2.3-7.14,4.12-14.31l-114-36.88-.06.19L259.17,236.05h0l0,0,.05-.09h.51l-.46.12,1,0-.46-.15,227.46,5.65a238.63,238.63,0,0,0-10.46-64l-217,58.37-.37-.11.21-.13-.33.09h0v0h0l.28-.54-.33.37,0,.15-.16.05v-.11l-.09,0,.07-.14-.05-.42-.08.5,0,.05h0l-.17-.21.06.16-.35-.11L108.64,52.55A238.93,238.93,0,0,0,59.05,99.86ZM259.1,236l0,0h0Zm-.09,0,0,0,0,.05Zm.09-.06v0l0,0Zm0,0,0,0,0,0ZM259,236l0,0v0Zm-.2-.11v0l0,0Zm0-.18,0,0,0,0Zm-.06.13,0,.05h-.05Zm0,0,0,.07-.06,0-.26-.32Z" style="fill:#f5f5f5"></path><path d="M215.07,132.51h0l43.7,103L245.9,124.3h0L232.39,8.5A239.82,239.82,0,0,0,168,21.71Z" style="fill:#f5f5f5"></path><path d="M330,322.84l-.09.08-70.71-86.39,43.67,102.85-.22.09,51.87,122.6a240.84,240.84,0,0,0,56.91-39.5Z" style="fill:#f5f5f5"></path><polygon points="259 236.25 258.98 236.23 258.99 236.25 259 236.25" style="fill:#f5f5f5"></polygon><polygon points="258.81 235.96 258.78 235.99 258.75 235.95 258.74 236.03 258.75 236.03 258.74 236.03 258.82 236.03 258.79 236 258.83 235.98 258.85 235.99 258.84 235.97 258.86 235.96 258.76 235.92 258.81 235.96" style="fill:#f5f5f5"></polygon><polygon points="258.69 236.03 258.74 235.93 258.72 235.91 258.22 236.02 258.69 236.03" style="fill:#f5f5f5"></polygon><path d="M258.33,236.28l-107.77,29c0-.14-.07-.27-.11-.4L14.19,301.35a240.34,240.34,0,0,0,26.66,67.16l140.57-85.38Z" style="fill:#f5f5f5"></path><path d="M146.8,233.12l111.88,2.78L24.56,160.45q-2.6,6.63-4.82,13.48a240.26,240.26,0,0,0-11,55.64l138,3.57Z" style="fill:#f5f5f5"></path><path d="M258.37,236.69,86.51,425a238.11,238.11,0,0,0,60.6,40.13Z" style="fill:#f5f5f5"></path><polygon points="259.07 236.08 259.04 236.09 259.05 236.12 259.07 236.08" style="fill:#f5f5f5"></polygon><path d="M258.94,236.85,216,485.17a237.88,237.88,0,0,0,71.54-1.25Z" style="fill:#f5f5f5"></path><polygon points="258.68 236.34 258.54 237.18 258.9 236.44 258.86 236.15 258.68 236.34" style="fill:#f5f5f5"></polygon><polygon points="259.02 236.09 259 236.1 259.02 236.11 259.02 236.09" style="fill:#f5f5f5"></polygon><path d="M94.83,258.78l-9.37.41A31.3,31.3,0,1,0,93,267.45h0Z" style="fill:#fff"></path><path d="M94.83,258.78s-.06.2-.14.58-.22,1-.38,1.68l-1.38,6.39.2-.06v0a.13.13,0,0,0-.19.16,31.45,31.45,0,0,1,4.65,14.31,32.17,32.17,0,0,1,0,4.8c-.06.83-.23,1.66-.35,2.51a16.8,16.8,0,0,1-.54,2.57A30.75,30.75,0,0,1,92,301.91,30.88,30.88,0,0,1,56.1,313.16a30.7,30.7,0,0,1-19.4-21.35,30.61,30.61,0,0,1-.32-14.13,31.08,31.08,0,0,1,49-18.39.11.11,0,0,0,.08,0l6.93-.39,1.81-.1.63-.05h-.59l-1.77.05-7,.23.08,0a31,31,0,0,0-14-6,31.53,31.53,0,0,0-35.74,24.5,31.09,31.09,0,0,0,.32,14.4,31.53,31.53,0,0,0,34.2,23.45,31.92,31.92,0,0,0,12.88-4.54,31.31,31.31,0,0,0,13.9-19.06,17.51,17.51,0,0,0,.53-2.61c.11-.86.28-1.7.33-2.55a30.83,30.83,0,0,0-4.82-19.27l-.19.16h0a.13.13,0,0,0,.18,0,.07.07,0,0,0,0-.06c.54-2.81,1-5,1.26-6.5.13-.71.23-1.26.31-1.66A4.37,4.37,0,0,0,94.83,258.78Z" style="fill:#e0e0e0"></path><path d="M406.47,169.32l8.37.33a28,28,0,1,0-6.13-7.92h0Z" style="fill:#fff"></path><path d="M406.47,169.32s.07-.18.17-.51l.46-1.47c.39-1.29,1-3.17,1.71-5.59l-.19.05h0a.12.12,0,0,0,.16,0,.14.14,0,0,0,0-.14,28,28,0,0,1-3.07-13.08,27.7,27.7,0,0,1,.4-4.26c.11-.74.33-1.46.49-2.21a15.12,15.12,0,0,1,.67-2.24,27.49,27.49,0,0,1,13.63-15.62,27.41,27.41,0,0,1,34.45,7.87,26.69,26.69,0,0,1,5.28,12.11,27.37,27.37,0,0,1-.76,12.6,27.75,27.75,0,0,1-45,12.71.11.11,0,0,0-.07,0l-6.2-.17-1.61,0h-.57l.52,0,1.59.09,6.26.31-.07,0a27.73,27.73,0,0,0,12,6.4A28.15,28.15,0,0,0,460.4,157a27.84,27.84,0,0,0,.79-12.84,28.79,28.79,0,0,0-1.88-6.45,29.36,29.36,0,0,0-3.49-5.9,28.68,28.68,0,0,0-4.82-5,28.31,28.31,0,0,0-5.79-3.53,27.94,27.94,0,0,0-12.71-2.57,28,28,0,0,0-25.59,19,15.93,15.93,0,0,0-.66,2.28c-.17.76-.38,1.5-.49,2.24a30,30,0,0,0-.38,4.33,28.16,28.16,0,0,0,3.23,13.19l.18-.13h0a.12.12,0,0,0-.19,0c-.69,2.47-1.23,4.38-1.6,5.7-.17.62-.3,1.1-.4,1.45A3.13,3.13,0,0,0,406.47,169.32Z" style="fill:#e0e0e0"></path><path d="M421.64,153.4h-3.17v3.1h-2.89v-3.1h-3.19v-2.73h3.19v-3.1h2.89v3.1h3.17Z" style="fill:#e0e0e0"></path><path d="M428.75,157.71a9.4,9.4,0,0,1-3.74-3.52A10.3,10.3,0,0,1,425,144a9.49,9.49,0,0,1,3.74-3.53,11.33,11.33,0,0,1,5.38-1.26,11.59,11.59,0,0,1,4.7.92,9.14,9.14,0,0,1,3.49,2.67l-3.43,3.1a5.64,5.64,0,0,0-4.49-2.23,5.54,5.54,0,0,0-2.76.68,4.64,4.64,0,0,0-1.88,1.92,6.38,6.38,0,0,0,0,5.69,4.76,4.76,0,0,0,1.88,1.92,5.54,5.54,0,0,0,2.76.68,5.65,5.65,0,0,0,4.49-2.24l3.43,3.11a9,9,0,0,1-3.49,2.66,11.43,11.43,0,0,1-4.7.93A11.22,11.22,0,0,1,428.75,157.71Z" style="fill:#e0e0e0"></path><path d="M446.49,146.66a4.69,4.69,0,0,1-1.9-1.61,4.12,4.12,0,0,1-.69-2.34,4.08,4.08,0,0,1,.69-2.34,4.71,4.71,0,0,1,1.9-1.62,6.7,6.7,0,0,1,5.5,0,4.55,4.55,0,0,1,1.89,1.62,4.07,4.07,0,0,1,.68,2.34,4.11,4.11,0,0,1-.68,2.34,4.53,4.53,0,0,1-1.89,1.61,6.7,6.7,0,0,1-5.5,0Zm4.07-2.54a2.2,2.2,0,0,0,0-2.84,2,2,0,0,0-2.66,0,2.2,2.2,0,0,0,0,2.84,2,2,0,0,0,2.66,0Z" style="fill:#e0e0e0"></path><path d="M464.69,453.51l-10.2,0,0,10-9.29,0,0-10-10.26,0,0-8.82,10.26,0,0-10,9.3,0,0,10,10.2,0Z" style="fill:#ebebeb"></path><path d="M471.85,420.69l-4,0v3.93l-3.66,0v-3.92l-4,0v-3.47l4.05,0v-3.93l3.66,0v3.92h4Z" style="fill:#ebebeb"></path><path d="M405.56,453.43h-4v3.92h-3.67l0-3.93h-4.05l0-3.47h4V446h3.67l0,3.92,4,0Z" style="fill:#ebebeb"></path><path d="M57.17,456.14l-10.2,0,0,10-9.3,0,0-10-10.26,0,0-8.82,10.26,0,0-10,9.29,0,0,10,10.2,0Z" style="fill:#ebebeb"></path><path d="M35.38,409.35h-4v3.92H27.68l0-3.93H23.65l0-3.47h4v-3.92h3.67l0,3.92,4,0Z" style="fill:#ebebeb"></path><path d="M99.91,465.13h-4V469H92.21l0-3.92-4,0,0-3.47h4v-3.92h3.67l0,3.93h4Z" style="fill:#ebebeb"></path><path d="M463.06,64.33l-10.2,0,0,10-9.3,0,0-10-10.27,0,0-8.81,10.26,0,0-10,9.3,0,0,10,10.21,0Z" style="fill:#ebebeb"></path><path d="M479,33.53l-4,0v3.92h-3.67l0-3.92-4.05,0,0-3.47h4V26.1H475L475,30h4Z" style="fill:#ebebeb"></path><path d="M58.94,59.8l-10.2,0,0,10-9.29,0,0-10-10.26,0,0-8.81,10.26,0,0-9.95,9.3,0,0,10L59,51Z" style="fill:#ebebeb"></path><path d="M38.47,109.83l-4,0v3.93l-3.66,0V109.8l-4,0v-3.47l4,0,0-3.93,3.66,0v3.92h4Z" style="fill:#ebebeb"></path><path d="M377.81,25.13h-4V29h-3.66V25.1h-4V21.62h4l0-3.92h3.66v3.93h4Z" style="fill:#ebebeb"></path><path d="M61.32,284.8a4.94,4.94,0,0,1,1.2,3.35,5.42,5.42,0,0,1-.87,3A6.1,6.1,0,0,1,59,293.34a10.18,10.18,0,0,1-4.38.84,15.67,15.67,0,0,1-3.79-.47,11.05,11.05,0,0,1-3.25-1.32l1.86-3.85a8.59,8.59,0,0,0,2.39,1.11,9.37,9.37,0,0,0,2.63.39,4,4,0,0,0,2.1-.49,1.58,1.58,0,0,0,.77-1.4c0-1.18-.92-1.76-2.77-1.76H52.43v-3.24l3.23-3.49H48.52v-4H61.61v3.21l-3.75,4A6,6,0,0,1,61.32,284.8Z" style="fill:#e0e0e0"></path><path d="M76.33,283.85A5.19,5.19,0,0,1,78.15,288a5.83,5.83,0,0,1-.87,3.1,5.92,5.92,0,0,1-2.64,2.25,10.18,10.18,0,0,1-4.38.84,15.67,15.67,0,0,1-3.79-.47,10.81,10.81,0,0,1-3.23-1.32l1.84-3.85a8.92,8.92,0,0,0,2.4,1.11,9.09,9.09,0,0,0,2.62.39,3.83,3.83,0,0,0,2.11-.51,1.57,1.57,0,0,0,.79-1.41,1.5,1.5,0,0,0-.78-1.37,5.7,5.7,0,0,0-2.74-.47H64.56l.91-10.58H77v4h-7.3l-.23,2.64H70.7Q74.5,282.3,76.33,283.85Z" style="fill:#e0e0e0"></path><path d="M81.48,282.47a4.52,4.52,0,0,1-1.82-1.54A3.92,3.92,0,0,1,79,278.7a3.87,3.87,0,0,1,.66-2.22,4.44,4.44,0,0,1,1.82-1.54,6.36,6.36,0,0,1,5.22,0,4.32,4.32,0,0,1,1.8,1.54,3.94,3.94,0,0,1,.65,2.22,4,4,0,0,1-.65,2.23,4.39,4.39,0,0,1-1.8,1.54,6.47,6.47,0,0,1-5.22,0Zm3.86-2.42a2.09,2.09,0,0,0,0-2.71,1.72,1.72,0,0,0-1.26-.48,1.74,1.74,0,0,0-1.27.48,2.12,2.12,0,0,0,0,2.71,1.71,1.71,0,0,0,1.27.49A1.69,1.69,0,0,0,85.34,280.05Z" style="fill:#e0e0e0"></path><path d="M452.6,283.32l1.45-9.27a31.29,31.29,0,1,0-9.6,5.8h0Z" style="fill:#fff"></path><path d="M452.6,283.32s-.19-.1-.55-.26l-1.56-.69-6-2.63,0,.22h0a.14.14,0,0,0,0-.18.14.14,0,0,0-.15,0,31.34,31.34,0,0,1-15,1.73,30.7,30.7,0,0,1-4.69-1c-.8-.22-1.58-.55-2.39-.83a17.52,17.52,0,0,1-2.41-1,30.69,30.69,0,0,1-9.09-6.62,30.82,30.82,0,0,1,6.67-47.86,31.5,31.5,0,0,1,6.88-3.06,30.94,30.94,0,0,1,7.27-1.25,30.57,30.57,0,0,1,13.92,2.47A31.07,31.07,0,0,1,454,274a.2.2,0,0,0,0,.08l-1,6.86c-.11.77-.19,1.37-.25,1.8s-.08.63-.08.63,0-.19.11-.58.17-1,.3-1.75c.27-1.6.66-3.92,1.16-6.92l0,.07a31,31,0,0,0,8.67-12.53,31.51,31.51,0,0,0-16.95-39.87,31.29,31.29,0,0,0-14.18-2.54,32,32,0,0,0-20.58,9.11,32.58,32.58,0,0,0-4.67,6A31.37,31.37,0,0,0,419.77,279a16.82,16.82,0,0,0,2.45,1c.82.28,1.62.61,2.43.83a31.68,31.68,0,0,0,4.76,1A31.12,31.12,0,0,0,444.5,280l-.12-.21h0a.12.12,0,0,0,0,.17.1.1,0,0,0,.05,0l6.13,2.52,1.56.63Z" style="fill:#e0e0e0"></path><path d="M427.85,251.66a4.84,4.84,0,0,1,1.14,3.28,5.25,5.25,0,0,1-.88,2.89,5.91,5.91,0,0,1-2.59,2.13,10,10,0,0,1-4.29.77,14.82,14.82,0,0,1-3.68-.49,10.52,10.52,0,0,1-3.15-1.32l1.85-3.74a8.16,8.16,0,0,0,2.32,1.11,9.24,9.24,0,0,0,2.56.41,3.7,3.7,0,0,0,2-.46,1.49,1.49,0,0,0,.77-1.35c0-1.15-.88-1.73-2.67-1.75l-2.1,0,0-3.15,3.18-3.37-6.95-.07,0-3.86,12.75.14,0,3.12-3.7,3.9A5.86,5.86,0,0,1,427.85,251.66Z" style="fill:#e0e0e0"></path><path d="M444.9,243l0,3.13-6.39,14.46-5.44-.06,6.1-13.63-4.64,0,0,2.72-4.26,0,.07-6.68Z" style="fill:#e0e0e0"></path><path d="M449,249.62a4.34,4.34,0,0,1-1.75-1.52,4,4,0,0,1,0-4.33,4.38,4.38,0,0,1,1.79-1.49,5.77,5.77,0,0,1,2.54-.51,5.83,5.83,0,0,1,2.55.57,4.3,4.3,0,0,1,1.74,1.52,4.06,4.06,0,0,1-.05,4.33,4.23,4.23,0,0,1-1.77,1.48,6.21,6.21,0,0,1-5.09,0Zm3.79-2.32a1.75,1.75,0,0,0,.5-1.3,1.77,1.77,0,0,0-.47-1.33,1.87,1.87,0,0,0-2.47,0,1.76,1.76,0,0,0-.49,1.32,1.79,1.79,0,0,0,.46,1.32,1.71,1.71,0,0,0,1.23.49A1.67,1.67,0,0,0,452.82,247.3Z" style="fill:#e0e0e0"></path></g><g id="freepik--thermometer-4--inject-141"><path d="M362.41,143.64c-4-9.16-35.64-3.07-35.64-3.07s-31.38,7.23-31.34,17.22c0,0,.82,51.87,16.6,94a72.91,72.91,0,0,0,11.84,20.6c6.53,8,16.74,21.09,23.07,32.22a233,233,0,0,1,13.25,26.51l23.65,111.9a6.51,6.51,0,0,0,7.72,5l.25-.05a6.51,6.51,0,0,0,5-7.71l-23.46-111c-.09-2.12-.44-12.82,1.36-30.57,1.28-12.74,5.32-28.85,8.06-38.8a73,73,0,0,0,2.49-23.63C382.64,191.4,362.41,143.64,362.41,143.64Z" style="fill:#13D6D0"></path><rect x="311.85" y="171.71" width="58.6" height="73.76" rx="20.14" transform="translate(-35.76 75.06) rotate(-11.94)" style="fill:#263238"></rect><path d="M391.56,448.08h0a6.51,6.51,0,0,1-7.72-5l-5.07-24,12.74-2.69,5.07,24A6.51,6.51,0,0,1,391.56,448.08Z" style="fill:#e0e0e0"></path><path d="M390.21,448.72a7,7,0,0,1-6.86-5.56l-5.17-24.49,13.71-2.9,5.18,24.49a7,7,0,0,1-5.41,8.31h0A7.14,7.14,0,0,1,390.21,448.72Zm-10.85-29.28,5,23.52a6,6,0,0,0,7.12,4.63h0a6,6,0,0,0,4.64-7.12l-5-23.52Z" style="fill:#263238"></path><path d="M339.09,210.56a3.87,3.87,0,0,1,1.6,2.49,4.17,4.17,0,0,1-.16,2.35,4.34,4.34,0,0,1-1.53,2,7.17,7.17,0,0,1-2.93,1.24,10,10,0,0,1-3,.18,7.54,7.54,0,0,1-2.62-.69l.69-2.26a5.77,5.77,0,0,0,2.07.62,7,7,0,0,0,2.33-.1,3.79,3.79,0,0,0,2.05-1,1.87,1.87,0,0,0,.46-1.72,1.84,1.84,0,0,0-1.08-1.37,4,4,0,0,0-2.4-.07l-1.28.27-.38-1.78,2.38-4.45L329,207.57l-.46-2.18,9.54-2,.37,1.74-2.54,4.76A4.8,4.8,0,0,1,339.09,210.56Z" style="fill:#fff"></path><path d="M350.4,206.91a4.15,4.15,0,0,1,2,1.15,4.2,4.2,0,0,1,1.1,2.12,4.35,4.35,0,0,1-.18,2.54,4.68,4.68,0,0,1-1.5,2,6.25,6.25,0,0,1-2.48,1.11,5.78,5.78,0,0,1-4.85-.86,7.7,7.7,0,0,1-2.69-4.82,8.9,8.9,0,0,1,0-4.21,6.07,6.07,0,0,1,1.88-3,7.26,7.26,0,0,1,3.4-1.63,8.42,8.42,0,0,1,2.08-.2,5.49,5.49,0,0,1,1.79.32l-.54,2.16a5,5,0,0,0-2.81-.12,4.24,4.24,0,0,0-2.9,1.91,5.25,5.25,0,0,0-.38,3.82v0a4,4,0,0,1,1.35-1.42,6.09,6.09,0,0,1,2.08-.83A5.8,5.8,0,0,1,350.4,206.91Zm.25,5.82a2.23,2.23,0,0,0,.39-1.89,2.17,2.17,0,0,0-1.13-1.58,3.58,3.58,0,0,0-4.08.9,2.26,2.26,0,0,0-.43,1.89,2.22,2.22,0,0,0,1.13,1.53,3.23,3.23,0,0,0,2.28.22A3,3,0,0,0,350.65,212.73Z" style="fill:#fff"></path><path d="M355.2,205.11a3.15,3.15,0,0,1-2.38-2.48,3.21,3.21,0,0,1,.11-1.77,3.3,3.3,0,0,1,1.07-1.45,4.22,4.22,0,0,1,1.79-.82,4.26,4.26,0,0,1,2,0,3.32,3.32,0,0,1,1.55.9,3.22,3.22,0,0,1,.82,1.57,3.17,3.17,0,0,1-1.17,3.23,4.15,4.15,0,0,1-1.8.82A4.22,4.22,0,0,1,355.2,205.11Zm3-2.21a1.82,1.82,0,0,0,.25-1.46,1.8,1.8,0,0,0-.82-1.21,2,2,0,0,0-1.51-.22,2,2,0,0,0-1.29.81,1.75,1.75,0,0,0-.26,1.44,1.84,1.84,0,0,0,.81,1.24,2.25,2.25,0,0,0,2.82-.6Z" style="fill:#fff"></path><rect x="318.19" y="185.37" width="6.07" height="2.88" transform="translate(-31.69 70.47) rotate(-11.93)" style="fill:#fff"></rect></g><g id="freepik--thermometer-3--inject-141"><path d="M264.43,124.17a12.94,12.94,0,0,0-12.31,12.88v232a56.26,56.26,0,0,0,8.41,29.52h0v53.26a4.56,4.56,0,0,0,4.08,4.56,4.48,4.48,0,0,0,5-4.37V398.58h0a13.76,13.76,0,0,0,1.69-2.41,56.17,56.17,0,0,0,6.72-26.6V136.69A12.77,12.77,0,0,0,264.43,124.17Z" style="fill:#f5f5f5"></path><path d="M264.43,124.17h.45a9,9,0,0,1,1.33,0,12.42,12.42,0,0,1,5,1.42,12.81,12.81,0,0,1,5.79,6,12.48,12.48,0,0,1,1.1,5.29c0,1.93,0,4,0,6.16,0,17.41,0,42.59.08,73.7s0,68.17.06,109.31q0,15.42,0,31.59v8.12c0,2.71.05,5.46-.18,8.21a56.61,56.61,0,0,1-3.76,16.22c-.53,1.31-1.08,2.61-1.7,3.87a23.55,23.55,0,0,1-2.09,3.72c-.21.29-.44.57-.67.84v53a5,5,0,0,1-.4,2.27,4.82,4.82,0,0,1-7.48,1.64,4.91,4.91,0,0,1-1.7-3.63V398.58l0,.13a56.65,56.65,0,0,1-8.42-28.25q0-14.59,0-28.66c0-18.73,0-36.68,0-53.71,0-34,0-64.36,0-89.65S252,152.9,252,139a19.59,19.59,0,0,1,.38-4.92,13.39,13.39,0,0,1,1.71-4,14.36,14.36,0,0,1,2.43-2.79,13,13,0,0,1,6.48-3c.93-.1,1.4-.12,1.4-.12l-.35,0c-.23,0-.58.06-1,.13a13.12,13.12,0,0,0-3.9,1.31,12.3,12.3,0,0,0-2.51,1.71,14.42,14.42,0,0,0-2.4,2.77,13.52,13.52,0,0,0-1.66,3.94,19.18,19.18,0,0,0-.36,4.88c0,14,0,34.2.08,59.49s0,55.6.06,89.65c0,17,0,35,0,53.71q0,14.06,0,28.65a56.15,56.15,0,0,0,8.34,28l0,.07v.07q0,14.78,0,30.11v23.22a4.41,4.41,0,0,0,1.52,3.24,4.31,4.31,0,0,0,6.66-1.46,4.47,4.47,0,0,0,.36-2.06V423.14q0-8.67,0-17.21v-7.31s.15-.39.12-.28c.23-.26.44-.53.65-.81a23.94,23.94,0,0,0,2-3.64c.62-1.26,1.16-2.54,1.68-3.83A55.72,55.72,0,0,0,277.56,374c.24-2.72.18-5.45.19-8.17v-8.12q0-16.15,0-31.59c0-41.14,0-78.19.05-109.31s.07-56.29.09-73.7c-.11-4.32.49-8.32-1-11.38a13,13,0,0,0-10.64-7.47c-.59-.08-1,0-1.33-.06Z" style="fill:#263238"></path><rect x="263.93" y="137.98" width="2.27" height="301.15" style="fill:#e0e0e0"></rect><rect x="263.93" y="174.87" width="2.27" height="264.26" style="fill:#13D6D0"></rect><path d="M272.49,160.48a48.3,48.3,0,0,1-7.15.26,48.49,48.49,0,0,1-7.16-.26,50.2,50.2,0,0,1,7.16-.26A50,50,0,0,1,272.49,160.48Z" style="fill:#263238"></path><path d="M272.49,180.12a48.3,48.3,0,0,1-7.15.26,48.49,48.49,0,0,1-7.16-.26,50.2,50.2,0,0,1,7.16-.26A50,50,0,0,1,272.49,180.12Z" style="fill:#263238"></path><path d="M272.49,199.76a50,50,0,0,1-7.15.26,50.2,50.2,0,0,1-7.16-.26,50.2,50.2,0,0,1,7.16-.26A50,50,0,0,1,272.49,199.76Z" style="fill:#263238"></path><path d="M272.49,219.4a50,50,0,0,1-7.15.26,50.2,50.2,0,0,1-7.16-.26,48.49,48.49,0,0,1,7.16-.26A48.3,48.3,0,0,1,272.49,219.4Z" style="fill:#263238"></path><path d="M272.49,239a50,50,0,0,1-7.15.26,50.2,50.2,0,0,1-7.16-.26,48.49,48.49,0,0,1,7.16-.26A48.3,48.3,0,0,1,272.49,239Z" style="fill:#263238"></path><path d="M272.49,258.68a50,50,0,0,1-7.15.26,50.2,50.2,0,0,1-7.16-.26,47.61,47.61,0,0,1,7.16-.27A47.42,47.42,0,0,1,272.49,258.68Z" style="fill:#263238"></path><path d="M272.49,278.31a48.3,48.3,0,0,1-7.15.26,48.49,48.49,0,0,1-7.16-.26,50.2,50.2,0,0,1,7.16-.26A50,50,0,0,1,272.49,278.31Z" style="fill:#263238"></path><path d="M272.49,298a48.3,48.3,0,0,1-7.15.26,48.49,48.49,0,0,1-7.16-.26,50.2,50.2,0,0,1,7.16-.26A50,50,0,0,1,272.49,298Z" style="fill:#263238"></path><path d="M272.49,317.59a50,50,0,0,1-7.15.26,50.2,50.2,0,0,1-7.16-.26,50.2,50.2,0,0,1,7.16-.26A50,50,0,0,1,272.49,317.59Z" style="fill:#263238"></path><path d="M272.49,337.23a50,50,0,0,1-7.15.26,50.2,50.2,0,0,1-7.16-.26,48.49,48.49,0,0,1,7.16-.26A48.3,48.3,0,0,1,272.49,337.23Z" style="fill:#263238"></path><path d="M272.49,356.87a50,50,0,0,1-7.15.26,50.2,50.2,0,0,1-7.16-.26,48.49,48.49,0,0,1,7.16-.26A48.3,48.3,0,0,1,272.49,356.87Z" style="fill:#263238"></path><path d="M270,353.13a41.35,41.35,0,0,1-9.26,0,41.35,41.35,0,0,1,9.26,0Z" style="fill:#263238"></path><path d="M270,349.07a41.35,41.35,0,0,1-9.26,0,41.35,41.35,0,0,1,9.26,0Z" style="fill:#263238"></path><path d="M270,345a41.35,41.35,0,0,1-9.26,0,41.35,41.35,0,0,1,9.26,0Z" style="fill:#263238"></path><path d="M270,341a41.35,41.35,0,0,1-9.26,0,41.35,41.35,0,0,1,9.26,0Z" style="fill:#263238"></path><path d="M270,332.68a41.35,41.35,0,0,1-9.26,0,41.35,41.35,0,0,1,9.26,0Z" style="fill:#263238"></path><path d="M270,329.17a41.35,41.35,0,0,1-9.26,0,41.35,41.35,0,0,1,9.26,0Z" style="fill:#263238"></path><path d="M270,325.65a41.35,41.35,0,0,1-9.26,0,41.35,41.35,0,0,1,9.26,0Z" style="fill:#263238"></path><path d="M270,322.14a41.35,41.35,0,0,1-9.26,0,41.35,41.35,0,0,1,9.26,0Z" style="fill:#263238"></path><path d="M270,313a41.35,41.35,0,0,1-9.26,0,41.35,41.35,0,0,1,9.26,0Z" style="fill:#263238"></path><path d="M270,309.53a41.35,41.35,0,0,1-9.26,0,41.35,41.35,0,0,1,9.26,0Z" style="fill:#263238"></path><path d="M270,306a41.35,41.35,0,0,1-9.26,0,41.35,41.35,0,0,1,9.26,0Z" style="fill:#263238"></path><path d="M270,302.5a41.35,41.35,0,0,1-9.26,0,41.35,41.35,0,0,1,9.26,0Z" style="fill:#263238"></path><path d="M270,293.41a41.35,41.35,0,0,1-9.26,0,41.35,41.35,0,0,1,9.26,0Z" style="fill:#263238"></path><path d="M270,289.89a41.35,41.35,0,0,1-9.26,0,41.35,41.35,0,0,1,9.26,0Z" style="fill:#263238"></path><path d="M270,286.37a39.83,39.83,0,0,1-9.26,0,41.35,41.35,0,0,1,9.26,0Z" style="fill:#263238"></path><path d="M270,282.86a41.35,41.35,0,0,1-9.26,0,41.35,41.35,0,0,1,9.26,0Z" style="fill:#263238"></path><path d="M270,273.77a41.35,41.35,0,0,1-9.26,0,41.35,41.35,0,0,1,9.26,0Z" style="fill:#263238"></path><path d="M270,270.25a41.35,41.35,0,0,1-9.26,0,41.35,41.35,0,0,1,9.26,0Z" style="fill:#263238"></path><path d="M270,266.74a41.35,41.35,0,0,1-9.26,0,41.35,41.35,0,0,1,9.26,0Z" style="fill:#263238"></path><path d="M270,263.22a41.35,41.35,0,0,1-9.26,0,41.35,41.35,0,0,1,9.26,0Z" style="fill:#263238"></path><path d="M270,254.13a41.35,41.35,0,0,1-9.26,0,41.35,41.35,0,0,1,9.26,0Z" style="fill:#263238"></path><path d="M270,250.61a41.35,41.35,0,0,1-9.26,0,41.35,41.35,0,0,1,9.26,0Z" style="fill:#263238"></path><path d="M270,247.1a41.35,41.35,0,0,1-9.26,0,41.35,41.35,0,0,1,9.26,0Z" style="fill:#263238"></path><path d="M270,243.58a41.35,41.35,0,0,1-9.26,0,41.35,41.35,0,0,1,9.26,0Z" style="fill:#263238"></path><path d="M270,234.49a41.35,41.35,0,0,1-9.26,0,41.35,41.35,0,0,1,9.26,0Z" style="fill:#263238"></path><path d="M270,231a41.35,41.35,0,0,1-9.26,0,41.35,41.35,0,0,1,9.26,0Z" style="fill:#263238"></path><path d="M270,227.46a41.35,41.35,0,0,1-9.26,0,41.35,41.35,0,0,1,9.26,0Z" style="fill:#263238"></path><path d="M270,223.94a41.35,41.35,0,0,1-9.26,0,41.35,41.35,0,0,1,9.26,0Z" style="fill:#263238"></path><path d="M270,214.85a41.35,41.35,0,0,1-9.26,0,41.35,41.35,0,0,1,9.26,0Z" style="fill:#263238"></path><path d="M270,211.34a41.35,41.35,0,0,1-9.26,0,41.35,41.35,0,0,1,9.26,0Z" style="fill:#263238"></path><path d="M270,207.82a41.35,41.35,0,0,1-9.26,0,41.35,41.35,0,0,1,9.26,0Z" style="fill:#263238"></path><path d="M270,204.31a41.35,41.35,0,0,1-9.26,0,41.35,41.35,0,0,1,9.26,0Z" style="fill:#263238"></path><path d="M270,195.21a39.83,39.83,0,0,1-9.26,0,41.35,41.35,0,0,1,9.26,0Z" style="fill:#263238"></path><path d="M270,191.7a41.35,41.35,0,0,1-9.26,0,41.35,41.35,0,0,1,9.26,0Z" style="fill:#263238"></path><path d="M270,188.18a41.35,41.35,0,0,1-9.26,0,41.35,41.35,0,0,1,9.26,0Z" style="fill:#263238"></path><path d="M270,184.67a41.35,41.35,0,0,1-9.26,0,41.35,41.35,0,0,1,9.26,0Z" style="fill:#263238"></path><path d="M270,175.58a41.35,41.35,0,0,1-9.26,0,41.35,41.35,0,0,1,9.26,0Z" style="fill:#263238"></path><path d="M270,172.06a41.35,41.35,0,0,1-9.26,0,41.35,41.35,0,0,1,9.26,0Z" style="fill:#263238"></path><path d="M270,168.55a41.35,41.35,0,0,1-9.26,0,39.83,39.83,0,0,1,9.26,0Z" style="fill:#263238"></path><path d="M270,165a41.35,41.35,0,0,1-9.26,0,41.35,41.35,0,0,1,9.26,0Z" style="fill:#263238"></path><path d="M260.53,432.77v19.12a4.53,4.53,0,0,0,4.53,4.53h0a4.53,4.53,0,0,0,4.53-4.53V432.77Z" style="fill:#e0e0e0"></path><path d="M260.53,432.77a3,3,0,0,1,.59,0l1.78-.05,6.69-.1h.19v.19c0,2.8,0,6.1.05,9.76,0,1.84,0,3.77,0,5.76v3a5.16,5.16,0,0,1-.76,3.14,4.85,4.85,0,0,1-2.59,2A4.81,4.81,0,0,1,261,454.4a4.93,4.93,0,0,1-.7-2.84c0-3.69,0-7,.07-9.85s.07-5,.09-6.59c0-.72,0-1.3,0-1.76a2.27,2.27,0,0,1,0-.59,6.13,6.13,0,0,1,0,.66c0,.47,0,1.08,0,1.82,0,1.63.06,3.87.09,6.61s.05,6.07.08,9.71a4.28,4.28,0,0,0,7.88,2.63,4.6,4.6,0,0,0,.68-2.86c0-1,0-2,0-3,0-2,0-3.92,0-5.76,0-3.66,0-7,.06-9.76l.18.18-6.58-.1-1.82,0Z" style="fill:#263238"></path></g><g id="freepik--thermometer-2--inject-141"><path d="M241.94,106.76h152.4a29,29,0,0,0,29-29h0a29,29,0,0,0-29-29h-153c-38.45,0-54.92,14.75-54.92,14.75s-28.78,8.06-88.38,8.22V83.44s69.61-3,89.94,7.31C203.34,106.49,241.94,106.76,241.94,106.76Z" style="fill:#fff"></path><path d="M241.94,106.76a117.58,117.58,0,0,1-15-1.08,117.63,117.63,0,0,1-17.68-3.53,71.49,71.49,0,0,1-10.71-4,38.5,38.5,0,0,1-10.68-7.32l0,0a42.07,42.07,0,0,0-8.7-3c-3.1-.75-6.34-1.38-9.7-1.87C162.8,85,155.6,84.38,148,84c-15.18-.84-31.94-.94-49.95-.3h-.22V71.55h.21c13.47-.05,27.7-.48,42.52-1.65,7.41-.56,15-1.33,22.63-2.36a212,212,0,0,0,23.17-4.23l-.1.06a49.13,49.13,0,0,1,10.44-6.25,80.69,80.69,0,0,1,11.63-4.27,114.57,114.57,0,0,1,25-4.07c4.3-.2,8.63-.26,13-.24H390.78A47.16,47.16,0,0,1,399,49a32.12,32.12,0,0,1,4,.9,33.6,33.6,0,0,1,3.79,1.51,29.32,29.32,0,0,1,12,10.43,30.92,30.92,0,0,1,3.39,7.11,29.58,29.58,0,0,1,1.32,7.66,29.36,29.36,0,0,1-13.13,25.62,29.41,29.41,0,0,1-13.43,4.67c-2.36.16-4.67.12-7,.12H344.89l-75.33-.09-20.48,0-5.33,0-1.81,0s.61,0,1.81,0l5.33,0,20.48,0,75.33-.08,25,0H390c2.3,0,4.62,0,6.93-.13a28.41,28.41,0,0,0,18.7-9.33A28.33,28.33,0,0,0,423,76.58a29.08,29.08,0,0,0-1.3-7.54,30.94,30.94,0,0,0-3.34-7,29,29,0,0,0-11.8-10.25,32.36,32.36,0,0,0-3.72-1.48,31.14,31.14,0,0,0-3.94-.88,46,46,0,0,0-8.15-.4H246.36c-4.35,0-8.67,0-13,.23a114.07,114.07,0,0,0-24.93,4,79.7,79.7,0,0,0-11.56,4.24,48.45,48.45,0,0,0-10.31,6.16l-.06,0h0A213.18,213.18,0,0,1,163.26,68q-11.5,1.55-22.65,2.35c-14.84,1.17-29.08,1.58-42.55,1.62l.21-.22V83.44l-.22-.21c18-.62,34.78-.5,50,.36,7.59.44,14.8,1.09,21.54,2.1q5.07.75,9.73,1.9a42.5,42.5,0,0,1,8.76,3h0a38.14,38.14,0,0,0,10.58,7.29,72.29,72.29,0,0,0,10.66,4,120.61,120.61,0,0,0,17.64,3.6c4.85.62,8.6.9,11.12,1l2.87.13Z" style="fill:#263238"></path><path d="M243.91,77.78h0a13.85,13.85,0,0,1,13.86-13.86h46.36A13.86,13.86,0,0,1,318,77.78h0a13.86,13.86,0,0,1-13.86,13.85H257.77A13.85,13.85,0,0,1,243.91,77.78Z" style="fill:#263238"></path><g style="opacity:0.30000000000000004"><circle cx="346.2" cy="78.75" r="10.96" transform="translate(45.71 267.87) rotate(-45)" style="fill:#263238"></circle></g><circle cx="344.07" cy="77.78" r="10.96" style="fill:#13D6D0"></circle><path d="M62.74,77.74h0a6,6,0,0,1,6-6H99.06v12H68.72A6,6,0,0,1,62.74,77.74Z" style="fill:#e0e0e0"></path><path d="M62.74,77.74s0,.27.1.78a6.23,6.23,0,0,0,.74,2.1A6,6,0,0,0,66.14,83a5.81,5.81,0,0,0,2.11.57c.77,0,1.64,0,2.52,0l28.29-.08-.26.25v-12l.26.26-28.29-.09c-.88,0-1.75,0-2.52,0a5.72,5.72,0,0,0-2.12.56,6,6,0,0,0-2.55,2.37A6.12,6.12,0,0,0,62.84,77c-.07.51-.08.78-.1.78a3.64,3.64,0,0,1,0-.79,5.61,5.61,0,0,1,.67-2.17A6,6,0,0,1,66,72.26a5.93,5.93,0,0,1,2.21-.63c.83-.06,1.66,0,2.55,0l28.29-.09h.26V84h-.26L70.77,83.9c-.89,0-1.72,0-2.55-.05a5.93,5.93,0,0,1-2.2-.63,6.07,6.07,0,0,1-2.6-2.51,5.65,5.65,0,0,1-.67-2.18A3.64,3.64,0,0,1,62.74,77.74Z" style="fill:#263238"></path><path d="M398.87,53.32h0a29,29,0,0,1,29,29v19.93a0,0,0,0,1,0,0h-58a0,0,0,0,1,0,0V82.31A29,29,0,0,1,398.87,53.32Z" transform="translate(476.64 -321.09) rotate(90)" style="fill:#13D6D0"></path><path d="M279.43,77.58a2.43,2.43,0,0,1,.66,1.74,2.65,2.65,0,0,1-.4,1.44,2.82,2.82,0,0,1-1.21,1,4.68,4.68,0,0,1-2,.38,6.14,6.14,0,0,1-1.87-.28,4.58,4.58,0,0,1-1.53-.77l.72-1.3a3.82,3.82,0,0,0,1.2.65,4.45,4.45,0,0,0,1.45.24,2.34,2.34,0,0,0,1.41-.37,1.18,1.18,0,0,0,.51-1,1.15,1.15,0,0,0-.49-1,2.48,2.48,0,0,0-1.48-.36h-.83V76.84l2.06-2.45h-4.11V73h6.17v1.13l-2.2,2.61A3.07,3.07,0,0,1,279.43,77.58Z" style="fill:#fff"></path><path d="M286.91,76.79a2.59,2.59,0,0,1,1.11,1,2.65,2.65,0,0,1,.4,1.46,2.69,2.69,0,0,1-.44,1.55,2.91,2.91,0,0,1-1.19,1,3.83,3.83,0,0,1-1.68.36A3.68,3.68,0,0,1,282.22,81a4.87,4.87,0,0,1-1-3.34,5.65,5.65,0,0,1,.56-2.61,3.81,3.81,0,0,1,1.56-1.64,4.61,4.61,0,0,1,2.32-.57,5.47,5.47,0,0,1,1.31.15,3.58,3.58,0,0,1,1.07.44l-.62,1.26a3.11,3.11,0,0,0-1.72-.43,2.65,2.65,0,0,0-2.05.8,3.28,3.28,0,0,0-.73,2.31v0a2.44,2.44,0,0,1,1-.71,3.84,3.84,0,0,1,1.4-.24A3.76,3.76,0,0,1,286.91,76.79Zm-.61,3.64a1.52,1.52,0,0,0,0-2.24,2.24,2.24,0,0,0-2.64,0,1.47,1.47,0,0,0,0,2.21,2.05,2.05,0,0,0,1.38.43A1.9,1.9,0,0,0,286.3,80.43Z" style="fill:#fff"></path><path d="M290.12,76.31A2,2,0,0,1,289,74.46a2,2,0,0,1,.3-1.08,2.09,2.09,0,0,1,.85-.76,2.89,2.89,0,0,1,2.44,0,2.06,2.06,0,0,1,.84.76,2,2,0,0,1,.3,1.08,2,2,0,0,1-.3,1.09,2,2,0,0,1-.84.76,2.89,2.89,0,0,1-2.44,0Zm2.13-1a1.26,1.26,0,0,0,0-1.73,1.41,1.41,0,0,0-1.81,0,1.26,1.26,0,0,0,0,1.73,1.43,1.43,0,0,0,1.83,0Z" style="fill:#fff"></path><path d="M421.8,78.29c-.06,0,0-.84-.1-2.35a24.42,24.42,0,0,0-1.17-6.24,26.11,26.11,0,0,0-4.47-8.24,25.78,25.78,0,0,0-9-7.06A38.35,38.35,0,0,0,396,51.19a61,61,0,0,0-9.44-.59c-2.7,0-4.88.19-6.39.32l-1.73.15a2.56,2.56,0,0,1-.61,0,2.25,2.25,0,0,1,.59-.12c.4-.06,1-.17,1.73-.25a64.09,64.09,0,0,1,6.4-.48,57.35,57.35,0,0,1,9.52.48,37.66,37.66,0,0,1,11.22,3.21,25.66,25.66,0,0,1,13.59,15.66,22.74,22.74,0,0,1,1,6.34,14.63,14.63,0,0,1,0,1.75A3.27,3.27,0,0,1,421.8,78.29Z" style="fill:#263238"></path><g style="opacity:0.4"><path d="M419.39,83c-.66-1.76-3.26-1.92-4.81-.86s-2.4,2.84-3.49,4.36a19.44,19.44,0,0,1-9.63,6.67,49.21,49.21,0,0,1-11.7,2.1c-1.71.16-3.81.58-4.3,2.23a2.88,2.88,0,0,0,1.05,2.87,7,7,0,0,0,2.93,1.28A28.79,28.79,0,0,0,412.82,97a18.59,18.59,0,0,0,5.65-6.19,10.08,10.08,0,0,0,.92-7.86" style="fill:#fff"></path></g></g><g id="freepik--thermometer-1--inject-141"><path d="M141.44,308.65c-12.28-1.45-18.06-11.91-18.06-11.91l5.8-26.72.26-1.22s6,3.85,9.2,17.32S141.44,308.65,141.44,308.65Z" style="fill:#13D6D0"></path><path d="M64,139.26h95.23L187,148.78c18.28.78,20.11,11.82,20.73,28.44l7.55,103.25s12.38,54.78,12.22,84c-.18,33.42,2.59,77.11-17.07,81.81s-60.54,0-60.54,0-11.9-1.88-9.83-24,4.14-49.37,2.59-79S140.59,238.94,79,226.71l-8.28-3.29L50.56,172.17Z" style="fill:#f5f5f5"></path><path d="M227.51,364.47l-84.32-3a598.66,598.66,0,0,1-3.12,60.81c-2.07,22.09,9.83,24,9.83,24s40.88,4.71,60.54,0S227.33,397.89,227.51,364.47Z" style="fill:#13D6D0"></path><path d="M64,139.26s-17.1.58-18.53,14.83-.77,42.71,5.08,52.58c5.55,9.36,11.9,13.46,20.18,16.75L79,226.71s-16.44-20.61-18.4-39.78-.85-33.07,3.39-41c2.85-5.37,8.84-6.65,8.84-6.65Z" style="fill:#e0e0e0"></path><path d="M215.29,280.47s.19.74.53,2.18.82,3.61,1.45,6.43c1.23,5.65,3,14,4.88,24.85,1,5.41,1.93,11.45,2.84,18.08s1.72,13.86,2.25,21.66.42,16.16.56,25,.13,18.22-.43,28.05a146.86,146.86,0,0,1-1.59,15,54.87,54.87,0,0,1-4.5,15.12,21,21,0,0,1-4.89,6.52l-.79.67c-.28.21-.58.39-.87.58s-.58.39-.89.55l-1,.45a16.66,16.66,0,0,1-4,1.16,104,104,0,0,1-17,1.69,316.92,316.92,0,0,1-35.82-1.37l-4.61-.45-1.16-.12a4.68,4.68,0,0,1-1.18-.25,9.93,9.93,0,0,1-2.16-1A12.12,12.12,0,0,1,143.5,442a14.68,14.68,0,0,1-1.27-2c-.39-.7-.66-1.46-1-2.19a29.4,29.4,0,0,1-1.6-9.46c0-.8,0-1.61,0-2.42l.14-2.43c.07-1.62.28-3.22.41-4.84,1.18-12.94,2.14-26.23,2.55-39.83.21-6.79.28-13.67.18-20.6s-.44-13.94-.79-21c-.65-14.12-1.73-28.51-4.76-42.8a133.22,133.22,0,0,0-6.17-21.11,92.09,92.09,0,0,0-10.43-19.64c-.62-.88-1.31-1.72-2-2.57l-1-1.28c-.33-.42-.7-.81-1-1.22l-2.14-2.4-2.28-2.26-1.15-1.12-1.22-1-2.44-2.07-2.59-1.86-1.29-.93c-.44-.3-.9-.56-1.35-.84A69.82,69.82,0,0,0,79,227h0l-6.83-2.72a65.86,65.86,0,0,1-6.72-3,34.5,34.5,0,0,1-11.3-9.1,39.54,39.54,0,0,1-4-6,31.83,31.83,0,0,1-2.48-6.75,96.3,96.3,0,0,1-2.23-14A184.07,184.07,0,0,1,45,157.67a30,30,0,0,1,.93-6.78A14.12,14.12,0,0,1,49.33,145a18.07,18.07,0,0,1,5.58-3.8,26.83,26.83,0,0,1,6.41-1.9,35.84,35.84,0,0,1,6.61-.31h44.45l46.86,0h.07l27.76,9.54h0l2.08.17a15.87,15.87,0,0,1,2.06.25l2,.36,2,.56a16.23,16.23,0,0,1,6.85,4.18,17.5,17.5,0,0,1,3.83,6.83,43,43,0,0,1,1.48,7.49c.25,2.5.43,5,.52,7.4s.32,4.81.48,7.16l1,13.67c1.26,17.61,2.36,32.8,3.25,45.21s1.58,22.06,2,28.61c.23,3.27.4,5.76.52,7.45s.16,2.54.16,2.54-.08-.86-.22-2.53-.32-4.18-.57-7.44c-.49-6.55-1.21-16.19-2.14-28.6s-2.05-27.6-3.35-45.22q-.49-6.62-1-13.67c-.16-2.35-.39-4.74-.49-7.17s-.27-4.88-.52-7.37a43.71,43.71,0,0,0-1.48-7.42,17.05,17.05,0,0,0-3.76-6.69,15.79,15.79,0,0,0-6.7-4.07l-1.94-.55-2-.35a15.36,15.36,0,0,0-2-.25L187,149H187l-27.78-9.51.07,0H67.93a35.56,35.56,0,0,0-6.53.3c-4.27.75-8.61,2.39-11.72,5.57A13.61,13.61,0,0,0,46.35,151a30,30,0,0,0-.91,6.68,185.56,185.56,0,0,0,.38,27.66A95.92,95.92,0,0,0,48,199.3a31.09,31.09,0,0,0,2.44,6.64,38.78,38.78,0,0,0,4,5.91,34,34,0,0,0,11.14,9,66.34,66.34,0,0,0,6.67,2.93l6.83,2.72h0a70,70,0,0,1,23.49,9.19c.46.28.92.54,1.37.84l1.3.94,2.61,1.88,2.46,2.08,1.23,1.05,1.16,1.13,2.3,2.27,2.15,2.42c.36.41.73.8,1.07,1.23l1,1.29c.65.86,1.34,1.7,2,2.58a92.32,92.32,0,0,1,10.49,19.76,132.54,132.54,0,0,1,6.19,21.2c3,14.32,4.12,28.75,4.77,42.87.35,7.06.7,14.07.78,21s0,13.83-.18,20.63c-.42,13.61-1.39,26.91-2.57,39.85-.14,1.62-.34,3.24-.41,4.84l-.14,2.4c0,.8,0,1.6,0,2.4a28.87,28.87,0,0,0,1.56,9.31c.33.71.59,1.45,1,2.13a13.88,13.88,0,0,0,1.24,2,11.45,11.45,0,0,0,3.32,3.15,9.48,9.48,0,0,0,2.06,1,4.08,4.08,0,0,0,1.09.23l1.15.13,4.62.44a316,316,0,0,0,35.75,1.4,103.85,103.85,0,0,0,16.9-1.67,16.45,16.45,0,0,0,3.95-1.13l.92-.43c.3-.15.57-.36.86-.54a9.59,9.59,0,0,0,.85-.56l.78-.65a20.45,20.45,0,0,0,4.79-6.4,54.25,54.25,0,0,0,4.48-15,148.72,148.72,0,0,0,1.6-15c.57-9.81.53-19.18.47-28s0-17.22-.52-25-1.29-15-2.21-21.65S222.89,319.38,222,314c-1.87-10.83-3.58-19.2-4.78-24.86S215.36,280.82,215.29,280.47Z" style="fill:#263238"></path><path d="M159.24,139.26s-18.53,2.78-14.92,30.35,20.66,73.23,34.36,97.18c12.15,21.25,16.72,25,36.61,27.86l9-8.82s0-29.27-2.08-64.88c-2.1-35.86,7.4-75.75-33-80.46Z" style="fill:#13D6D0"></path><polygon points="173.26 154.78 181.39 204.53 211.3 204.53 202.38 155.93 173.26 154.78" style="fill:#263238"></polygon><path d="M224.24,285.83s-.15.05-.46.12l-1.37.31a34.51,34.51,0,0,1-5.35.69,23.69,23.69,0,0,1-8.46-1.15,28.34,28.34,0,0,1-9.68-5.8,62.12,62.12,0,0,1-9.09-10.27c-.36-.5-.74-1-1.09-1.51l-1-1.59c-.69-1.07-1.44-2.13-2.11-3.26-1.32-2.28-2.73-4.59-4-7.06a242.66,242.66,0,0,1-14.06-33.18,330.34,330.34,0,0,1-9.94-34.64c-1.16-5.42-2.22-10.58-2.87-15.47l-.27-1.82c0-.6-.1-1.2-.16-1.8-.08-1.19-.22-2.35-.25-3.5s0-2.27.06-3.37a9.86,9.86,0,0,1,.13-1.63l.21-1.58a26.57,26.57,0,0,1,3.82-10.61,21,21,0,0,1,6-6.06,21.46,21.46,0,0,1,4.82-2.43,13.59,13.59,0,0,1,1.35-.39,2.83,2.83,0,0,1,.47-.09l-.46.14c-.3.08-.74.24-1.32.44a22.39,22.39,0,0,0-4.74,2.5,20.73,20.73,0,0,0-5.86,6.05,26.25,26.25,0,0,0-3.7,10.5c-.07.52-.13,1-.2,1.57a8.6,8.6,0,0,0-.12,1.61c0,1.09,0,2.21-.05,3.34s.18,2.29.27,3.47c0,.59.11,1.19.16,1.79s.18,1.2.27,1.8c.67,4.88,1.75,10,2.92,15.43a332.41,332.41,0,0,0,10,34.58,245.06,245.06,0,0,0,14,33.12c1.24,2.48,2.64,4.78,3.94,7.05.66,1.13,1.4,2.19,2.09,3.26l1,1.58c.35.51.72,1,1.08,1.51a62.39,62.39,0,0,0,9,10.24,28.42,28.42,0,0,0,9.53,5.81,24.25,24.25,0,0,0,8.36,1.22,38.82,38.82,0,0,0,5.34-.59l1.38-.26A4.14,4.14,0,0,1,224.24,285.83Z" style="fill:#263238"></path><g style="opacity:0.30000000000000004"><path d="M189,268.26c-15.82-22.6-30.74-69.6-34.35-97.18s16.24-31.34,16.24-31.34h0l-11.68-.48s-18.53,2.78-14.92,30.35,20.66,73.23,34.36,97.18c12.15,21.25,16.72,25,36.61,27.86l9-8.82C211.27,288.91,201.29,285.78,189,268.26Z"></path></g><g style="opacity:0.30000000000000004"><polygon points="202.38 155.93 205.66 155.93 214.6 204.53 211.3 204.53 202.38 155.93"></polygon></g><path d="M147,428.31a1.5,1.5,0,0,1,0-.31l0-.91c0-.84.08-2,.15-3.49.13-3,.38-7.42.7-12.84.63-10.83,1.7-25.79,2.22-42.33.24-8.28.24-16.16.07-23.33-.13-3.59-.23-7-.45-10.17s-.43-6.15-.66-8.85-.53-5.13-.76-7.28-.48-4-.69-5.48-.36-2.63-.47-3.46c-.05-.37-.08-.67-.11-.9a1.45,1.45,0,0,1,0-.31,1.48,1.48,0,0,1,.07.3c0,.23.1.52.16.89q.21,1.25.57,3.45c.25,1.5.54,3.34.78,5.48s.62,4.57.84,7.28.54,5.66.72,8.85.36,6.6.49,10.18c.21,7.18.22,15.08,0,23.36-.52,16.56-1.65,31.52-2.37,42.35-.37,5.38-.66,9.75-.87,12.82-.11,1.48-.19,2.65-.25,3.48,0,.38-.06.68-.08.91A1.61,1.61,0,0,1,147,428.31Z" style="fill:#263238"></path><g style="opacity:0.30000000000000004"><path d="M129.38,269.51l3,36.1s5,3,9,3l-2.69-12.74S133.69,277.15,129.38,269.51Z"></path></g><path d="M188.85,179.61a2.53,2.53,0,0,1,.68,1.79,2.79,2.79,0,0,1-.41,1.48,2.85,2.85,0,0,1-1.25,1.05,4.55,4.55,0,0,1-2,.4,6.42,6.42,0,0,1-1.92-.29,4.88,4.88,0,0,1-1.58-.79l.75-1.34a3.72,3.72,0,0,0,1.23.67,4.71,4.71,0,0,0,1.49.25,2.44,2.44,0,0,0,1.44-.38,1.22,1.22,0,0,0,.53-1,1.19,1.19,0,0,0-.5-1,2.6,2.6,0,0,0-1.52-.36h-.85v-1.19l2.11-2.51h-4.22V174.9h6.33v1.15l-2.26,2.68A3.15,3.15,0,0,1,188.85,179.61Z" style="fill:#fff"></path><path d="M196.53,178.81a2.71,2.71,0,0,1,1.14,1,2.76,2.76,0,0,1,.41,1.5,2.85,2.85,0,0,1-.45,1.59,3,3,0,0,1-1.22,1,3.92,3.92,0,0,1-1.73.38,3.76,3.76,0,0,1-3-1.2,5,5,0,0,1-1.05-3.43,5.78,5.78,0,0,1,.57-2.67,4,4,0,0,1,1.6-1.69,4.72,4.72,0,0,1,2.38-.58,5.32,5.32,0,0,1,1.35.16,3.78,3.78,0,0,1,1.1.44l-.64,1.3a3.18,3.18,0,0,0-1.77-.45,2.72,2.72,0,0,0-2.1.82,3.43,3.43,0,0,0-.75,2.38h0a2.56,2.56,0,0,1,1-.72,4,4,0,0,1,1.43-.25A3.7,3.7,0,0,1,196.53,178.81Zm-.63,3.73a1.43,1.43,0,0,0,.51-1.15,1.41,1.41,0,0,0-.51-1.15,2,2,0,0,0-1.35-.43,2,2,0,0,0-1.36.45,1.5,1.5,0,0,0,0,2.27,2.13,2.13,0,0,0,1.42.44A1.92,1.92,0,0,0,195.9,182.54Z" style="fill:#fff"></path><path d="M199.82,178.31a2.2,2.2,0,0,1-.87-.78,2.16,2.16,0,0,1,0-2.23,2.2,2.2,0,0,1,.87-.78,2.83,2.83,0,0,1,1.25-.28,2.77,2.77,0,0,1,1.25.28,2.2,2.2,0,0,1,.87.78,2.16,2.16,0,0,1,0,2.23,2.2,2.2,0,0,1-.87.78,2.77,2.77,0,0,1-1.25.28A2.83,2.83,0,0,1,199.82,178.31Zm2.19-1a1.22,1.22,0,0,0,.35-.9,1.15,1.15,0,0,0-.36-.88,1.44,1.44,0,0,0-1.86,0,1.15,1.15,0,0,0-.36.88,1.22,1.22,0,0,0,.35.9,1.5,1.5,0,0,0,1.88,0Z" style="fill:#fff"></path><path d="M204,232.89H191.49a8,8,0,0,1-8-8h0a8,8,0,0,1,8-8H204a8,8,0,0,1,8,8h0A8,8,0,0,1,204,232.89Z" style="fill:#13D6D0"></path><path d="M204,232.89a10.65,10.65,0,0,0,2.85-.64,8.05,8.05,0,0,0,2.79-1.91A7.78,7.78,0,0,0,206,217.46a12.7,12.7,0,0,0-3.36-.26H191.49a7.74,7.74,0,0,0-3.75,14.49,7.83,7.83,0,0,0,2.65.89,19.67,19.67,0,0,0,2.64.1l8.05.09,2.19.05a3.44,3.44,0,0,1,.76,0,4.48,4.48,0,0,1-.76.05l-2.19.05-8.05.08a20.57,20.57,0,0,1-2.69-.07,8.12,8.12,0,0,1-6.76-5.93,8.2,8.2,0,0,1,1.22-6.92,8.23,8.23,0,0,1,6.69-3.45h11.17a12.78,12.78,0,0,1,3.49.29,8.14,8.14,0,0,1,3.73,13.54,7.86,7.86,0,0,1-5.08,2.36A4.08,4.08,0,0,1,204,232.89Z" style="fill:#263238"></path><g style="opacity:0.30000000000000004"><path d="M204,232.89H191.43a8,8,0,0,1-8-8h0a8,8,0,0,1,8-8H204a8,8,0,0,1,8,8h0A8,8,0,0,1,204,232.89Z"></path></g><path d="M209.75,232.89H197.21a8,8,0,0,1-8-8h0a8,8,0,0,1,8-8h12.54a8,8,0,0,1,8,8h0A8,8,0,0,1,209.75,232.89Z" style="fill:#13D6D0"></path><path d="M209.75,232.89a10.63,10.63,0,0,0,2.84-.64,7.82,7.82,0,0,0,3.92-11.1,7.73,7.73,0,0,0-4.77-3.69,12.7,12.7,0,0,0-3.36-.26H197.21a7.74,7.74,0,0,0-3.75,14.49,7.83,7.83,0,0,0,2.65.89,19.67,19.67,0,0,0,2.64.1l8.05.09,2.19.05a3.44,3.44,0,0,1,.76,0,4.48,4.48,0,0,1-.76.05l-2.19.05-8.05.08a20.57,20.57,0,0,1-2.69-.07,8,8,0,0,1-2.81-.92,8.18,8.18,0,0,1-2.73-11.93,8.19,8.19,0,0,1,6.69-3.45h11.17a12.71,12.71,0,0,1,3.48.29,8.15,8.15,0,0,1,5.89,9.45,7.94,7.94,0,0,1-7.23,6.45A4.08,4.08,0,0,1,209.75,232.89Z" style="fill:#263238"></path></g></svg>