<svg xmlns="http://www.w3.org/2000/svg" viewBox="0 0 500 500"><g id="freepik--background-complete--inject-221"><rect x="281.1" y="72.84" width="184.52" height="342.96" style="fill:#dbdbdb"></rect><rect x="296.9" y="90.22" width="152.92" height="195.36" style="fill:#fff"></rect><rect x="296.9" y="161.01" width="152.92" height="2.37" style="fill:#c7c7c7"></rect><rect x="296.9" y="222.11" width="152.92" height="2.37" style="fill:#c7c7c7"></rect><rect x="296.9" y="283.21" width="152.92" height="2.37" style="fill:#c7c7c7"></rect><rect x="371.6" y="90.22" width="3.52" height="192.99" style="fill:#ebebeb"></rect><rect x="378.53" y="191.95" width="18.12" height="30.16" transform="translate(775.17 414.05) rotate(180)" style="fill:#ebebeb"></rect><rect x="376.04" y="186.82" width="23.09" height="5.13" transform="translate(775.17 378.76) rotate(180)" style="fill:#dbdbdb"></rect><rect x="380.85" y="198.58" width="13.47" height="18.6" transform="translate(775.17 415.77) rotate(180)" style="fill:#c7c7c7"></rect><rect x="402.95" y="191.95" width="18.12" height="30.16" transform="translate(824.01 414.05) rotate(180)" style="fill:#ebebeb"></rect><rect x="400.46" y="186.82" width="23.09" height="5.13" transform="translate(824.01 378.76) rotate(180)" style="fill:#dbdbdb"></rect><rect x="405.27" y="198.58" width="13.47" height="18.6" transform="translate(824.01 415.77) rotate(180)" style="fill:#c7c7c7"></rect><rect x="427.37" y="191.95" width="18.12" height="30.16" transform="translate(872.85 414.05) rotate(180)" style="fill:#ebebeb"></rect><rect x="424.88" y="186.82" width="23.09" height="5.13" transform="translate(872.85 378.76) rotate(180)" style="fill:#dbdbdb"></rect><rect x="429.69" y="198.58" width="13.47" height="18.6" transform="translate(872.85 415.77) rotate(180)" style="fill:#c7c7c7"></rect><path d="M300.06,250.64h24a0,0,0,0,1,0,0V277.9a5.31,5.31,0,0,1-5.31,5.31h-13.4a5.31,5.31,0,0,1-5.31-5.31V250.64A0,0,0,0,1,300.06,250.64Z" transform="translate(624.13 533.85) rotate(180)" style="fill:#ebebeb"></path><rect x="305.11" y="247.42" width="13.92" height="3.32" transform="translate(624.13 498.16) rotate(180)" style="fill:#ebebeb"></rect><rect x="301.56" y="243.88" width="21.01" height="3.55" transform="translate(624.13 491.3) rotate(180)" style="fill:#dbdbdb"></rect><rect x="303.91" y="258.53" width="20.17" height="17.58" transform="translate(627.98 534.64) rotate(180)" style="fill:#c7c7c7"></rect><path d="M326.91,250.64h24a0,0,0,0,1,0,0V277.9a5.31,5.31,0,0,1-5.31,5.31h-13.4a5.31,5.31,0,0,1-5.31-5.31V250.64A0,0,0,0,1,326.91,250.64Z" transform="translate(677.83 533.85) rotate(180)" style="fill:#ebebeb"></path><rect x="331.95" y="247.42" width="13.92" height="3.32" transform="translate(677.83 498.16) rotate(180)" style="fill:#ebebeb"></rect><rect x="328.41" y="243.88" width="21.01" height="3.55" transform="translate(677.83 491.3) rotate(180)" style="fill:#dbdbdb"></rect><rect x="330.76" y="258.53" width="20.17" height="17.58" transform="translate(681.68 534.64) rotate(180)" style="fill:#c7c7c7"></rect><rect x="377.48" y="122.34" width="30.1" height="38.93" transform="translate(785.06 283.61) rotate(180)" style="fill:#ebebeb"></rect><polygon points="377.48 122.34 407.58 122.34 401.8 114.4 383.25 114.4 377.48 122.34" style="fill:#ebebeb"></polygon><rect x="379.82" y="106.68" width="25.42" height="7.72" transform="translate(785.06 221.07) rotate(180)" style="fill:#c7c7c7"></rect><rect x="381.78" y="131" width="25.8" height="17.5" transform="translate(789.35 279.5) rotate(180)" style="fill:#dbdbdb"></rect><rect x="409.83" y="122.34" width="30.1" height="38.93" transform="translate(849.76 283.61) rotate(180)" style="fill:#ebebeb"></rect><polygon points="409.83 122.34 439.93 122.34 434.15 114.4 415.61 114.4 409.83 122.34" style="fill:#ebebeb"></polygon><rect x="412.17" y="106.68" width="25.42" height="7.72" transform="translate(849.76 221.07) rotate(180)" style="fill:#c7c7c7"></rect><rect x="414.13" y="131" width="25.8" height="17.5" transform="translate(854.06 279.5) rotate(180)" style="fill:#dbdbdb"></rect><path d="M361.12,161H307.18a5.62,5.62,0,0,1-5.62-5.62h0a5.62,5.62,0,0,1,5.62-5.62h53.94a5.62,5.62,0,0,1,5.61,5.62h0A5.62,5.62,0,0,1,361.12,161Z" style="fill:#dbdbdb"></path><path d="M361.12,149H307.18a5.62,5.62,0,0,1-5.62-5.61h0a5.62,5.62,0,0,1,5.62-5.62h53.94a5.62,5.62,0,0,1,5.61,5.62h0A5.61,5.61,0,0,1,361.12,149Z" style="fill:#dbdbdb"></path><path d="M360.18,137.08H308.11a4,4,0,0,1-4-4h0a4,4,0,0,1,4-4h52.07a4,4,0,0,1,4,4h0A4,4,0,0,1,360.18,137.08Z" style="fill:#ebebeb"></path><path d="M360.18,128.3H308.11a4,4,0,0,1-4-4h0a4,4,0,0,1,4-4h52.07a4,4,0,0,1,4,4h0A4,4,0,0,1,360.18,128.3Z" style="fill:#ebebeb"></path><path d="M449.82,328.78l-76.34.28-76.58.16h-.44v-.44l-.06-33.73v-.5h.5l76.46.14,76.46.19H450v.17Zm0,0-.17-33.73.17.18-76.46.19-76.46.13.5-.5-.06,33.73-.44-.43,76.35.16Z" style="fill:#c7c7c7"></path><rect x="358.98" y="309.33" width="28.76" height="4.82" style="fill:#c7c7c7"></rect><path d="M449.82,370.5l-76.34.28-76.58.16h-.44v-.44l-.06-33.73v-.5h.5l76.46.14,76.46.19H450v.17Zm0,0-.17-33.73.17.18-76.46.19-76.46.13.5-.5-.06,33.73-.44-.43,76.35.16Z" style="fill:#c7c7c7"></path><rect x="358.98" y="351.05" width="28.76" height="4.82" style="fill:#c7c7c7"></rect><path d="M449.82,412.22l-76.34.28-76.58.16h-.44v-.44l-.06-33.73V378h.5l76.46.14,76.46.18H450v.17Zm0,0-.17-33.73.17.18-76.46.18L296.9,379l.5-.5-.06,33.73-.44-.43,76.35.16Z" style="fill:#c7c7c7"></path><rect x="358.98" y="392.77" width="28.76" height="4.82" style="fill:#c7c7c7"></rect><rect x="61.19" y="72.17" width="81.91" height="99.36" style="fill:#ebebeb"></rect><rect x="70.55" y="81.23" width="63.19" height="81.22" style="fill:#fff"></rect><rect x="70.55" y="81.23" width="2.47" height="81.22" style="fill:#dbdbdb"></rect><rect x="143.1" y="72.17" width="2.47" height="99.36" style="fill:#dbdbdb"></rect><rect x="91.72" y="92.43" width="14.9" height="44.39" style="fill:#dbdbdb"></rect><path d="M125.46,144.91H84.72V122.16h40.74Zm-39.74-1h38.74V123.16H85.72Z" style="fill:#ebebeb"></path><rect x="166.55" y="145.19" width="81.91" height="99.36" style="fill:#ebebeb"></rect><rect x="175.91" y="154.26" width="63.19" height="81.22" style="fill:#fff"></rect><rect x="175.91" y="154.26" width="2.47" height="81.22" style="fill:#dbdbdb"></rect><rect x="248.47" y="145.19" width="2.47" height="99.36" style="fill:#dbdbdb"></rect><rect x="201.39" y="175.25" width="12.77" height="32.28" style="fill:#ebebeb"></rect><path d="M228.1,217.62H192.8V194.37h35.3Zm-34.3-1h33.3V195.37H193.8Z" style="fill:#dbdbdb"></path></g><g id="freepik--Shadow--inject-221"><ellipse cx="250" cy="433.65" rx="160.77" ry="10.49" style="fill:#ebebeb"></ellipse></g><g id="freepik--Plant--inject-221"><path d="M431.46,353.14s17.07-3.87,26.43-12.49,14.58-24.07,14.58-24.07a146.73,146.73,0,0,0-19.15,5,32.65,32.65,0,0,0-5.79,8.19,38.48,38.48,0,0,1,0-5.85,25.66,25.66,0,0,0-6.08,3.69C433.65,334.43,431.46,353.14,431.46,353.14Z" style="fill:#93D6D0"></path><path d="M461.81,324.09c2.33-1.61,4.7-3.16,7-4.79a.14.14,0,0,0-.15-.23c-4.39,2.63-8.73,5.44-12.93,8.38q-2.19,1.55-4.32,3.18l.3-.5c.51-.86,1-1.7,1.59-2.54a35.74,35.74,0,0,1,3.63-4.84c.05-.06,0-.14-.09-.08-1.32,1.53-2.65,3.05-3.87,4.67q-.86,1.17-1.62,2.4c-.26.42-.52.85-.77,1.29l-.25.44c-2.21,1.73-4.36,3.54-6.41,5.45q-1.9,1.77-3.67,3.66c.66-2.06,1.24-4.15,2-6.19,0-.07-.08-.1-.11,0-.74,2.13-1.56,4.27-2.13,6.47-1.31,1.41-2.56,2.87-3.74,4.4l.06-.28c.2-.81.4-1.61.61-2.41.42-1.54.87-3.08,1.39-4.59a26.73,26.73,0,0,1,4.59-8.66c.05-.06,0-.14-.08-.08a33.27,33.27,0,0,0-6.54,13.65c-.18.73-.36,1.46-.52,2.19-.09.39-.19.78-.26,1.18-.51.7-1,1.4-1.51,2.12a74.13,74.13,0,0,0-7.22,14.17,164.35,164.35,0,0,0-5.47,17.06c0,.11.14.15.17,0,3.34-10,6.75-20.12,12.47-29.05,1.21-1.89,2.51-3.7,3.9-5.46a31.76,31.76,0,0,0,8.3-1.65,36.72,36.72,0,0,0,8.32-4,51.14,51.14,0,0,0,4.26-3.22.06.06,0,1,0-.07-.09,34,34,0,0,1-7.82,4.73,42.42,42.42,0,0,1-8.62,2.89c-1.26.28-2.53.48-3.81.65a71.61,71.61,0,0,1,5-5.57c.58-.58,1.17-1.13,1.77-1.68a39.48,39.48,0,0,1,6.31-3.62c2.79-1.35,5.55-2.78,8.32-4.19,1.56-.8,3.11-1.61,4.69-2.38.06,0,0-.13-.07-.1-2.8,1.36-5.65,2.62-8.48,3.92-2.67,1.22-5.37,2.45-7.92,3.89l-.33.19c2.32-2,4.71-3.93,7.16-5.78C457.18,327.38,459.48,325.7,461.81,324.09Z" style="fill:#263238"></path><path d="M460.84,332.89c-1.39.61-2.8,1.15-4.18,1.79s-2.75,1.44-4.09,2.23a.05.05,0,0,0,.05.09c1.37-.65,2.74-1.26,4.09-1.94s2.75-1.44,4.16-2.06C460.94,333,460.91,332.86,460.84,332.89Z" style="fill:#263238"></path><path d="M376,267.1a24.38,24.38,0,0,1,5.11,14.18c0,1.53-.19,3.67-.37,6.18A40.45,40.45,0,0,1,391.87,297a20.24,20.24,0,0,0-11.25-2.7,33.24,33.24,0,0,0,.65,5.11,19.14,19.14,0,0,1,7.24,1.43,16.06,16.06,0,0,0-6.53,1.3c3,9.68,12.09,19.62,37.07,23.85a52.42,52.42,0,0,0-4.42-35.15C407.14,276.09,376,267.1,376,267.1Z" style="fill:#93D6D0"></path><path d="M427.7,367.4q-.66-6.21-1.62-12.37a248.41,248.41,0,0,0-5-24.46,97.78,97.78,0,0,0-3.61-11.14,16.64,16.64,0,0,0,.1-2c0-.8,0-1.6,0-2.4,0-1.6-.09-3.19-.23-4.79a58.3,58.3,0,0,0-1.53-9.37c-.46-1.77-1-3.53-1.51-5.29a.06.06,0,0,0-.12,0A67.37,67.37,0,0,1,416,305a89.28,89.28,0,0,1,.84,9.38c0,.86.05,1.72.05,2.58,0,.36,0,.73,0,1.1a81.09,81.09,0,0,0-4.21-8.71,106.4,106.4,0,0,0-8.55-12.8,5,5,0,0,0-.21-1.39c-.11-.56-.24-1.12-.36-1.67-.26-1.15-.54-2.28-.85-3.41-.62-2.26-1.44-4.45-2.15-6.68a.06.06,0,1,0-.11,0c.66,2.21,1.1,4.5,1.6,6.76.25,1.11.5,2.23.74,3.34l.36,1.67s0,.09,0,.13q-1.51-1.91-3.09-3.77c-4.77-5.59-10-10.75-15.27-15.87-.64-.63-1.31-1.25-2-1.87-.06,0-.14,0-.08.08,5,5.25,10,10.56,14.67,16.12,1.12,1.32,2.21,2.65,3.29,4-.57-.39-1.14-.76-1.7-1.13-1.46-.95-2.93-1.88-4.44-2.73s-3.05-1.68-4.6-2.45-3.32-1.44-4.86-2.34c-.07,0-.13.08-.06.1A36.93,36.93,0,0,1,389.6,288c1.52.9,3,1.81,4.53,2.76s2.94,1.85,4.4,2.79c1.22.79,2.41,1.66,3.67,2.38a120.22,120.22,0,0,1,8,11.65,85.12,85.12,0,0,1,4.13,7.85l-.89-.39-2.29-1-4.42-1.93c-2.8-1.21-5.65-2.33-8.39-3.67a38.54,38.54,0,0,1-4.49-2.49c-.06,0-.12.06-.05.1,5.12,3.53,10.86,6,16.53,8.53l2.46,1.09c.67.29,1.35.63,2,.89a86,86,0,0,1,4.23,11.58,234.84,234.84,0,0,1,5.43,24.16c1.44,8.16,2.4,16.37,3.15,24.62.1,1,.19,2.06.31,3.09a.33.33,0,0,0,.65,0C428.56,375.75,428.13,371.56,427.7,367.4Z" style="fill:#263238"></path><path d="M412.5,298.41c-.46-2.54-1.14-5-1.82-7.51,0-.07-.13,0-.11,0,.63,2.44,1.08,4.93,1.54,7.4s.88,5.06,1.24,7.61c0,0,.07,0,.07,0A68.47,68.47,0,0,0,412.5,298.41Z" style="fill:#263238"></path><path d="M401.73,305.3a44.49,44.49,0,0,0-5.43-3.06c-.91-.47-1.83-.91-2.75-1.36s-1.94-.85-2.89-1.32c-.06,0-.12.07-.05.1.91.46,1.78,1,2.67,1.5l2.78,1.52a61.71,61.71,0,0,0,5.54,2.86A.14.14,0,0,0,401.73,305.3Z" style="fill:#263238"></path><path d="M431.77,323.57s15.79-3.77,23.05-14.37c6.93-10.12,9.16-27.38,9.34-28.89-.28,1.39-3.54,16.47-14.3,23.49C441.63,309.18,433.67,313.61,431.77,323.57Z" style="fill:#263238;opacity:0.1"></path><path d="M446.35,296.27a20.22,20.22,0,0,0-5.83,9.6s0,.05.05,0a23.66,23.66,0,0,1,5.85-9.52C446.48,296.31,446.4,296.22,446.35,296.27Z" style="fill:#263238"></path><path d="M431.77,323.57s15.79-3.77,23.05-14.37c6.93-10.12,9.16-27.38,9.34-28.89a.54.54,0,0,0,0-.11s-7.57,10.77-15.54,13.52S429.48,306,431.77,323.57Z" style="fill:#93D6D0"></path><path d="M461.38,286.14a64.55,64.55,0,0,1-4.88,8.35,33.51,33.51,0,0,1-6.5,6.69c-2.15,1.7-4.42,3.25-6.59,4.92a.56.56,0,0,1,0-.08c.41-.61.84-1.19,1.29-1.77.91-1.15,1.9-2.25,2.89-3.32,2-2.13,4-4.22,5.73-6.53a24.54,24.54,0,0,0,2.53-4.08c0-.07-.08-.1-.11,0-2.56,5.34-7.68,8.76-11.33,13.27a23.62,23.62,0,0,0-1.46,2,8.46,8.46,0,0,0-.91,1.61,33.08,33.08,0,0,0-5.39,5.45,21.18,21.18,0,0,1,.64-3.07,15.41,15.41,0,0,1,1.67-4c0-.06-.06-.13-.1-.06a18.6,18.6,0,0,0-1.84,4,13.82,13.82,0,0,0-.57,3.41h0a32.33,32.33,0,0,0-2.14,3.32c.07-.34.13-.67.2-1,.31-1.57.66-3.14,1.07-4.7a28.31,28.31,0,0,1,3.8-8.9c0-.06-.06-.12-.1-.06a33.87,33.87,0,0,0-4.21,8.71c-.5,1.55-.91,3.12-1.26,4.71q-.25,1.17-.48,2.34c-.08.41-.16.82-.23,1.24a56.58,56.58,0,0,0-3.64,10.71,156.78,156.78,0,0,0-3.37,20A165.24,165.24,0,0,0,425,370.4c0,.89.06,1.78.11,2.67,0,.23.36.26.37,0,.15-3.51.25-7,.45-10.52s.52-7,.89-10.5a187.89,187.89,0,0,1,3.29-20.42c1.28-5.78,3-11.59,6.1-16.65a31.39,31.39,0,0,1,5.7-6.78c2.22-2,4.64-3.73,7-5.57a38,38,0,0,0,6.4-6.15,50.9,50.9,0,0,0,5-8.15c.37-.72.75-1.43,1.13-2.15C461.51,286.14,461.41,286.07,461.38,286.14Z" style="fill:#263238"></path><path d="M458.65,288.46a52.77,52.77,0,0,1-3.52,6.15c0,.05,0,.09.08.05a42.89,42.89,0,0,0,3.55-6.17C458.8,288.43,458.69,288.39,458.65,288.46Z" style="fill:#263238"></path><path d="M373.79,316.58S373.54,339,387,345.51s20.62,1.09,29.74,3.26h0c-.35-.54-6.86-9.9-17.22-12.47C388.82,333.63,377,325.94,373.79,316.58Z" style="fill:#93D6D0"></path><path d="M373.79,316.58S373.54,339,387,345.51s20.62,1.09,29.74,3.26h0a50.64,50.64,0,0,0-15.26-4.51C393,343.24,376.79,337.72,373.79,316.58Z" style="opacity:0.1"></path><path d="M417.59,349.17a22.25,22.25,0,0,0-5.34-3.62c-.28-.14-.58-.25-.87-.37l-.45-.52c-.41-.42-.83-.82-1.27-1.2a19.31,19.31,0,0,0-2.7-1.95c-2.22-1.3-4.66-2.22-6.93-3.43a.06.06,0,1,0-.06.1c1.12.58,2.21,1.23,3.31,1.86s2.15,1.22,3.18,1.89a22.46,22.46,0,0,1,2.66,2c.24.2.46.43.69.66a35.3,35.3,0,0,0-4.54-1.21c-2.46-.5-4.94-.85-7.39-1.37a35.19,35.19,0,0,1-3.56-1c-1.12-.9-2.23-1.79-3.29-2.76a27.57,27.57,0,0,1-3.47-3.85c0-.06-.14,0-.09.06a40.55,40.55,0,0,0,5.5,6.07c-.58-.22-1.15-.45-1.72-.71a27.71,27.71,0,0,1-11.44-9.51c0-.07-.14,0-.1.06a31.49,31.49,0,0,0,9.26,8.88,28,28,0,0,0,5.85,2.77,54.34,54.34,0,0,0,7.26,1.72,49.79,49.79,0,0,1,7.12,1.69,21.4,21.4,0,0,1,6,3.14,27.88,27.88,0,0,1,8,10A50.29,50.29,0,0,1,427.64,375c0,.24.4.24.38,0C427.39,365.54,424.87,355.72,417.59,349.17Z" style="fill:#263238"></path><path d="M402,341.85a7.74,7.74,0,0,0-2.76-2.51,10.23,10.23,0,0,1-3.28-2.71c0-.06-.14,0-.1.06a11.24,11.24,0,0,0,2.9,2.6,10.09,10.09,0,0,1,3.16,2.61C402,342,402.05,341.9,402,341.85Z" style="fill:#263238"></path><polygon points="409.14 365.74 409.75 378.08 411.62 415.8 439.78 415.8 441.65 378.08 442.26 365.74 409.14 365.74" style="fill:#455a64"></polygon><polygon points="409.14 365.74 409.75 378.08 441.65 378.08 442.26 365.74 409.14 365.74" style="fill:#263238"></polygon><rect x="407.16" y="360.58" width="37.08" height="11.78" transform="translate(851.4 732.95) rotate(180)" style="fill:#455a64"></rect></g><g id="freepik--Chair--inject-221"><polygon points="43.18 415.82 176.94 415.82 150.27 260.69 50.25 260.69 43.18 415.82" style="fill:#dbdbdb"></polygon><polygon points="43.18 415.82 54.91 415.82 61.49 260.69 50.25 260.69 43.18 415.82" style="fill:#a6a6a6"></polygon></g><g id="freepik--Character--inject-221"><path d="M135.38,170.81c-2.56.36-13.77-.83-21.14,9.41-7,9.7-9.17,39-10.62,45.4s-9.81,7.43-11.71,14.86c-1.64,6.39,3,8.69,3.55,13.36.4,3.62-3.2,9.09.16,14.43,3.06,4.85,8.34,3.76,11.55,5.26s5.27,8.88,11.21,10.82,11.11-3.51,14.25-3.51,7,9.6,17.18,8.66,13.11-9.64,17.33-11.38,14.85,1.09,19.65-4.23,5.56-12.4,7.72-15,6.72-2.24,9.38-8.28-3-9.8-3.8-15c-.59-3.63,2.61-7,.29-12.52-3.19-7.6-12.51-5.88-16.15-13.68-2.85-6.12-8.88-32.77-25.08-39.2C148,165.76,135.38,170.81,135.38,170.81Z" style="fill:#263238"></path><path d="M103.91,224.08a9.11,9.11,0,0,1-2.7,3.46l-3.31,2.91a27.71,27.71,0,0,0-5.83,6.29,8.85,8.85,0,0,0-.92,7.79,13.55,13.55,0,0,0,2.18,3.53,15.63,15.63,0,0,1,2.57,3.86,7.62,7.62,0,0,1-.37,4.82c-.47,1.43-1,2.79-1.37,4.16-.8,2.71-1,5.6.35,8a6,6,0,0,0,2.82,2.73,11.16,11.16,0,0,0,4.1.84c1.44.09,2.9,0,4.38,0a7.45,7.45,0,0,1,4.28.93,7.74,7.74,0,0,0-4.26-.48c-1.46.11-2.92.3-4.41.34a11.68,11.68,0,0,1-4.5-.7,7.12,7.12,0,0,1-3.54-3.07c-1.75-2.73-1.48-6.22-.69-9.05.38-1.46.89-2.86,1.3-4.23a6.12,6.12,0,0,0,.33-3.78c-.9-2.33-3.56-4.4-4.59-7.43a9.84,9.84,0,0,1,1.25-9,28,28,0,0,1,6.41-6.23l3.54-2.62A9.86,9.86,0,0,0,103.91,224.08Z" style="fill:#263238"></path><path d="M174.22,185.12c2.84,4.46,4.62,9.46,6.86,14.18,1.13,2.36,2.17,4.76,3.45,7a17.32,17.32,0,0,0,2.13,3.08,2.48,2.48,0,0,0,.61.57,3.11,3.11,0,0,0,.71.45c.55.29,1.14.54,1.73.79a76,76,0,0,1,7.24,3.28,13.52,13.52,0,0,1,5.83,5.72,8.28,8.28,0,0,1,.85,4.1,10.64,10.64,0,0,1-1.16,3.92c-1.2,2.35-2.33,4.7-2.38,7.38-.35-2.66.69-5.3,1.63-7.7a10,10,0,0,0,.85-3.64,7.14,7.14,0,0,0-.94-3.47,13,13,0,0,0-5.42-5,76.33,76.33,0,0,0-7.16-3.08c-.61-.27-1.22-.55-1.83-.87a5.87,5.87,0,0,1-1.74-1.4A18.51,18.51,0,0,1,183.2,207a63.36,63.36,0,0,1-3.3-7.23l-2.79-7.38A64.93,64.93,0,0,0,174.22,185.12Z" style="fill:#263238"></path><path d="M197,257.07c-1.11,1.52-1.24,3.48-1.64,5.29s-.76,3.69-1.23,5.53a28,28,0,0,1-1.92,5.44A12.4,12.4,0,0,1,188.5,278c-3.56,2.32-7.81,2.09-11.49,1.46-1.87-.33-3.7-.76-5.54-1a11.67,11.67,0,0,0-5.51.08,10.81,10.81,0,0,1,5.6-.9c1.9.13,3.77.41,5.62.58,3.64.35,7.52.37,10.36-1.56a11.14,11.14,0,0,0,3.26-4,34.08,34.08,0,0,0,2.1-5.08c.61-1.76,1.12-3.57,1.66-5.37.3-.9.6-1.8.94-2.69A5.39,5.39,0,0,1,197,257.07Z" style="fill:#263238"></path><path d="M170.08,285.67c21.58,10.63,96.27,40.53,117.14,28.67,13.69-7.78,56-53.74,54.16-71.85-.8-7.88-36.5-35.92-41.49-29.07s-37.74,45-43.48,47.78-75.18-6-96.71-4.32C122.59,259.74,158.46,280,170.08,285.67Z" style="fill:#d3766a"></path><path d="M283.73,223.58l45.78,49.15s-30.71,39.57-51.84,47.56C252,330,171.48,292.57,159,285.75c-20.41-11.19-27-22.78-15.65-28.05,4.38-2.08,11.49-3.18,21.57-2.9,10.53.26,74.32,5.79,90.8,3.15C265,256.47,283.73,223.58,283.73,223.58Z" style="fill:#ebebeb"></path><path d="M318.32,278.94c-7-7.06-34.51-37-40-43.87-.38-.47-.17-.83.29-.39,21.44,20.66,33.5,36.7,40,44C318.75,278.83,318.49,279.12,318.32,278.94Z" style="fill:#263238"></path><path d="M202.09,415.8s-131.34,0-131.89,0c0,0,.4-3.08,1.17-7.08,0-.14,0-.27.08-.41s0-.05,0-.08c.11-.58.23-1.19.35-1.84.44-2.23,1-4.83,1.55-7.76,2.09-10.26,5.15-24.45,9-39.91.4-1.63.82-3.27,1.24-4.92.86-3.37,1.76-6.79,2.69-10.23.15-.53.29-1.06.44-1.59,0-.16.09-.32.13-.48.15-.53.29-1.06.44-1.6,6.43-23.18,14.36-46.81,23.23-62.85a67.87,67.87,0,0,1,9-13,43.38,43.38,0,0,1,4.79-4.51c.47-.37.93-.73,1.39-1.07s1-.68,1.43-1a31.41,31.41,0,0,1,4-2.27,26.3,26.3,0,0,1,3.07-1.24c.75-.26,1.5-.47,2.24-.65a24.08,24.08,0,0,1,16.76,1.91,28.41,28.41,0,0,1,3.29,2c.25.18.5.36.74.55h0a29.67,29.67,0,0,1,3.24,2.84l0,0,.3.32v0c.57.65,1.59,1.92,2.93,3.66,1.74,2.25,4,5.31,6.61,8.86q1.38,1.89,2.84,3.95l.26.37c.28.38.55.77.82,1.16,1.58,2.23,3.2,4.58,4.82,7,1.23,1.81,2.46,3.66,3.67,5.52,1.65,2.52,3.26,5.06,4.79,7.57a123.46,123.46,0,0,1,9.07,17.26,33.29,33.29,0,0,1,1.36,4.11,3.24,3.24,0,0,1,.09.4c0,.12.06.25.09.37a29,29,0,0,1,.57,5.86h0a39,39,0,0,1-.83,7.79l-.09.45A59.35,59.35,0,0,1,192.94,349a.25.25,0,0,0,0,.07l-.35.69c-.37.69-.59,1.07-.59,1.07l0,.13.2,1.35,2.48,17,3.63,25Z" style="fill:#93D6D0"></path><path d="M65.75,415.8c.44-2.4.88-4.8,1.33-7.17,0-.06,0-.13,0-.19l0-.17c.11-.59.22-1.18.34-1.77C70.2,392.24,73,378.57,76,366.05h0c.35-1.53.71-3.05,1.07-4.54,1.33-5.51,2.67-10.77,4-15.73.06-.2.11-.4.17-.6.11-.41.22-.82.34-1.22.17-.64.35-1.27.53-1.89,1.74-6.11,3.5-11.71,5.27-16.69,8.25-23.17,16-38.71,22.58-49.12,5.08-8,9.5-13,13-16.11a33.08,33.08,0,0,1,3.1-2.49l.25-.17c3.11-2.14,4.87-2.37,4.87-2.37v.08c0,.14,0,.45,0,.93,0,1,6.59,32.87,6.68,36.76.2,8.64,7.5,116.6,7.59,122.92C145.45,415.82,65.75,415.8,65.75,415.8Z" style="fill:#ebebeb"></path><path d="M203,415.8H176.85c0-.07,0-.15,0-.22-.85-8.71-1.68-17.34-2.48-25.81-.06-.54-.11-1.07-.16-1.61-.52-5.44-1-10.82-1.53-16.09,0-.19,0-.38,0-.57-.68-7.15-1.34-14.12-2-20.86q0-.31-.06-.63c-.68-7.22-1.33-14.16-1.94-20.76,0-.14,0-.27,0-.41l0-.36c-.59-6.28-1.26-12.27-2-17.92-1.06-8.35-2.2-15.95-3.32-22.62q-.48-2.88-.95-5.52c-.06-.33-.12-.65-.17-1-2.14-11.89-4-19.91-4.67-22.67h0c-.11-.47-.19-.78-.23-.94a.84.84,0,0,1,0-.1v0h0a14.35,14.35,0,0,1,3.24,2.86l0,0,.3.32v0c.82.89,1.72,1.93,2.71,3.11,2,2.34,4.2,5.21,6.59,8.43q1.76,2.36,3.59,4.92l.32.44.86,1.22c2.52,3.57,5.09,7.37,7.57,11.19l.92,1.45c1.61,2.51,3.16,5,4.62,7.49a118.88,118.88,0,0,1,8.7,17.11,31.2,31.2,0,0,1,1.29,4.08,3.24,3.24,0,0,1,.09.4c0,.22.09.43.13.64a36.62,36.62,0,0,1,.53,5.59h0a39.62,39.62,0,0,1-.62,7.82h0c0,.2-.07.4-.1.59A43.5,43.5,0,0,1,192.94,349a.25.25,0,0,0,0,.07l-.37.58,0,.11.21,1.33.19,1.22,2.56,16.15,6.32,39.77Z" style="fill:#ebebeb"></path><path d="M202.61,415.8h-.52c-.53-2.91-1.12-5.8-1.64-8.71-.76-4.25-1.47-8.5-2.16-12.77-.06-.34-.11-.69-.17-1-1.28-7.93-2.43-15.88-3.58-23.83l-.6-4.15c-.62-4.33-1.29-8.67-1.85-13-.06-.45-.12-.91-.17-1.36l-.18-1.49c-.06-.58,2.32-4.35,3-5.79a37.69,37.69,0,0,0,2.3-6.07c.23-.81.44-1.63.6-2.46a3.4,3.4,0,0,0,.07-.34,33.29,33.29,0,0,0,.44-10.25,37.43,37.43,0,0,0-2-8.4c-2-5.66-5.16-10.94-8.33-16l-.87-1.38c-1.59-2.53-3.2-5.05-4.8-7.57-1.06-1.68-2.11-3.36-3.15-5.06a.14.14,0,0,1,.09-.2.1.1,0,0,1,.13,0q1.62,2.13,3.23,4.29l1.14,1.54q2.14,2.93,4.27,5.86c-.73-1.64-1.45-3.29-2.13-5-.2-.46-.38-.93-.57-1.4-.1-.24.25-.45.36-.2.3.62.59,1.25.87,1.88,1,2.15,1.88,4.33,2.78,6.51l.21.3a81.61,81.61,0,0,1,6.5,10.8,47.14,47.14,0,0,1,2.54,6.3A36.74,36.74,0,0,1,199.83,335c-.1.59-.23,1.18-.37,1.77a.74.74,0,0,1,0,.14,33,33,0,0,1-2.58,7c-.78,1.55-3.29,4.91-3.29,5l.42,2.39c.05.28.09.57.14.85.85,5,1.59,10.09,2.31,15.14.44,3.12.87,6.24,1.31,9.35,1.31,9.36,2.64,18.71,3.73,28.1.13,1.13.25,2.26.37,3.39C202.09,410.75,202.33,413.28,202.61,415.8Z" style="fill:#263238"></path><path d="M157.48,258.76q4.64,7,9.42,13.95c3.22,4.59,6.37,9.24,9.64,13.79l.07-1.09-7.87,8.25-.65.68.69.67c3.31,3.21,6.69,6.36,10.05,9.52l-.28-.82c-1.22,8.55-2.53,17.08-3.62,25.65s-2.23,17.13-3.18,25.72c1.63-8.49,3.12-17,4.54-25.51s2.76-17.05,4.11-25.58l.08-.48-.36-.34c-3.33-3.19-6.64-6.4-10-9.55l0,1.35,7.72-8.39.48-.52-.41-.57c-3.31-4.53-6.75-9-10.12-13.44S161,263.16,157.48,258.76Z" style="fill:#a6a6a6"></path><path d="M106.1,279.86c-32.75,46.27-53.3,115.27-33.19,128,13.36,8.44,41.07-68,40.13-67.62-2,.82,5.25-25.44,14.24-57.3C137.31,247.38,124.81,253.41,106.1,279.86Z" style="fill:#d3766a"></path><path d="M122.47,259.24C97.13,279,50.36,371.35,67.48,404.46c13.88,26.84,49.14-64.54,48.24-65.62s8.85-36.22,12.83-50.52S136,248.73,122.47,259.24Z" style="fill:#ebebeb"></path><path d="M123.72,313.52c-.85,1.47-1.69,2.93-2.48,4.44-.14.28-.27.57-.41.85.18-.75.35-1.5.53-2.25a77.59,77.59,0,0,0,1.75-7.94.11.11,0,0,0-.21-.05,79.71,79.71,0,0,0-2.42,8.11c-.75,2.65-1.51,5.3-2.2,8s-1.43,5.34-2.08,8a59,59,0,0,0-1.64,8,.14.14,0,0,0,.26.06,59,59,0,0,0,2.53-8.07c.72-2.66,1.38-5.34,2.07-8,.29-1.11.56-2.24.83-3.36l.42-.79c.4-.72.76-1.47,1.11-2.21.72-1.55,1.38-3.11,2-4.69C123.83,313.52,123.75,313.48,123.72,313.52Z" style="fill:#263238"></path><path d="M131.44,258.11q-2.7,7.75-5.56,15.45c-1.93,5.11-3.78,10.26-5.78,15.34l-.29-1,8.81,6.55.73.54-.48.79c-2.31,3.78-4.68,7.51-7,11.25l.08-.86c2.88,8.12,5.85,16.21,8.62,24.38s5.6,16.32,8.25,24.53q-4.86-12-9.43-24.07c-3.12-8-6-16.13-9.06-24.21l-.16-.45.25-.41c2.32-3.76,4.63-7.54,7-11.27l.25,1.33-8.71-6.71-.54-.42.25-.63c2-5.07,4.2-10.07,6.29-15.1S129.22,263.08,131.44,258.11Z" style="fill:#a6a6a6"></path><path d="M126.73,267c-.69-10.32,7.74-14,15.47-15,9.17-1.24,15.27-.46,19.66,8.43,4.62,9.37,7,20.25,8.84,30.51.34,1.91,3.33,1.44,3-.48-2.08-11.82-5.06-33.86-16.82-40.3-10.82-5.92-34.29-.13-33.13,17.37.13,1.94,3.11,1.45,3-.48Z" style="fill:#455a64"></path><path d="M180,295.2a6.94,6.94,0,1,1-7.95-5.75A6.95,6.95,0,0,1,180,295.2Z" style="fill:#263238"></path><path d="M177.22,295.64a4.18,4.18,0,1,1-4.78-3.47A4.18,4.18,0,0,1,177.22,295.64Z" style="fill:#ebebeb"></path><path d="M137.16,299.38c7.59,29,6.4,36.11,4,39.44a19.21,19.21,0,0,1-6.82,5.49l-.87-1.92.44,1-.44-1a17.43,17.43,0,0,0,6-4.8c1.75-2.41,3.2-8.94-4.31-37.67Z" style="fill:#c7c7c7"></path><rect x="131.3" y="339.86" width="4.49" height="7.29" rx="1.11" transform="translate(-102.8 626.29) rotate(-118.87)" style="fill:#263238"></rect><path d="M118.23,300.07c-5.8,21.86-7.21,33.82-4.45,37.66a17.13,17.13,0,0,0,6,4.82l-.88,1.92a19.36,19.36,0,0,1-6.8-5.51c-3.29-4.57-2.1-16,4.12-39.43Z" style="fill:#c7c7c7"></path><path d="M118.53,340h2.26a1.11,1.11,0,0,1,1.11,1.11v5.07a1.12,1.12,0,0,1-1.12,1.12h-2.26a1.11,1.11,0,0,1-1.11-1.11v-5.07A1.11,1.11,0,0,1,118.53,340Z" transform="translate(-238.86 281.29) rotate(-60.93)" style="fill:#263238"></path><path d="M115.47,298.62a120,120,0,0,1,3.78-14.29,12.65,12.65,0,0,1,4.23-5.17c.42,0,.25-3.73,0-6.74-.19-2.65-.46-5.74.17-6.59a2.07,2.07,0,0,1,2.89-.14c.73.78.76,3.88.85,6.54.09,3,.29,6.7.71,6.69a13.81,13.81,0,0,1,4.49,4.79,99.11,99.11,0,0,1,5,14.28c.67,3.11-.35,3.49-1.24,3.8-1.26.43-2.06-.44-3-3.88-1.56-5.45-3.52-14.63-7.31-14.61h0c-3.77.37-5.31,10.09-6.53,15.5-.77,3.39-1.48,3.72-2.78,3.42C115.8,302,114.86,301.62,115.47,298.62Z" style="fill:#263238"></path><polygon points="204.92 155.63 198.48 303.76 316.71 288.17 323.16 140.04 204.92 155.63" style="fill:#37474f"></polygon><path d="M218.42,224.6c.87,14.31,6,22.17,7.65,26.75s9,15.88,9,16.46-6.92,32-6.92,32l52.4-6.91s-.92-16.54-.53-18.12,11.66-24.49,15.46-34.44,10.65-40.59,10.19-51.49-11-8.94-13.13-.58c-1.72,6.62-8.54,30.38-9.3,30.2s4-34.11,2.45-46.44-12.21-7.91-13.38,1.76-3.25,41.74-3.71,41.66-2.39-35.87-4.25-45.59-13.83-7.58-14.24,3.69,2.41,45.08,1.95,44.76-4.6-22.85-8.5-34.5-15.33-5.47-13.76,6.36,11.52,46.65,11,46.54-5.88-10-8.09-19.28S217.54,210.28,218.42,224.6Z" style="fill:#fff;opacity:0.2"></path><path d="M245.64,251.63c.25-1.86-1.75-1.46-2.91-2.74s-4.74-4.54-4.85-5.7,0-2.83-1.55-3.39c-1.09-.41-2.29.78-3.09,1.38s-1.73,2-1.42,3.08c.49,1.68,2.32,1.55,2.48,1.81s4.72,5.17,5.19,5.92-.21,4,1.95,4.09c1.47.05,1.93-.6,2.73-1.41A4.25,4.25,0,0,0,245.64,251.63Z" style="fill:#fff"></path><path d="M254.32,240.84c.91-1.74-1-2.15-1.47-3.88-.57-1.91-2.38-6.38-2-7.57s1-2.82-.07-4c-.78-.83-2.25-.13-3.17.15a3.53,3.53,0,0,0-2.37,2.49c-.21,1.85,1.41,2.45,1.46,2.77s2.12,7,2.24,7.93-1.68,3.9.15,4.83c1.24.64,1.88.18,2.87-.31A4.39,4.39,0,0,0,254.32,240.84Z" style="fill:#fff"></path><path d="M263.47,238.92c1.34-1.65-.42-2.58-.5-4.6-.09-2.23-.77-7.57-.13-8.77s1.72-2.79.93-4.33c-.57-1.12-2.21-.75-3.19-.69a3.65,3.65,0,0,0-3,2.07c-.68,2,.79,3,.75,3.4s.36,8.17.25,9.21-2.66,3.79-1.07,5.28c1.08,1,1.83.69,2.94.43A4.53,4.53,0,0,0,263.47,238.92Z" style="fill:#fff"></path><path d="M239.63,209.48c-.13,1.84,1.53,2.37,1.58,2.68,0,.07.15.47.35,1.05l5.07,2c-.74-1.86-1.49-3.89-1.3-4.65.29-1.2.91-2.84-.24-3.94-.82-.79-2.27,0-3.18.29A3.56,3.56,0,0,0,239.63,209.48Z" style="fill:#fff"></path><path d="M244.25,225.41c1.39.33,1.94-.23,2.85-.9a4.44,4.44,0,0,0,2-2.79c.58-1.84-1.4-1.84-2.26-3.36-.35-.62-.93-1.53-1.52-2.49l-5.45-1.08c1,1.77,3.08,5.41,3.31,6.07C243.46,221.72,242.22,224.9,244.25,225.41Z" style="fill:#fff"></path><path d="M263.22,217.32c1.23-1.73-.63-2.5-.87-4.48-.26-2.18-1.37-7.37-.83-8.61s1.52-2.88.6-4.33c-.66-1.05-2.29-.55-3.28-.41a3.73,3.73,0,0,0-2.86,2.29c-.52,2,1,2.92,1,3.27s1,8,1,9-2.38,3.95-.66,5.29c1.18.91,1.91.52,3,.17A4.62,4.62,0,0,0,263.22,217.32Z" style="fill:#fff"></path><path d="M243.86,203.26c.94-1.73-.92-2.17-1.4-3.92-.54-1.93-2-4.82-1.68-6s1.06-2.81,0-4c-.77-.85-2.25-.18-3.16.09a3.5,3.5,0,0,0-2.41,2.45c-.24,1.86,1.36,2.49,1.4,2.81s1.77,5.44,1.87,6.37-1.74,3.89.07,4.85c1.23.66,1.87.21,2.86-.26A4.34,4.34,0,0,0,243.86,203.26Z" style="fill:#fff"></path><path d="M261.46,196.58c1.24-1.72-.6-2.52-.82-4.5-.25-2.19-1.3-7.39-.74-8.63s1.54-2.87.64-4.33c-.66-1.06-2.29-.58-3.28-.44a3.7,3.7,0,0,0-2.87,2.26c-.55,2,1,2.93,1,3.29s.92,8,.88,9.05-2.41,3.93-.71,5.29c1.17.93,1.9.54,3,.2A4.55,4.55,0,0,0,261.46,196.58Z" style="fill:#fff"></path><path d="M273.56,241.54c1.63-1.31.25-2.71.67-4.76.46-2.25,1.14-7.79,2-8.83s2.25-2.35,1.91-4.1c-.25-1.27-1.85-1.33-2.77-1.52a3.33,3.33,0,0,0-3.24,1.3c-1.1,1.79,0,3.26-.14,3.61s-1.67,8.29-2,9.3-3.36,3.12-2.27,5c.75,1.31,1.51,1.17,2.6,1.19A4.05,4.05,0,0,0,273.56,241.54Z" style="fill:#fff"></path><path d="M278.76,220.18c1.45-1.53-.18-2.63-.08-4.67.11-2.24-.09-7.66.64-8.81s1.92-2.63,1.29-4.25c-.46-1.18-2.09-1-3.05-1a3.52,3.52,0,0,0-3.09,1.8c-.83,1.9.5,3.12.44,3.48s-.37,8.22-.57,9.26-2.91,3.55-1.5,5.2c1,1.13,1.72.86,2.82.7A4.32,4.32,0,0,0,278.76,220.18Z" style="fill:#fff"></path><path d="M280.61,198.72c1.41-1.58-.28-2.61-.26-4.63,0-2.23-.24-6.54.45-7.71s1.82-2.7,1.13-4.28c-.51-1.14-2.14-.86-3.11-.85a3.55,3.55,0,0,0-3,1.91c-.76,1.92.62,3.08.57,3.43s-.19,7.13-.36,8.16-2.79,3.65-1.3,5.23c1,1.08,1.76.78,2.86.58A4.4,4.4,0,0,0,280.61,198.72Z" style="fill:#fff"></path><path d="M281.83,245.72c1.66-.74.88-2.36,1.73-4.09.94-1.91,2.27-6.06,3.25-6.76s2.41-1.52,2.57-3.18c.12-1.21-1.16-1.69-1.86-2.1a2.59,2.59,0,0,0-2.95.3c-1.34,1.32-.83,2.93-1,3.21s-2.82,6.36-3.36,7.18-3.5,1.91-3.1,3.92c.28,1.37.94,1.45,1.81,1.76A3.14,3.14,0,0,0,281.83,245.72Z" style="fill:#fff"></path><path d="M291.12,227.59c1.35-1.07.22-2.22.57-3.91.39-1.85.75-5.06,1.48-5.91s1.86-1.93,1.59-3.37c-.2-1.05-1.51-1.1-2.27-1.26a2.73,2.73,0,0,0-2.67,1.06c-.91,1.47,0,2.68-.13,3s-1.19,5.47-1.48,6.3-2.77,2.56-1.88,4.14c.6,1.07,1.23,1,2.12,1A3.29,3.29,0,0,0,291.12,227.59Z" style="fill:#fff"></path><path d="M295.73,211.2c1.35-1.06.23-2.22.59-3.91.41-1.85.94-5.5,1.67-6.35s1.88-1.91,1.61-3.36c-.19-1.05-1.5-1.11-2.25-1.28a2.69,2.69,0,0,0-2.67,1c-.92,1.46-.05,2.68-.15,3s-1.38,5.9-1.68,6.74-2.79,2.53-1.91,4.12c.6,1.08,1.23,1,2.12,1A3.31,3.31,0,0,0,295.73,211.2Z" style="fill:#fff"></path><path d="M234.31,237.71c.76-1.8-1.17-2-1.85-3.66-.76-1.81-2.4-4.14-2.17-5.34s.77-2.86-.44-3.88c-.87-.74-2.29.08-3.19.45a3.57,3.57,0,0,0-2.17,2.67c0,1.84,1.66,2.27,1.73,2.57s2.2,4.78,2.41,5.68-1.33,4,.6,4.71c1.32.5,1.92,0,2.88-.59A4.4,4.4,0,0,0,234.31,237.71Z" style="fill:#fff"></path><path d="M273,258.23c2.75-.27,5.65-6.76,4.37-9.61-1.64-3.69-10.37-.21-11.84,3.39-1.13,2.78,1.48,1,3.72,3.24C270.91,256.89,271.71,258.37,273,258.23Z" style="fill:#fff"></path><path d="M267.9,244.75c-1.4-2.32-10-1.55-14,.32-2.34,1.09-6,4.88-6,6.59s2.18,4.63,4,4a58.71,58.71,0,0,1,8.25-1.76C263.66,253.6,269.07,246.71,267.9,244.75Z" style="fill:#fff"></path><path d="M299.35,195.26a1.93,1.93,0,0,0,.79-2.73c-.32-.5.83-4.11-.48-4.39s-1.75,3-2.57,3.78-1.85,2.35-.63,3.13A3.37,3.37,0,0,0,299.35,195.26Z" style="fill:#fff"></path><path d="M280.77,179.48a2.06,2.06,0,0,0,.2-3.14c-.51-.44-.13-4.61-1.73-4.54s-1.24,3.66-2,4.75-1.52,3,.1,3.51A4.39,4.39,0,0,0,280.77,179.48Z" style="fill:#fff"></path><path d="M258.89,176.66a2,2,0,0,0,.18-3.13c-.51-.43-.16-4.6-1.77-4.52s-1.21,3.66-1.93,4.76-1.5,3,.12,3.5A4.35,4.35,0,0,0,258.89,176.66Z" style="fill:#fff"></path><path d="M239.12,187.83a1.94,1.94,0,0,0-.23-3.06c-.57-.35-.77-4.43-2.38-4.13s-.75,3.71-1.34,4.88-1.13,3.14.58,3.37A4.7,4.7,0,0,0,239.12,187.83Z" style="fill:#fff"></path><path d="M228.07,223a2,2,0,0,0-.18-3.07c-.57-.36-.7-4.46-2.31-4.18s-.81,3.71-1.42,4.87-1.17,3.13.53,3.39A4.62,4.62,0,0,0,228.07,223Z" style="fill:#fff"></path><path d="M251.09,258.89c.19-1-3.62-4.42-4.75-4.18s-3.49,4.17-3.42,5.58,2.6,4.1,3.91,3.29S250.74,260.73,251.09,258.89Z" style="fill:#fff"></path><path d="M241.58,298.08l4.63-.61c1.5-9.45,3.32-20.2,4.19-25.3.2-1.16.35-2,.44-2.52.49-2.87-1.17-4.29-2.65-4.33a1.91,1.91,0,0,0-1.91,1.24C245.64,268.3,243.23,285.43,241.58,298.08Z" style="fill:#fff"></path><path d="M251.67,272c1.19,1.44,2.36,2.48,2.32,2.89s-.49,9.81-1.05,21.69l10.42-1.38c.65-11,1.41-19.83,2.13-21.2,2-3.74,10-9.49,5.84-13.95s-8.71-3.22-11.76-3-3.13-.33-8.43,5.33a6.86,6.86,0,0,0-1.68,2.81C248.7,267.79,250.2,270.21,251.67,272Z" style="fill:#fff"></path><path d="M322,193.73c5.89,7.31,18.19,15.21,20.61,21.75a8,8,0,0,1-2.36,9.25s7.52,1.75,8.74,8.05c.62,3.25-4,7.09-4,7.09s6,1.67,6.7,7.34c.59,4.51-4.14,7.69-4.14,7.69s5,4.27,4.1,9.06c-1.78,9.72-39.82,18.8-49,6.19-4.29-5.87,5.12-7.59,5.12-7.59s-14.13-.8-16.2-8.6,10.29-9.28,10.29-9.28-13.69-.9-15-9.19c-1.39-8.64,11.23-8,11.23-8s-9.83-3.71-9.39-10.3c.71-10.87,19.77-2,27.65-5.94l1.32-14.89Z" style="fill:#d3766a"></path><path d="M332.49,203.89c-5-7.41,2.71-19.86-1-27.63-5-10.51-14.92,3.34-13.86,20.09l3.12,12.87Z" style="fill:#d3766a"></path><path d="M346.87,255.51a.1.1,0,0,1,.08.19c-11.78,6-26.58,9.05-39.74,7-.43-.07-.51-.8,0-.82C321.16,261.41,333.51,259.86,346.87,255.51Z" style="fill:#263238"></path><path d="M345.18,239.91c.15,0,.23.19.08.26-12.17,6.16-28.93,9.1-43.82,5-.51-.14-.83-.78-.23-.66C311.32,246.47,333.18,243.88,345.18,239.91Z" style="fill:#263238"></path><path d="M297,226.84c14.43,3.41,28.51,1.85,42.73-1.83.19,0,.24.22.09.3-6.47,3.7-15.78,5.1-23.12,5.58a39.12,39.12,0,0,1-19.82-3.55C296.66,227.23,296.72,226.77,297,226.84Z" style="fill:#263238"></path><path d="M134.82,258c.77,2,8.33,15.21,17.78,15.21,6,0,4.5-20.37,4.5-20.37l.1-1.27,1.37-17.77L136.48,223.7l-3.16-1.3s-.06,4.89-.07,11v.87c0,.34,0,.67,0,1,0,.91,0,1.84,0,2.76,0,.71,0,1.39,0,2.13s0,1.46.05,2.2C133.6,249.64,134.5,257.12,134.82,258Z" style="fill:#d3766a"></path><path d="M133.25,233.37a35.74,35.74,0,0,0,23.95,18.17l1.37-17.77L136.48,223.7l-3.16-1.3S133.26,227.29,133.25,233.37Z" style="fill:#263238"></path><path d="M179.85,203.64c6.6,30.57-11,38-17.57,39.39-6,1.29-26.53,4.9-36.25-24.83s2.4-42.46,15.94-46.13S173.25,173.06,179.85,203.64Z" style="fill:#d3766a"></path><path d="M124.73,213.89c3.43-.35,12-10.18,11.56-26.8,0,0-.65,14.95-1.68,17.18s4.79-5.53,4.63-18.94c0,0,7.64,5,14,6.55s10.27,1.28,10.7.81-9-3-11.64-5.82c0,0,17.15,7.12,24.93,7.38.9,0,1.2-18.46-11.12-25.78s-31,1.92-35.85,7.07c0,0-6,1.11-12.1,10.25S121,214.27,124.73,213.89Z" style="fill:#263238"></path><path d="M131,215.78s-8-8.83-12.09-5.86,2.78,16.37,8.18,17.64a5.3,5.3,0,0,0,6.68-3.71Z" style="fill:#d3766a"></path><path d="M120.92,213.72c-.08,0-.08.12,0,.14,3.81,1,6.13,4.12,7.91,7.43-1.25-1.2-2.8-1.75-4.44-.25-.08.08,0,.22.13.19a3.24,3.24,0,0,1,3.69.67,15.3,15.3,0,0,1,2.07,2.66c.21.3.77.06.6-.3,0,0,0,0,0-.08C130.34,219.55,125.93,213.55,120.92,213.72Z" style="fill:#263238"></path><path d="M172.09,200.86c-.74,0-1.42-.06-2.16-.1a3.42,3.42,0,0,1-2.17-.53,1.11,1.11,0,0,1-.22-1.34,2.76,2.76,0,0,1,2.58-1.06,4.1,4.1,0,0,1,2.74,1A1.19,1.19,0,0,1,172.09,200.86Z" style="fill:#263238"></path><path d="M150.25,200.83a20.37,20.37,0,0,0,2-.78,3.54,3.54,0,0,0,1.91-1.18,1.13,1.13,0,0,0-.22-1.34,2.76,2.76,0,0,0-2.79-.2,4,4,0,0,0-2.28,1.81A1.19,1.19,0,0,0,150.25,200.83Z" style="fill:#263238"></path><path d="M156.6,208.6c0-.08-.14.13-.13.21.46,2.08.63,4.54-1.13,5.58-.06,0,0,.14,0,.12C157.62,213.76,157.36,210.5,156.6,208.6Z" style="fill:#263238"></path><path d="M154.33,206.76c-3.41.37-2.42,7.16.74,6.82S157.19,206.45,154.33,206.76Z" style="fill:#263238"></path><path d="M153.05,207.31c-.54.47-1,1.24-1.73,1.41s-1.54-.42-2.18-1c-.07-.06-.12,0-.11.09.17,1.31.87,2.57,2.29,2.56s2.05-1.29,2.18-2.65C153.53,207.45,153.26,207.12,153.05,207.31Z" style="fill:#263238"></path><path d="M168.61,205.93c0-.08.18.08.18.17.23,2.11.84,4.5,2.84,4.94.06,0,.07.12,0,.12C169.26,211.15,168.48,208,168.61,205.93Z" style="fill:#263238"></path><path d="M170.19,203.47c3.35-.72,4.55,6,1.44,6.71S167.37,204.08,170.19,203.47Z" style="fill:#263238"></path><path d="M171.67,203.67c.6.26,1.25.82,1.89.75s1.17-.91,1.52-1.7c0-.08.1,0,.11.06.27,1.28.08,2.7-1.12,3.17s-2.12-.53-2.65-1.76C171.32,204,171.43,203.56,171.67,203.67Z" style="fill:#263238"></path><path d="M158.94,224.81c.56.44,1.13,1.07,1.91,1.06a5.59,5.59,0,0,0,2.22-.76.07.07,0,0,1,.1.1,2.87,2.87,0,0,1-2.57,1.42,2.26,2.26,0,0,1-1.85-1.71C158.7,224.8,158.86,224.74,158.94,224.81Z" style="fill:#263238"></path><path d="M166.53,215.83s1,3.56,1.24,5c0,.14-5-.11-8.93.92-.18.05-.39-.26,0-.5,2.45-1.39,7.6-1.49,7.6-1.49,0-.24-1.77-5.21-1.54-5.26a12.86,12.86,0,0,1,3.48.23c-1.74-6.45-4.51-12.57-6.15-19a.2.2,0,0,1,.37-.15c3.36,6.2,5.53,13.58,7.5,20.2C170.39,216.62,167.16,216,166.53,215.83Z" style="fill:#263238"></path><path d="M158.57,265.71c-.39-.39.56-8.15.19-8.46-1-.84-3.4,1.55-7.66,1.4-7.41-.25-15.38-7.34-17.09-6.76s-1.56,9.13-2,9.38,15.47,14.42,20.52,13.07S158.57,265.71,158.57,265.71Z" style="fill:#93D6D0"></path><path d="M156,265c.17-1.81.48-3.6.57-5.42a.15.15,0,0,1,.29,0,44.53,44.53,0,0,1,0,5.54,22.86,22.86,0,0,1-1.06,5.3.11.11,0,0,1-.21,0C155.64,268.55,155.83,266.75,156,265Z" style="fill:#263238"></path><path d="M151.72,271.09c0-.42.07-.85.11-1.27.08-.93.18-1.86.28-2.79s.18-1.86.26-2.79.24-1.85.23-2.8c0-.19.28-.18.29,0,.07.94.25,1.86.29,2.81a25.75,25.75,0,0,1-.06,2.91,20.34,20.34,0,0,1-.38,2.68c-.09.46-.21.91-.34,1.35s-.39.94-.52,1.41c0,.12-.24.09-.22,0C151.73,272.1,151.68,271.58,151.72,271.09Z" style="fill:#263238"></path><path d="M148.14,260.57c0-.17.28-.11.29.05a29.66,29.66,0,0,1-1,10,.08.08,0,0,1-.16,0A38.68,38.68,0,0,1,148.14,260.57Z" style="fill:#263238"></path><path d="M143.35,263.73c.06-.79.08-1.58.18-2.36a11.8,11.8,0,0,1,.35-2.22.15.15,0,0,1,.29,0,9.78,9.78,0,0,1,.16,2.23c0,.81-.05,1.64-.11,2.45a38.35,38.35,0,0,1-.76,4.64c0,.13-.22.09-.21,0C143.28,266.88,143.23,265.3,143.35,263.73Z" style="fill:#263238"></path><path d="M139.62,256.9c0-.16.28-.11.28.05a29.76,29.76,0,0,1-.83,8.31.08.08,0,0,1-.16,0A29.59,29.59,0,0,1,139.62,256.9Z" style="fill:#263238"></path><path d="M134.93,258.67c0-.69.7-3.87.81-4.5,0-.21.31-.17.29.05-.08.76-.29,3.74-.38,4.47-.19,1.45-.33,2.91-.55,4.35,0,.06-.11.09-.11,0A28,28,0,0,1,134.93,258.67Z" style="fill:#263238"></path><path d="M76.28,409.92c20.35,7.6,74-24.75,105.45-51.51,6-5.09-43.19-56.7-49-50.62a212.41,212.41,0,0,1-19.47,18.3C111.46,327.32,54,401.58,76.28,409.92Z" style="fill:#d3766a"></path><path d="M219.59,272.78c2.49,7.11-15.56,11.75-15.56,11.75a14,14,0,0,1,7.82,5.32c3.13,4.8-3,11.81-3,11.81a17.1,17.1,0,0,1,7.34,6.92c2.54,4.89-2.65,12.85-2.65,12.85a15.07,15.07,0,0,1,2.63,10.16c-1.39,9.55-15.37,14.55-23.41,19.36a194.15,194.15,0,0,0-25.32,18.85l-38.15-58.44s29.93-35.28,40.61-38.39C178.89,270.34,215.79,261.91,219.59,272.78Z" style="fill:#d3766a"></path><path d="M203.82,284.38c-10.24.5-20.34,3.45-30,6.4a.17.17,0,0,0,.1.33c9.63-3,20.3-3.59,30-6.25A.25.25,0,0,0,203.82,284.38Z" style="fill:#263238"></path><path d="M208.33,301a26.41,26.41,0,0,0-6.72,1.9q-3.5,1.26-7,2.63c-4.61,1.83-9.18,3.76-13.68,5.83-.2.09-.11.42.1.33,4.6-1.81,9.22-3.56,13.89-5.18q3.51-1.21,7-2.37a31.45,31.45,0,0,0,6.53-2.5A.35.35,0,0,0,208.33,301Z" style="fill:#263238"></path><path d="M213.33,321.5c-2,.08-4.12,1.27-6,2-2.08.88-4.17,1.74-6.26,2.6-4.18,1.7-8.36,3.41-12.61,5-.21.08-.1.41.11.33,4.32-1.56,8.65-3.06,13-4.67q3.17-1.17,6.32-2.39c1.79-.69,4.1-1.34,5.54-2.67C213.51,321.64,213.44,321.5,213.33,321.5Z" style="fill:#263238"></path><path d="M70.26,407.75c20.89,21.85,95.1-34.47,95.1-34.47L134.6,305.36s-17.89,19.68-19,18.81S49.38,385.9,70.26,407.75Z" style="fill:#ebebeb"></path><path d="M153.44,372.82c-4.64-8.79-22.29-45.42-25.57-53.59-.23-.57.08-.85.39-.29,14.52,26,21.41,44.83,25.52,53.68C153.88,372.84,153.55,373,153.44,372.82Z" style="fill:#263238"></path><path d="M134.11,305.6a53.65,53.65,0,0,0-6,5.59c-1.73,1.73-3.45,3.45-5.15,5.2-3.7,3.8-7.3,7.68-10.88,11.59s-7.1,7.85-10.58,11.84S94.81,348,91.34,352c-.15.18.14.4.3.22,3.56-3.94,7.39-7.65,11-11.51l10.74-11.35c3.58-3.78,7.18-7.53,10.75-11.32,1.75-1.85,3.48-3.72,5.22-5.58a58.63,58.63,0,0,0,5.45-6.14A.52.52,0,0,0,134.11,305.6Z" style="fill:#263238"></path><path d="M165,371.69c-.2-.46-.47-.48-.39.06,0,.29.18.8.23,1.09-2.6,1.72-12,8.36-14.25,10-4.82,3.36-9.44,6.95-14.5,9.93C76.43,427.81,69.6,405.5,68.16,404.94c-.22-.09-.13.05,0,.26,1,1.83,8.37,25,68.57-11.19,5.1-3.07,10.17-6.24,15-9.68,2.43-1.72,4.81-3.51,7.16-5.33a42.16,42.16,0,0,0,6.52-5.54.59.59,0,0,0,.09-.61C165.35,372.46,165.18,372.07,165,371.69Z" style="fill:#263238"></path></g><g id="freepik--Desk--inject-221"><polygon points="33.4 415.8 87.55 415.56 141.7 415.47 250 415.3 358.3 415.47 412.45 415.56 466.6 415.8 412.45 416.05 358.3 416.13 250 416.3 141.7 416.13 87.55 416.05 33.4 415.8" style="fill:#263238"></polygon></g><g id="freepik--Device--inject-221"><rect x="179.66" y="423.16" width="127.96" height="5.74" style="fill:#455a64"></rect><rect x="243.22" y="423.16" width="64.4" height="5.74" style="fill:#263238"></rect><polygon points="250.15 428.89 374.86 428.89 391.16 344.2 266.45 344.2 250.15 428.89" style="fill:#455a64"></polygon><path d="M313.06,386.54a6.86,6.86,0,0,0,6.93,7.6,8.46,8.46,0,0,0,8.26-7.6,6.85,6.85,0,0,0-6.93-7.59A8.46,8.46,0,0,0,313.06,386.54Z" style="fill:#263238"></path></g><g id="freepik--speech-bubble--inject-221"><path d="M258,128.08a36.36,36.36,0,0,1-60.75,23l-18.19,2.67L188.2,138A36.36,36.36,0,1,1,258,128.08Z" style="fill:#fff"></path><path d="M258,128.08a36.62,36.62,0,0,1-7.33,18.43,42.57,42.57,0,0,1-3.3,3.8,39.62,39.62,0,0,1-3.84,3.24A36.67,36.67,0,0,1,225,160.77a35.46,35.46,0,0,1-5.05.1,31.44,31.44,0,0,1-5-.53,36.58,36.58,0,0,1-18-8.88l.43.14-18.17,2.79-1.32.2.67-1.16,9.05-15.76-.05.62a36.81,36.81,0,0,1,2.24-32.41,37.19,37.19,0,0,1,11.39-12.12,37,37,0,0,1,32-4.31,37.22,37.22,0,0,1,14,8.6A36.54,36.54,0,0,1,258,128.08Zm0,0A36,36,0,0,0,216.8,88.73a36,36,0,0,0-15,5.93,37.51,37.51,0,0,0-10.87,11.87,35.83,35.83,0,0,0-4.62,15.38,36.33,36.33,0,0,0,2.56,15.84l.13.33-.17.3-9.16,15.69-.65-1,18.21-2.55.25,0,.18.16a35.71,35.71,0,0,0,17.41,9,30.32,30.32,0,0,0,4.93.6,34.49,34.49,0,0,0,5,0,35.61,35.61,0,0,0,9.71-2.13,34.12,34.12,0,0,0,8.77-4.73,41.85,41.85,0,0,0,3.84-3.21,39.27,39.27,0,0,0,3.31-3.75A36.54,36.54,0,0,0,258,128.08Z" style="fill:#263238"></path><path d="M225.66,128.53v4.27a3.14,3.14,0,0,1-3.22,3.21,3.22,3.22,0,0,1-3.21-3.21V126c0-.07.07-.07.07-.13s-.07-.07-.07-.14a3.31,3.31,0,0,1,3.21-3.21,7.35,7.35,0,1,0,0-14.69,7.24,7.24,0,0,0-6.29,3.61,3.24,3.24,0,0,1-4.46,1.18,3.19,3.19,0,0,1-1.11-4.39,13.78,13.78,0,1,1,15.08,20.32Zm0,14.36v1.18a3.14,3.14,0,0,1-3.22,3.22,3.22,3.22,0,0,1-3.21-3.22v-1.18a3.26,3.26,0,0,1,3.21-3.21A3.18,3.18,0,0,1,225.66,142.89Z" style="fill:#93D6D0"></path></g></svg>